<svg id="Layer_1" data-name="Layer 1" xmlns="http://www.w3.org/2000/svg" xmlns:xlink="http://www.w3.org/1999/xlink" viewBox="0 0 1920 1080"><defs><style>.cls-1,.cls-4,.cls-6,.cls-9{fill:none;}.cls-2{clip-path:url(#clip-path);}.cls-3{clip-path:url(#clip-path-2);}.cls-4,.cls-6{stroke:#000;}.cls-4,.cls-9{stroke-width:4px;}.cls-5{clip-path:url(#clip-path-3);}.cls-6{stroke-width:4px;}.cls-7{clip-path:url(#clip-path-5);}.cls-8{clip-path:url(#clip-path-7);}.cls-9{stroke:#d5d5d5;}.cls-10{clip-path:url(#clip-path-9);}.cls-11{clip-path:url(#clip-path-11);}.cls-12{clip-path:url(#clip-path-13);}.cls-13,.cls-16{fill:#fff;}.cls-14{clip-path:url(#clip-path-15);}.cls-15{clip-path:url(#clip-path-16);}.cls-16{font-size:32px;font-family:HelveticaNeue-Medium, Helvetica Neue;}.cls-16,.cls-28{font-weight:500;}.cls-17{clip-path:url(#clip-path-17);}.cls-18{clip-path:url(#clip-path-18);}.cls-19{clip-path:url(#clip-path-19);}.cls-20{clip-path:url(#clip-path-20);}.cls-21{clip-path:url(#clip-path-21);}.cls-22{clip-path:url(#clip-path-22);}.cls-23{clip-path:url(#clip-path-23);}.cls-24{fill:#0dae9a;opacity:0.56;}.cls-25{clip-path:url(#clip-path-24);}.cls-26{clip-path:url(#clip-path-25);}.cls-27{clip-path:url(#clip-path-26);}.cls-28{font-size:24px;fill:#5e5e5e;font-family:MuseoSansRounded-500, Museo Sans Rounded;}.cls-29{letter-spacing:-0.01em;}.cls-30{letter-spacing:0em;}.cls-31{letter-spacing:0em;}.cls-32{clip-path:url(#clip-path-27);}.cls-33{clip-path:url(#clip-path-28);}.cls-34{clip-path:url(#clip-path-29);}.cls-35{fill:#e5c721;opacity:0.5;}.cls-36{clip-path:url(#clip-path-31);}.cls-37{clip-path:url(#clip-path-33);}</style><clipPath id="clip-path"><rect class="cls-1" x="732.08" y="353.9" width="143.71" height="6" transform="translate(-74.89 319.98) rotate(-21.53)"/></clipPath><clipPath id="clip-path-2"><rect class="cls-1" x="530.28" y="-4.93" width="1920" height="1080"/></clipPath><clipPath id="clip-path-3"><rect class="cls-1" x="891.95" y="554.64" width="145.17" height="6" transform="translate(-129.98 765.77) rotate(-40.8)"/></clipPath><clipPath id="clip-path-5"><rect class="cls-1" x="957.96" y="324.16" width="6" height="181.84" transform="translate(-25.34 765.73) rotate(-42.93)"/></clipPath><clipPath id="clip-path-7"><rect class="cls-1" x="681.86" y="329.92" width="196.51" height="74.05" transform="translate(-81.05 326.58) rotate(-22.51)"/></clipPath><clipPath id="clip-path-9"><rect class="cls-1" x="913.53" y="286.25" width="79.87" height="246.52" transform="translate(-26.12 751.87) rotate(-42.51)"/></clipPath><clipPath id="clip-path-11"><rect class="cls-1" x="862.7" y="520.04" width="196.51" height="75.19" transform="translate(-131.89 757.84) rotate(-40.51)"/></clipPath><clipPath id="clip-path-13"><rect class="cls-1" x="864.55" y="593.16" width="75.19" height="192.81" transform="translate(-17.83 23.97) rotate(-1.51)"/></clipPath><clipPath id="clip-path-15"><rect class="cls-1" x="984.73" y="448.95" width="86.84" height="86.84"/></clipPath><clipPath id="clip-path-16"><rect class="cls-1" x="987.73" y="451.95" width="80.84" height="80.84"/></clipPath><clipPath id="clip-path-17"><rect class="cls-1" x="831.72" y="283.3" width="86.84" height="86.84"/></clipPath><clipPath id="clip-path-18"><rect class="cls-1" x="834.72" y="286.3" width="80.84" height="80.84"/></clipPath><clipPath id="clip-path-19"><rect class="cls-1" x="858.73" y="571.87" width="86.84" height="86.84"/></clipPath><clipPath id="clip-path-20"><rect class="cls-1" x="861.73" y="574.87" width="80.84" height="80.84"/></clipPath><clipPath id="clip-path-21"><rect class="cls-1" x="1020.16" y="484.38" width="15.99" height="15.99"/></clipPath><clipPath id="clip-path-22"><rect class="cls-1" x="894.15" y="607.3" width="15.99" height="15.99"/></clipPath><clipPath id="clip-path-23"><rect class="cls-1" x="837.33" y="288.91" width="75.6" height="75.6"/></clipPath><clipPath id="clip-path-24"><rect class="cls-1" x="990.35" y="454.57" width="75.6" height="75.6"/></clipPath><clipPath id="clip-path-25"><rect class="cls-1" x="864.35" y="577.49" width="75.6" height="75.6"/></clipPath><clipPath id="clip-path-26"><rect class="cls-1" x="959.47" y="593.64" width="87.74" height="43.3"/></clipPath><clipPath id="clip-path-27"><rect class="cls-1" x="1080.55" y="470.72" width="89.9" height="43.3"/></clipPath><clipPath id="clip-path-28"><rect class="cls-1" x="940.34" y="305.07" width="89.82" height="43.3"/></clipPath><clipPath id="clip-path-29"><rect class="cls-1" x="682.99" y="349.44" width="74.41" height="82.79" transform="translate(-96.7 326.72) rotate(-24)"/></clipPath><clipPath id="clip-path-31"><rect class="cls-1" x="701.7" y="369.33" width="39" height="41" transform="translate(-93.52 298.55) rotate(-22)"/></clipPath><clipPath id="clip-path-33"><rect class="cls-1" x="867.14" y="318.72" width="15.99" height="15.99"/></clipPath></defs><g class="cls-2"><g class="cls-3"><line class="cls-4" x1="738.03" y1="382.91" x2="869.84" y2="330.9"/></g></g><g class="cls-5"><g class="cls-3"><line class="cls-6" x1="910.34" y1="604.41" x2="1018.72" y2="510.86"/></g></g><g class="cls-7"><g class="cls-3"><line class="cls-4" x1="1022.2" y1="480.92" x2="899.71" y2="349.25"/></g></g><g class="cls-8"><g class="cls-3"><rect class="cls-9" x="684.86" y="332.92" width="190.51" height="68.05" transform="translate(-81.05 326.58) rotate(-22.51)"/></g></g><g class="cls-10"><g class="cls-3"><rect class="cls-9" x="916.53" y="289.25" width="73.87" height="240.52" transform="translate(-26.12 751.87) rotate(-42.51)"/></g></g><g class="cls-11"><g class="cls-3"><rect class="cls-9" x="865.7" y="523.04" width="190.51" height="69.19" transform="translate(-131.89 757.84) rotate(-40.51)"/></g></g><g class="cls-12"><g class="cls-3"><rect class="cls-13" x="867.55" y="596.16" width="69.19" height="186.81" transform="translate(-17.83 23.97) rotate(-1.51)"/><rect class="cls-9" x="867.55" y="596.16" width="69.19" height="186.81" transform="translate(-17.83 23.97) rotate(-1.51)"/></g></g><g class="cls-14"><circle class="cls-13" cx="1028.15" cy="492.37" r="40.42"/><circle class="cls-4" cx="1028.15" cy="492.37" r="40.42"/></g><g class="cls-15"><text class="cls-16" transform="translate(1008.1 504.31)">Ç</text><polygon class="cls-13" points="1041.83 511.16 1038.6 511.16 1033.7 500.95 1032.1 501.68 1030.82 498.96 1035.4 496.88 1039.66 505.88 1045.1 479.16 1048.58 479.16 1041.83 511.16"/></g><g class="cls-17"><circle class="cls-13" cx="875.14" cy="326.72" r="40.42"/><circle class="cls-4" cx="875.14" cy="326.72" r="40.42"/></g><g class="cls-18"><text class="cls-16" transform="translate(855.09 338.65)">Ç</text><polygon class="cls-13" points="888.82 345.5 885.59 345.5 880.69 335.29 879.09 336.03 877.81 333.31 882.39 331.23 886.64 340.22 892.08 313.5 895.57 313.5 888.82 345.5"/></g><g class="cls-19"><circle class="cls-13" cx="902.15" cy="615.29" r="40.42"/><circle class="cls-4" cx="902.15" cy="615.29" r="40.42"/></g><g class="cls-20"><text class="cls-16" transform="translate(882.1 627.22)">Ç</text><polygon class="cls-13" points="915.83 634.07 912.6 634.07 907.7 623.86 906.1 624.6 904.82 621.88 909.4 619.8 913.65 628.79 919.09 602.07 922.58 602.07 915.83 634.07"/></g><g class="cls-21"><circle cx="1028.15" cy="492.37" r="6.99"/></g><g class="cls-22"><path d="M907.09,610.34a7,7,0,1,1-9.89,0A7,7,0,0,1,907.09,610.34Z"/></g><g class="cls-23"><circle class="cls-24" cx="875.14" cy="326.72" r="36.8"/></g><g class="cls-25"><circle class="cls-24" cx="1028.15" cy="492.37" r="36.8"/></g><g class="cls-26"><circle class="cls-24" cx="902.15" cy="615.29" r="36.8"/></g><g class="cls-27"><text class="cls-28" transform="translate(967.12 624.08)"><tspan class="cls-29">J</tspan><tspan class="cls-30" x="12.38" y="0">oi</tspan><tspan class="cls-31" x="32.93" y="0">n</tspan><tspan x="47.02" y="0">t 1</tspan></text></g><g class="cls-32"><text class="cls-28" transform="translate(1088.21 501.16)"><tspan class="cls-29">J</tspan><tspan class="cls-30" x="12.38" y="0">oi</tspan><tspan class="cls-31" x="32.93" y="0">n</tspan><tspan x="47.02" y="0">t 2</tspan></text></g><g class="cls-33"><text class="cls-28" transform="translate(947.99 335.51)"><tspan class="cls-29">J</tspan><tspan class="cls-30" x="12.38" y="0">oi</tspan><tspan class="cls-31" x="32.93" y="0">n</tspan><tspan x="47.02" y="0">t 3</tspan></text></g><g class="cls-34"><g class="cls-3"><rect class="cls-35" x="683.99" y="350.44" width="72.41" height="80.79" transform="translate(-96.7 326.72) rotate(-24)"/></g></g><g class="cls-36"><g class="cls-3"><polyline class="cls-4" points="697.49 380.54 729.94 367.42 743.05 399.88 710.6 412.99"/></g></g><g class="cls-37"><path d="M880.08,321.77a7,7,0,1,1-9.89,0A7,7,0,0,1,880.08,321.77Z"/></g></svg>