<svg id="Layer_1" data-name="Layer 1" xmlns="http://www.w3.org/2000/svg" xmlns:xlink="http://www.w3.org/1999/xlink" viewBox="0 0 1485.23 1012.1"><defs><style>.cls-1,.cls-5,.cls-6,.cls-8{fill:none;}.cls-2{clip-path:url(#clip-path);}.cls-3{fill:#fff;}.cls-4{clip-path:url(#clip-path-2);}.cls-5,.cls-6,.cls-8{stroke:#000;}.cls-5,.cls-8{stroke-linecap:square;}.cls-5,.cls-6{stroke-width:3.65px;}.cls-7{font-size:21.87px;font-family:font0000000027ee05d7;}.cls-8{stroke-width:5.47px;}.cls-9{clip-path:url(#clip-path-3);}.cls-10{font-size:24px;fill:#0dae9a;font-family:MuseoSansRounded-500, Museo Sans Rounded;font-weight:500;}.cls-11{clip-path:url(#clip-path-4);}.cls-12{clip-path:url(#clip-path-5);}.cls-13{letter-spacing:0em;}.cls-14{letter-spacing:-0.01em;}.cls-15{letter-spacing:-0.01em;}.cls-16{clip-path:url(#clip-path-6);}.cls-17{clip-path:url(#clip-path-7);}.cls-18{letter-spacing:-0.01em;}.cls-19{letter-spacing:0em;}.cls-20{letter-spacing:0em;}.cls-21{clip-path:url(#clip-path-8);}.cls-22{clip-path:url(#clip-path-9);}.cls-23{letter-spacing:-0.01em;}.cls-24{letter-spacing:0em;}.cls-25{clip-path:url(#clip-path-10);}.cls-26{letter-spacing:-0.09em;}.cls-27{letter-spacing:0em;}.cls-28{clip-path:url(#clip-path-11);}</style><clipPath id="clip-path"><rect class="cls-1" x="-207.56" y="-37.95" width="1920" height="1080"/></clipPath><clipPath id="clip-path-2"><rect class="cls-1" x="157.49" y="64.65" width="1057.06" height="874.81"/></clipPath><clipPath id="clip-path-3"><rect class="cls-1" x="124.48" y="340.68" width="88.98" height="43.36"/></clipPath><clipPath id="clip-path-4"><rect class="cls-1" x="374.9" y="340.68" width="91.5" height="43.36"/></clipPath><clipPath id="clip-path-5"><rect class="cls-1" x="727.74" y="286.53" width="138.97" height="77.07"/></clipPath><clipPath id="clip-path-6"><rect class="cls-1" x="972.5" y="286.53" width="138.97" height="77.07"/></clipPath><clipPath id="clip-path-7"><rect class="cls-1" x="539.97" y="668.14" width="129.36" height="43.36"/></clipPath><clipPath id="clip-path-8"><rect class="cls-1" x="285.48" y="884.22" width="129.36" height="43.36"/></clipPath><clipPath id="clip-path-9"><rect class="cls-1" x="661.51" y="69.76" width="106.8" height="43.36"/></clipPath><clipPath id="clip-path-10"><rect class="cls-1" x="928.76" y="514.23" width="205.26" height="43.36"/></clipPath><clipPath id="clip-path-11"><rect class="cls-1" x="1177.15" y="737.15" width="205.26" height="43.36"/></clipPath></defs><g class="cls-2"><rect class="cls-3" x="-207.56" y="-37.95" width="1920" height="1080"/></g><g class="cls-4"><line class="cls-5" x1="667.8" y1="538.5" x2="667.8" y2="593.18"/><line class="cls-5" x1="667.8" y1="666.08" x2="667.8" y2="720.76"/><rect class="cls-6" x="653.22" y="593.18" width="29.16" height="72.9"/><line class="cls-5" x1="904.72" y1="574.95" x2="904.72" y2="720.76"/><line class="cls-5" x1="285.07" y1="884.78" x2="1141.65" y2="884.78"/><line class="cls-5" x1="1141.65" y1="811.88" x2="1141.65" y2="884.78"/><line class="cls-5" x1="285.07" y1="556.73" x2="285.07" y2="757.21"/><line class="cls-5" x1="540.22" y1="720.76" x2="904.72" y2="720.76"/><line class="cls-5" x1="1141.65" y1="174" x2="1141.65" y2="305.22"/><line class="cls-5" x1="1141.65" y1="352.61" x2="1141.65" y2="483.83"/><circle class="cls-6" cx="1141.65" cy="328.92" r="21.87" transform="translate(634.11 1403.14) rotate(-80.78)"/><text class="cls-7" transform="translate(1132.54 334.58)">!</text><line class="cls-5" x1="649.57" y1="174" x2="722.47" y2="174"/><line class="cls-5" x1="285.07" y1="174" x2="285.07" y2="246.9"/><line class="cls-5" x1="904.72" y1="174" x2="904.72" y2="305.22"/><line class="cls-5" x1="904.72" y1="352.61" x2="904.72" y2="483.83"/><circle class="cls-6" cx="904.72" cy="328.92" r="21.87" transform="translate(376.75 1133.87) rotate(-76.72)"/><text class="cls-7" transform="translate(895.62 334.58)">!</text><line class="cls-5" x1="540.22" y1="538.5" x2="831.82" y2="538.5"/><line class="cls-5" x1="1141.65" y1="647.86" x2="1141.65" y2="733.51"/><line class="cls-5" x1="1141.65" y1="780.9" x2="1141.65" y2="866.56"/><line class="cls-5" x1="1068.75" y1="757.21" x2="1116.14" y2="757.21"/><line class="cls-8" x1="1115.22" y1="742.63" x2="1115.22" y2="771.79"/><line x1="1141.65" y1="733.51" x2="1115.22" y2="749.92"/><line class="cls-5" x1="1141.65" y1="733.51" x2="1115.22" y2="749.92"/><line x1="1115.22" y1="764.5" x2="1141.65" y2="780.9"/><line class="cls-5" x1="1115.22" y1="764.5" x2="1141.65" y2="780.9"/><circle class="cls-6" cx="1123.43" cy="757.21" r="29.16"/><polyline points="1127.07 769.96 1134.36 766.32 1136.18 779.08 1125.25 771.79 1128.89 769.96"/><polyline class="cls-5" points="1127.07 769.96 1134.36 766.32 1136.18 779.08 1125.25 771.79 1128.89 769.96"/><line class="cls-5" x1="540.22" y1="538.5" x2="540.22" y2="593.18"/><line class="cls-5" x1="540.22" y1="666.08" x2="540.22" y2="720.76"/><rect class="cls-6" x="525.64" y="593.18" width="29.16" height="72.9"/><line class="cls-5" x1="1141.65" y1="174" x2="729.76" y2="174"/><line class="cls-5" x1="729.76" y1="155.78" x2="729.76" y2="192.23"/><line class="cls-5" x1="718.83" y1="164.89" x2="718.83" y2="183.11"/><line class="cls-5" x1="707.89" y1="155.78" x2="707.89" y2="192.23"/><line class="cls-5" x1="696.96" y1="164.89" x2="696.96" y2="183.11"/><line class="cls-5" x1="696.96" y1="174" x2="285.07" y2="174"/><line class="cls-5" x1="285.07" y1="174" x2="285.07" y2="328.92"/><line class="cls-5" x1="285.07" y1="401.82" x2="285.07" y2="556.73"/><polyline class="cls-5" points="285.07 328.92 285.07 332.56 272.31 338.03 297.83 348.96 272.31 359.9 297.83 370.83 272.31 381.77 297.83 392.7 285.07 398.17 285.07 401.82"/><circle class="cls-6" cx="285.07" cy="365.37" r="47.39"/><path class="cls-5" d="M254.09,316.16l-7.29-3.65,3.64-3.64,3.65,7.29-7.29-3.65m-9.12-12.76,14.58,14.58"/><path class="cls-5" d="M243.15,327.09l-7.29-3.64,3.65-3.65,3.64,7.29-7.29-3.64m-9.11-12.76,14.58,14.58"/><line class="cls-5" x1="285.07" y1="757.21" x2="285.07" y2="784.54"/><line class="cls-5" x1="285.07" y1="857.44" x2="285.07" y2="884.78"/><rect class="cls-6" x="270.49" y="784.54" width="29.16" height="72.9"/><line class="cls-5" x1="1141.65" y1="483.83" x2="1141.65" y2="647.86"/><line class="cls-5" x1="285.07" y1="757.21" x2="1068.75" y2="757.21"/><line class="cls-5" x1="904.72" y1="483.83" x2="904.72" y2="514.81"/><line class="cls-5" x1="904.72" y1="562.2" x2="904.72" y2="574.95"/><line class="cls-5" x1="831.82" y1="538.5" x2="879.21" y2="538.5"/><line class="cls-8" x1="878.3" y1="523.92" x2="878.3" y2="553.08"/><line x1="904.72" y1="514.81" x2="878.3" y2="531.21"/><line class="cls-5" x1="904.72" y1="514.81" x2="878.3" y2="531.21"/><line x1="878.3" y1="545.79" x2="904.72" y2="562.2"/><line class="cls-5" x1="878.3" y1="545.79" x2="904.72" y2="562.2"/><circle class="cls-6" cx="886.5" cy="538.5" r="29.16"/><polyline points="890.14 551.26 897.43 547.62 899.26 560.37 888.32 553.08 891.97 551.26"/><polyline class="cls-5" points="890.14 551.26 897.43 547.62 899.26 560.37 888.32 553.08 891.97 551.26"/><line class="cls-5" x1="412.65" y1="757.21" x2="412.65" y2="784.54"/><line class="cls-5" x1="412.65" y1="857.44" x2="412.65" y2="884.78"/><rect class="cls-6" x="398.06" y="784.54" width="29.16" height="72.9"/><line class="cls-5" x1="540.22" y1="174" x2="540.22" y2="328.92"/><line class="cls-5" x1="540.22" y1="401.82" x2="540.22" y2="556.73"/><polyline class="cls-5" points="540.22 328.92 540.22 332.56 527.46 338.03 552.98 348.96 527.46 359.9 552.98 370.83 527.46 381.77 552.98 392.7 540.22 398.17 540.22 401.82"/><circle class="cls-6" cx="540.22" cy="365.37" r="47.39"/><path class="cls-5" d="M509.24,316.16,502,312.51l3.64-3.64,3.65,7.29L502,312.51m-9.11-12.76,14.58,14.58"/><path class="cls-5" d="M498.3,327.09,491,323.45l3.65-3.65,3.64,7.29L491,323.45m-9.11-12.76,14.58,14.58"/><path d="M671.44,538.5a3.65,3.65,0,1,1-3.64-3.64A3.64,3.64,0,0,1,671.44,538.5Z"/><path class="cls-6" d="M671.44,538.5a3.65,3.65,0,1,1-3.64-3.64A3.64,3.64,0,0,1,671.44,538.5Z"/><path d="M671.44,720.76a3.65,3.65,0,1,1-3.64-3.65A3.64,3.64,0,0,1,671.44,720.76Z"/><path class="cls-6" d="M671.44,720.76a3.65,3.65,0,1,1-3.64-3.65A3.64,3.64,0,0,1,671.44,720.76Z"/><path d="M416.29,884.78a3.65,3.65,0,1,1-3.64-3.64A3.65,3.65,0,0,1,416.29,884.78Z"/><path class="cls-6" d="M416.29,884.78a3.65,3.65,0,1,1-3.64-3.64A3.65,3.65,0,0,1,416.29,884.78Z"/><circle cx="285.07" cy="757.21" r="3.65"/><circle class="cls-6" cx="285.07" cy="757.21" r="3.65"/><circle cx="285.07" cy="174" r="3.65"/><circle class="cls-6" cx="285.07" cy="174" r="3.65"/><circle cx="904.72" cy="174" r="3.65"/><circle class="cls-6" cx="904.72" cy="174" r="3.65"/><path d="M543.87,538.5a3.65,3.65,0,1,1-3.65-3.64A3.65,3.65,0,0,1,543.87,538.5Z"/><path class="cls-6" d="M543.87,538.5a3.65,3.65,0,1,1-3.65-3.64A3.65,3.65,0,0,1,543.87,538.5Z"/><path d="M543.87,174a3.65,3.65,0,1,1-3.65-3.64A3.66,3.66,0,0,1,543.87,174Z"/><path class="cls-6" d="M543.87,174a3.65,3.65,0,1,1-3.65-3.64A3.66,3.66,0,0,1,543.87,174Z"/><path d="M416.29,757.21a3.65,3.65,0,1,1-3.64-3.65A3.64,3.64,0,0,1,416.29,757.21Z"/><path class="cls-6" d="M416.29,757.21a3.65,3.65,0,1,1-3.64-3.65A3.64,3.64,0,0,1,416.29,757.21Z"/></g><g class="cls-9"><text class="cls-10" transform="translate(138.07 371.12)">LDR 1</text></g><g class="cls-11"><text class="cls-10" transform="translate(388.67 371.12)">LDR 2</text></g><g class="cls-12"><text class="cls-10" transform="translate(753.92 319.82)">Vib<tspan class="cls-13" x="34.85" y="0">r</tspan><tspan class="cls-14" x="43.3" y="0">a</tspan><tspan x="55.56" y="0">tion</tspan></text><text class="cls-10" transform="translate(852.39 319.82)"> </text><text class="cls-10" transform="translate(760.61 348.82)"> <tspan class="cls-15" x="6" y="0">M</tspan><tspan class="cls-13" x="26.16" y="0">o</tspan><tspan class="cls-15" x="40.92" y="0">t</tspan><tspan x="49.01" y="0">or 2</tspan></text></g><g class="cls-16"><text class="cls-10" transform="translate(998.67 319.82)">Vib<tspan class="cls-13" x="34.85" y="0">r</tspan><tspan class="cls-14" x="43.3" y="0">a</tspan><tspan x="55.56" y="0">tion</tspan></text><text class="cls-10" transform="translate(1097.15 319.82)"> </text><text class="cls-10" transform="translate(1007.53 348.82)"> <tspan class="cls-15" x="6" y="0">M</tspan><tspan class="cls-13" x="26.16" y="0">o</tspan><tspan class="cls-15" x="40.92" y="0">t</tspan><tspan x="49.01" y="0">or 1</tspan></text></g><g class="cls-17"><text class="cls-10" transform="translate(556.46 698.58)"><tspan class="cls-18">R</tspan><tspan x="14.62" y="0">esis</tspan><tspan class="cls-13" x="54.46" y="0">t</tspan><tspan x="62.57" y="0">o</tspan><tspan class="cls-19" x="77.42" y="0">r</tspan><tspan class="cls-20" x="85.92" y="0">s</tspan></text></g><g class="cls-21"><text class="cls-10" transform="translate(301.97 914.66)"><tspan class="cls-18">R</tspan><tspan x="14.62" y="0">esis</tspan><tspan class="cls-13" x="54.46" y="0">t</tspan><tspan x="62.57" y="0">o</tspan><tspan class="cls-19" x="77.42" y="0">r</tspan><tspan class="cls-20" x="85.92" y="0">s</tspan></text></g><g class="cls-22"><text class="cls-10" transform="translate(676.38 100.2)">B<tspan class="cls-23" x="14.81" y="0">a</tspan><tspan x="27.07" y="0">t</tspan><tspan class="cls-24" x="35.28" y="0">t</tspan><tspan x="43.42" y="0">ery</tspan></text></g><g class="cls-25"><text class="cls-10" transform="translate(950.7 544.67)">NPN <tspan class="cls-26" x="56.02" y="0">T</tspan><tspan class="cls-27" x="68.13" y="0">r</tspan><tspan x="76.58" y="0">ansis</tspan><tspan class="cls-15" x="129.93" y="0">t</tspan><tspan x="138.02" y="0">or</tspan></text></g><g class="cls-28"><text class="cls-10" transform="translate(1199.09 767.59)">NPN <tspan class="cls-26" x="56.02" y="0">T</tspan><tspan class="cls-27" x="68.13" y="0">r</tspan><tspan x="76.58" y="0">ansis</tspan><tspan class="cls-15" x="129.93" y="0">t</tspan><tspan x="138.02" y="0">or</tspan></text></g></svg>