<svg id="Layer_1" data-name="Layer 1" xmlns="http://www.w3.org/2000/svg" xmlns:xlink="http://www.w3.org/1999/xlink" viewBox="0 0 1920 316.23"><defs><style>.cls-1{fill:none;}.cls-2{clip-path:url(#clip-path);}.cls-3{fill:#464775;}.cls-4{fill:#e5c721;}.cls-5{clip-path:url(#clip-path-2);}.cls-6{fill:#0dae9a;}.cls-7{clip-path:url(#clip-path-3);}.cls-8{clip-path:url(#clip-path-4);}</style><clipPath id="clip-path"><rect class="cls-1" y="-698.11" width="1920" height="1080"/></clipPath><clipPath id="clip-path-2"><rect class="cls-1" x="559.44" y="119.61" width="142.04" height="71.84"/></clipPath><clipPath id="clip-path-3"><rect class="cls-1" x="856.93" y="119.61" width="199.4" height="71.84"/></clipPath><clipPath id="clip-path-4"><rect class="cls-1" x="1205.95" y="119.61" width="186.24" height="71.84"/></clipPath></defs><g class="cls-2"><path class="cls-3" d="M566.54,82.71a1.61,1.61,0,0,1-.5-.8,1.36,1.36,0,0,1,.34-1l.68-1a1.2,1.2,0,0,1,1.8-.24q.36.27,1,.66a12.46,12.46,0,0,0,1.38.74,11.75,11.75,0,0,0,1.74.62A8.12,8.12,0,0,0,575,82a5.55,5.55,0,0,0,3.62-1.1A3.61,3.61,0,0,0,580,77.91a3.44,3.44,0,0,0-1-2.56,9.65,9.65,0,0,0-2.52-1.78c-1-.52-2.1-1-3.28-1.52a22.61,22.61,0,0,1-3.28-1.72,9.09,9.09,0,0,1-2.52-2.42,6.3,6.3,0,0,1-1-3.64,7.15,7.15,0,0,1,2.64-5.7A9,9,0,0,1,571.94,57a11.13,11.13,0,0,1,3.6-.56,11.9,11.9,0,0,1,2.36.22,13.12,13.12,0,0,1,2,.54,8.91,8.91,0,0,1,1.6.7,6.54,6.54,0,0,1,1.08.7,1.27,1.27,0,0,1,.4,1.8l-.56,1c-.24.42-.51.64-.82.66a1.81,1.81,0,0,1-1-.3,18.32,18.32,0,0,0-2.1-1.06,7.49,7.49,0,0,0-3.1-.58,6,6,0,0,0-3.64,1.06,3.39,3.39,0,0,0-1.44,2.9,3.31,3.31,0,0,0,1,2.48,10.09,10.09,0,0,0,2.52,1.7c1,.49,2.11,1,3.28,1.44a17.24,17.24,0,0,1,3.28,1.7A8.69,8.69,0,0,1,583,73.85a6.45,6.45,0,0,1,1,3.74,8.2,8.2,0,0,1-.6,3.14,7.09,7.09,0,0,1-1.76,2.54A8.64,8.64,0,0,1,578.8,85a10.54,10.54,0,0,1-3.78.64,13.13,13.13,0,0,1-2.86-.3,14.66,14.66,0,0,1-2.42-.76,16,16,0,0,1-1.9-1A13.87,13.87,0,0,1,566.54,82.71Z"/><path class="cls-3" d="M587.22,75a11.67,11.67,0,0,1,.78-4.36,10.1,10.1,0,0,1,2.12-3.34,9.19,9.19,0,0,1,3.2-2.14,10.46,10.46,0,0,1,4-.76,9.14,9.14,0,0,1,3.72.72,7.48,7.48,0,0,1,2.74,2,8.88,8.88,0,0,1,1.68,3,12.2,12.2,0,0,1,.58,3.88,1.37,1.37,0,0,1-.38,1,1.31,1.31,0,0,1-1,.4H591.18a7.69,7.69,0,0,0,.68,2.92,6.89,6.89,0,0,0,1.56,2.16,6.67,6.67,0,0,0,2.18,1.32,7.6,7.6,0,0,0,2.58.44,7.28,7.28,0,0,0,2.92-.54A9.55,9.55,0,0,0,603,80.67a1.17,1.17,0,0,1,1.8.44l.36.6a1.16,1.16,0,0,1-.4,1.76c-.29.21-.67.44-1.12.7a12.38,12.38,0,0,1-1.54.7,13.85,13.85,0,0,1-1.92.54,11.63,11.63,0,0,1-2.26.22,11.33,11.33,0,0,1-4.36-.82,10.56,10.56,0,0,1-3.38-2.24,10,10,0,0,1-2.2-3.36A11.14,11.14,0,0,1,587.22,75Zm15-2.16a5.54,5.54,0,0,0-1.5-4,4.76,4.76,0,0,0-3.42-1.36,5.65,5.65,0,0,0-3.86,1.42,6.52,6.52,0,0,0-2.06,4Z"/><path class="cls-3" d="M610.3,66.23a1.17,1.17,0,0,1,1.32-1.32h1.12a1.17,1.17,0,0,1,1.32,1.32V68a4.43,4.43,0,0,1-.08.8,1.28,1.28,0,0,0,0,.36H614a8.25,8.25,0,0,1,.9-1.48,7.55,7.55,0,0,1,1.58-1.56,9.37,9.37,0,0,1,2.24-1.22,8,8,0,0,1,3-.5c2.4,0,4.15.64,5.26,1.94s1.66,3.23,1.66,5.82V83.83a1.17,1.17,0,0,1-1.32,1.32h-1.24a1.17,1.17,0,0,1-1.32-1.32V73.07a13.75,13.75,0,0,0-.14-2,4.26,4.26,0,0,0-.54-1.6,2.76,2.76,0,0,0-1.16-1.08,4.17,4.17,0,0,0-2-.4,6.29,6.29,0,0,0-2.72.58,6.45,6.45,0,0,0-2.14,1.58,7,7,0,0,0-1.4,2.38,8.64,8.64,0,0,0-.5,2.94v8.36a1.17,1.17,0,0,1-1.32,1.32h-1.24a1.17,1.17,0,0,1-1.32-1.32Z"/><path class="cls-3" d="M633.14,83.43a1,1,0,0,1-.56-.8,1.63,1.63,0,0,1,.28-1l.4-.56a1.21,1.21,0,0,1,.82-.56,1.79,1.79,0,0,1,1,.28,18.54,18.54,0,0,0,1.92,1,7,7,0,0,0,3,.6,4.16,4.16,0,0,0,2.48-.7,2.31,2.31,0,0,0,1-2,1.91,1.91,0,0,0-.78-1.6,9,9,0,0,0-1.94-1.1c-.77-.34-1.61-.66-2.5-1a12,12,0,0,1-2.5-1.2,7.18,7.18,0,0,1-1.94-1.82,4.68,4.68,0,0,1-.78-2.8,5.32,5.32,0,0,1,.58-2.54,5.14,5.14,0,0,1,1.58-1.82,7.44,7.44,0,0,1,2.34-1.1,10,10,0,0,1,2.82-.38,9.26,9.26,0,0,1,3.5.56,14.07,14.07,0,0,1,2.1,1,1.11,1.11,0,0,1,.66.74,1.45,1.45,0,0,1-.22,1l-.36.6a1.2,1.2,0,0,1-1.76.44,12.83,12.83,0,0,0-1.66-.76,6.67,6.67,0,0,0-2.46-.4,4.3,4.3,0,0,0-2.42.64,2.13,2.13,0,0,0-1,1.92,2,2,0,0,0,.78,1.62,8.23,8.23,0,0,0,1.94,1.1c.77.32,1.61.64,2.5,1a13.67,13.67,0,0,1,2.5,1.18,6.29,6.29,0,0,1,1.94,1.8,4.75,4.75,0,0,1,.78,2.82,5.48,5.48,0,0,1-.52,2.38,5.66,5.66,0,0,1-1.48,1.9,7.14,7.14,0,0,1-2.3,1.24,9.61,9.61,0,0,1-3,.44,12.08,12.08,0,0,1-2.34-.22,11.93,11.93,0,0,1-1.9-.56,13.18,13.18,0,0,1-1.5-.72A10.26,10.26,0,0,1,633.14,83.43Z"/><path class="cls-3" d="M650.22,75a11.67,11.67,0,0,1,.78-4.36,10.1,10.1,0,0,1,2.12-3.34,9.19,9.19,0,0,1,3.2-2.14,10.46,10.46,0,0,1,4-.76,9.14,9.14,0,0,1,3.72.72,7.48,7.48,0,0,1,2.74,2,8.88,8.88,0,0,1,1.68,3,12.2,12.2,0,0,1,.58,3.88,1.37,1.37,0,0,1-.38,1,1.31,1.31,0,0,1-1,.4H654.18a7.69,7.69,0,0,0,.68,2.92,6.89,6.89,0,0,0,1.56,2.16,6.67,6.67,0,0,0,2.18,1.32,7.6,7.6,0,0,0,2.58.44,7.28,7.28,0,0,0,2.92-.54A9.55,9.55,0,0,0,666,80.67a1.17,1.17,0,0,1,1.8.44l.36.6a1.31,1.31,0,0,1,.22,1,1.27,1.27,0,0,1-.62.78c-.29.21-.67.44-1.12.7a12.38,12.38,0,0,1-1.54.7,13.85,13.85,0,0,1-1.92.54,11.63,11.63,0,0,1-2.26.22,11.33,11.33,0,0,1-4.36-.82,10.56,10.56,0,0,1-3.38-2.24,10,10,0,0,1-2.2-3.36A11.14,11.14,0,0,1,650.22,75Zm15-2.16a5.54,5.54,0,0,0-1.5-4,4.76,4.76,0,0,0-3.42-1.36,5.65,5.65,0,0,0-3.86,1.42,6.52,6.52,0,0,0-2.06,4Z"/><rect class="cls-4" x="1053.64" y="68.67" width="127.78" height="4"/><polygon class="cls-4" points="1179.42 79.07 1196.22 70.67 1179.42 62.27 1179.42 79.07"/><rect class="cls-4" x="703.72" y="68.67" width="132.76" height="4"/><polygon class="cls-4" points="834.48 79.07 851.28 70.67 834.48 62.27 834.48 79.07"/><path class="cls-3" d="M886.35,70.87a15.12,15.12,0,0,1,1.06-5.72,13.64,13.64,0,0,1,3-4.58,13.37,13.37,0,0,1,4.54-3,14.8,14.8,0,0,1,5.8-1.1,15.4,15.4,0,0,1,3.3.32,17.34,17.34,0,0,1,2.66.76,13.17,13.17,0,0,1,2,.94,12.83,12.83,0,0,1,1.38.9,1.26,1.26,0,0,1,.24,1.84l-.52.8a1.19,1.19,0,0,1-1.84.32c-.3-.19-.67-.42-1.12-.68a9.69,9.69,0,0,0-1.58-.74,14,14,0,0,0-2-.58,11.23,11.23,0,0,0-2.38-.24,10.86,10.86,0,0,0-4.4.84,9.66,9.66,0,0,0-5.34,5.72,12.26,12.26,0,0,0-.7,4.2,12.78,12.78,0,0,0,.72,4.28,10.54,10.54,0,0,0,2.08,3.56,10,10,0,0,0,3.3,2.42,10.27,10.27,0,0,0,4.38.9,10.72,10.72,0,0,0,2.6-.3,14.66,14.66,0,0,0,2.18-.72,10.73,10.73,0,0,0,1.7-.9q.72-.48,1.2-.84a1.15,1.15,0,0,1,1.84.16l.6.8a1.21,1.21,0,0,1-.2,1.84c-.38.29-.86.64-1.46,1.06a14.26,14.26,0,0,1-2.16,1.18,18,18,0,0,1-2.88,1,15.1,15.1,0,0,1-3.54.4,14.91,14.91,0,0,1-5.94-1.14,13.51,13.51,0,0,1-4.56-3.14,14,14,0,0,1-2.92-4.68A16.18,16.18,0,0,1,886.35,70.87Z"/><path class="cls-3" d="M914,75a10.18,10.18,0,0,1,.86-4.22,10.35,10.35,0,0,1,2.32-3.36,10.19,10.19,0,0,1,3.44-2.2,12,12,0,0,1,8.52,0,10.41,10.41,0,0,1,5.8,5.56,10.34,10.34,0,0,1,.86,4.22,10.49,10.49,0,0,1-.86,4.26,10.79,10.79,0,0,1-2.34,3.36,11,11,0,0,1-3.46,2.22,11.74,11.74,0,0,1-8.52,0,10.72,10.72,0,0,1-3.44-2.22,10.57,10.57,0,0,1-2.32-3.36A10.33,10.33,0,0,1,914,75Zm3.92,0a7.48,7.48,0,0,0,.56,2.94,7.16,7.16,0,0,0,1.5,2.3,6.94,6.94,0,0,0,7.6,1.5,7,7,0,0,0,2.22-1.5,6.84,6.84,0,0,0,1.5-2.3,7.84,7.84,0,0,0,.54-2.94,7.53,7.53,0,0,0-.54-2.88,6.85,6.85,0,0,0-1.5-2.28,7,7,0,0,0-2.22-1.5,6.88,6.88,0,0,0-7.6,1.5A7.31,7.31,0,0,0,917.91,75Z"/><path class="cls-3" d="M940.07,66.23a1.17,1.17,0,0,1,1.32-1.32h1.12a1.17,1.17,0,0,1,1.32,1.32V68a4.43,4.43,0,0,1-.08.8,1.28,1.28,0,0,0,0,.36h.08a7.22,7.22,0,0,1,.9-1.48,7.55,7.55,0,0,1,1.58-1.56,9.19,9.19,0,0,1,2.24-1.22,8,8,0,0,1,3-.5c2.4,0,4.15.64,5.26,1.94s1.66,3.23,1.66,5.82V83.83a1.17,1.17,0,0,1-1.32,1.32h-1.24a1.17,1.17,0,0,1-1.32-1.32V73.07a13.75,13.75,0,0,0-.14-2,4.64,4.64,0,0,0-.54-1.6,2.82,2.82,0,0,0-1.16-1.08,4.17,4.17,0,0,0-2-.4,6.26,6.26,0,0,0-2.72.58,6.45,6.45,0,0,0-2.14,1.58,7,7,0,0,0-1.4,2.38,8.41,8.41,0,0,0-.5,2.94v8.36a1.17,1.17,0,0,1-1.32,1.32h-1.24a1.17,1.17,0,0,1-1.32-1.32Z"/><path class="cls-3" d="M964.5,68.27h-1.4c-.85,0-1.27-.44-1.27-1.32v-.52a1.16,1.16,0,0,1,1.31-1.32h1.44V60.67a1.17,1.17,0,0,1,1.33-1.32h1.15a1.16,1.16,0,0,1,1.32,1.32v4.44h3.53a1.16,1.16,0,0,1,1.31,1.32V67c0,.88-.42,1.32-1.27,1.32h-3.57v9a5.61,5.61,0,0,0,.41,2.32,3.77,3.77,0,0,0,1,1.36,3.32,3.32,0,0,0,1.24.66,6.88,6.88,0,0,0,1.22.22,1.92,1.92,0,0,1,1.11.36,1.29,1.29,0,0,1,.29,1V84c0,.88-.53,1.32-1.6,1.32a9.43,9.43,0,0,1-2.88-.44,6.78,6.78,0,0,1-2.38-1.36,7,7,0,0,1-1.64-2.32,8.23,8.23,0,0,1-.62-3.32Z"/><path class="cls-3" d="M977.22,66.23a1.17,1.17,0,0,1,1.32-1.32h1.13A1.17,1.17,0,0,1,981,66.23v2.32a5.74,5.74,0,0,1,0,.6c0,.18,0,.34-.05.48a2.32,2.32,0,0,0,0,.44H981a9.27,9.27,0,0,1,.89-2,7.9,7.9,0,0,1,1.38-1.7,6.8,6.8,0,0,1,1.78-1.2,5,5,0,0,1,2.15-.46c.85,0,1.27.44,1.27,1.32v1.12c0,.88-.47,1.32-1.43,1.32a4.45,4.45,0,0,0-2.58.74,6.19,6.19,0,0,0-1.84,1.9,8.73,8.73,0,0,0-1.11,2.66,12.7,12.7,0,0,0-.35,3v7a1.17,1.17,0,0,1-1.32,1.32h-1.25a1.17,1.17,0,0,1-1.32-1.32Z"/><path class="cls-3" d="M989.42,75a10.34,10.34,0,0,1,.86-4.22,10.67,10.67,0,0,1,2.32-3.36,10.29,10.29,0,0,1,3.44-2.2,12,12,0,0,1,8.52,0,10.38,10.38,0,0,1,3.46,2.2,10.71,10.71,0,0,1,2.34,11.84,10.47,10.47,0,0,1-2.34,3.36,10.92,10.92,0,0,1-3.46,2.22,11.74,11.74,0,0,1-8.52,0,10.46,10.46,0,0,1-5.76-5.58A10.49,10.49,0,0,1,989.42,75Zm3.92,0a7.66,7.66,0,0,0,.56,2.94,7.5,7.5,0,0,0,1.5,2.3,6.8,6.8,0,0,0,4.9,2,6.75,6.75,0,0,0,2.7-.54,7,7,0,0,0,2.22-1.5,6.84,6.84,0,0,0,1.5-2.3,7.84,7.84,0,0,0,.54-2.94,7.53,7.53,0,0,0-.54-2.88,6.85,6.85,0,0,0-1.5-2.28,7,7,0,0,0-2.22-1.5,7,7,0,0,0-5.4,0,6.82,6.82,0,0,0-2.2,1.5,7.53,7.53,0,0,0-1.5,2.28A7.36,7.36,0,0,0,993.34,75Z"/><path class="cls-3" d="M1015.5,58.23a1.17,1.17,0,0,1,1.32-1.32h1.24a1.17,1.17,0,0,1,1.32,1.32V79.15a5,5,0,0,0,.16,1.36,2.09,2.09,0,0,0,.44.8,1.64,1.64,0,0,0,.6.38,5.27,5.27,0,0,0,.64.14,1.41,1.41,0,0,1,.74.34,1,1,0,0,1,.3.82v1a1.53,1.53,0,0,1-.3,1,1.31,1.31,0,0,1-1.06.36,9.64,9.64,0,0,1-1.76-.18,4.45,4.45,0,0,1-1.76-.76,4.51,4.51,0,0,1-1.34-1.7,7.1,7.1,0,0,1-.54-3Z"/><path class="cls-3" d="M1236.8,58a1.43,1.43,0,0,1,1.48-1.08h1.92a1.43,1.43,0,0,1,1.48,1.08L1251,83.63a1,1,0,0,1-1.08,1.52h-1.36a1.43,1.43,0,0,1-1.48-1.08l-2.52-7h-10.64l-2.48,7a1.37,1.37,0,0,1-1.44,1.08h-1.36a1.16,1.16,0,0,1-1-.42,1.19,1.19,0,0,1,0-1.1Zm6.68,15.76-3.12-9c-.13-.38-.26-.78-.38-1.22s-.23-.88-.34-1.3-.23-1-.36-1.48h-.08c-.16.5-.29,1-.4,1.48s-.25.86-.36,1.3-.23.84-.36,1.22l-3.16,9Z"/><path class="cls-3" d="M1253,75a10.88,10.88,0,0,1,.8-4.18,9.85,9.85,0,0,1,2.24-3.36,10.41,10.41,0,0,1,3.42-2.24,11.18,11.18,0,0,1,4.34-.82,11,11,0,0,1,2.32.22,11.31,11.31,0,0,1,1.88.54,8,8,0,0,1,1.46.7,9.31,9.31,0,0,1,1,.7,1,1,0,0,1,.56.8,1.52,1.52,0,0,1-.32,1l-.4.6a1.18,1.18,0,0,1-1.8.32,12.75,12.75,0,0,0-1.78-1,6.35,6.35,0,0,0-2.74-.54,7.3,7.3,0,0,0-2.82.54,6.68,6.68,0,0,0-2.24,1.5,6.76,6.76,0,0,0-1.46,2.28,8.24,8.24,0,0,0,0,5.76,6.94,6.94,0,0,0,1.48,2.3,7.14,7.14,0,0,0,2.26,1.54,7.22,7.22,0,0,0,2.86.56,7.14,7.14,0,0,0,3.14-.64,12.33,12.33,0,0,0,2-1.2,1.14,1.14,0,0,1,1.8.36l.32.6a1.16,1.16,0,0,1-.36,1.76,11.13,11.13,0,0,1-1.1.78,11.26,11.26,0,0,1-1.56.8,13.28,13.28,0,0,1-2,.64,11.42,11.42,0,0,1-2.5.26,11.66,11.66,0,0,1-4.38-.8,10.33,10.33,0,0,1-3.4-2.22,10.15,10.15,0,0,1-2.22-3.36A11,11,0,0,1,1253,75Z"/><path class="cls-3" d="M1276.52,68.27h-1.4a1.15,1.15,0,0,1-1.28-1.32v-.52a1.17,1.17,0,0,1,1.32-1.32h1.44V60.67a1.17,1.17,0,0,1,1.32-1.32h1.16a1.17,1.17,0,0,1,1.32,1.32v4.44h3.52a1.17,1.17,0,0,1,1.32,1.32V67a1.15,1.15,0,0,1-1.28,1.32h-3.56v9a5.62,5.62,0,0,0,.4,2.32,3.79,3.79,0,0,0,1,1.36,3.32,3.32,0,0,0,1.24.66,6.72,6.72,0,0,0,1.22.22,1.88,1.88,0,0,1,1.1.36,1.25,1.25,0,0,1,.3,1V84c0,.88-.53,1.32-1.6,1.32a9.43,9.43,0,0,1-2.88-.44,6.61,6.61,0,0,1-2.38-1.36,6.81,6.81,0,0,1-1.64-2.32,8.23,8.23,0,0,1-.62-3.32Z"/><path class="cls-3" d="M1289,66.23a1.17,1.17,0,0,1,1.32-1.32h1.24a1.15,1.15,0,0,1,1.28,1.32V77a13.59,13.59,0,0,0,.14,2,4.22,4.22,0,0,0,.56,1.6,3.1,3.1,0,0,0,1.16,1.08,4.15,4.15,0,0,0,1.94.4,6,6,0,0,0,2.78-.64,6.82,6.82,0,0,0,2.08-1.68,7.23,7.23,0,0,0,1.3-2.42,9.61,9.61,0,0,0,.44-2.9V66.23a1.17,1.17,0,0,1,1.32-1.32h1.24a1.17,1.17,0,0,1,1.32,1.32v17.6a1.17,1.17,0,0,1-1.32,1.32h-1.12a1.17,1.17,0,0,1-1.32-1.32V81.61a1.38,1.38,0,0,1,0-.38c0-.11,0-.23.08-.36h-.08a7.12,7.12,0,0,1-1,1.6A8.23,8.23,0,0,1,1300.8,84a9.35,9.35,0,0,1-2.2,1.16,7.92,7.92,0,0,1-2.72.46,6.7,6.7,0,0,1-5.16-1.86q-1.73-1.86-1.72-5.9Z"/><path class="cls-3" d="M1311.08,79.63a5.72,5.72,0,0,1,.6-2.7,5.57,5.57,0,0,1,1.6-1.9,9,9,0,0,1,2.26-1.24,14.27,14.27,0,0,1,2.62-.72,22.93,22.93,0,0,1,2.66-.32c.87-.06,1.65-.08,2.34-.08h1v-.52a5.63,5.63,0,0,0-.34-2.1,3.38,3.38,0,0,0-2.34-2.12,6.33,6.33,0,0,0-1.72-.22,7.57,7.57,0,0,0-2.7.44,11.27,11.27,0,0,0-1.86.84,1.25,1.25,0,0,1-1.8-.48l-.32-.56a1.17,1.17,0,0,1,.44-1.8,17,17,0,0,1,2.58-1.12,11.74,11.74,0,0,1,4-.6,8.09,8.09,0,0,1,5.88,2,7.83,7.83,0,0,1,2.08,5.9V83.83a1.17,1.17,0,0,1-1.32,1.32h-1a1.17,1.17,0,0,1-1.32-1.32V82.11a1.49,1.49,0,0,1,0-.4c0-.11,0-.22.08-.32h-.08a8.28,8.28,0,0,1-1.52,2.12,8.48,8.48,0,0,1-2,1.46,6.41,6.41,0,0,1-3,.66,8.51,8.51,0,0,1-2.56-.4,6.56,6.56,0,0,1-2.18-1.18,5.83,5.83,0,0,1-1.5-1.88A5.59,5.59,0,0,1,1311.08,79.63Zm3.92-.32a3.2,3.2,0,0,0,.94,2.22,3.66,3.66,0,0,0,2.82,1,4.65,4.65,0,0,0,2.3-.58,5.7,5.7,0,0,0,1.72-1.52,7.45,7.45,0,0,0,1.46-4.34v-.88h-1c-.72,0-1.55,0-2.48.1a11.24,11.24,0,0,0-2.68.5,5.46,5.46,0,0,0-2.16,1.22A2.92,2.92,0,0,0,1315,79.31Z"/><path class="cls-3" d="M1334.12,68.27h-1.4a1.15,1.15,0,0,1-1.28-1.32v-.52a1.17,1.17,0,0,1,1.32-1.32h1.44V60.67a1.17,1.17,0,0,1,1.32-1.32h1.16a1.17,1.17,0,0,1,1.32,1.32v4.44h3.52a1.17,1.17,0,0,1,1.32,1.32V67a1.15,1.15,0,0,1-1.28,1.32H1338v9a5.62,5.62,0,0,0,.4,2.32,3.79,3.79,0,0,0,1,1.36,3.32,3.32,0,0,0,1.24.66,6.72,6.72,0,0,0,1.22.22,1.88,1.88,0,0,1,1.1.36,1.25,1.25,0,0,1,.3,1V84c0,.88-.53,1.32-1.6,1.32a9.43,9.43,0,0,1-2.88-.44,6.61,6.61,0,0,1-2.38-1.36,6.81,6.81,0,0,1-1.64-2.32,8.23,8.23,0,0,1-.62-3.32Z"/><path class="cls-3" d="M1345.44,75a11.67,11.67,0,0,1,.78-4.36,10.1,10.1,0,0,1,2.12-3.34,9.19,9.19,0,0,1,3.2-2.14,10.46,10.46,0,0,1,4-.76,9.14,9.14,0,0,1,3.72.72,7.48,7.48,0,0,1,2.74,2,8.88,8.88,0,0,1,1.68,3,12.49,12.49,0,0,1,.58,3.88,1.37,1.37,0,0,1-.38,1,1.31,1.31,0,0,1-1,.4H1349.4a7.69,7.69,0,0,0,.68,2.92,6.89,6.89,0,0,0,1.56,2.16,6.67,6.67,0,0,0,2.18,1.32,7.6,7.6,0,0,0,2.58.44,7.28,7.28,0,0,0,2.92-.54,9.55,9.55,0,0,0,1.92-1.06,1.17,1.17,0,0,1,1.8.44l.36.6a1.31,1.31,0,0,1,.22,1,1.27,1.27,0,0,1-.62.78c-.29.21-.67.44-1.12.7a12.38,12.38,0,0,1-1.54.7,14.26,14.26,0,0,1-1.92.54,11.63,11.63,0,0,1-2.26.22,11.33,11.33,0,0,1-4.36-.82,10.56,10.56,0,0,1-3.38-2.24,10,10,0,0,1-2.2-3.36A11.14,11.14,0,0,1,1345.44,75Zm15-2.16a5.54,5.54,0,0,0-1.5-4,4.76,4.76,0,0,0-3.42-1.36,5.65,5.65,0,0,0-3.86,1.42,6.52,6.52,0,0,0-2.06,4Z"/></g><g class="cls-5"><path class="cls-6" d="M575.46,143.09a1.17,1.17,0,0,1,1.32-1.32h1.28a1.17,1.17,0,0,1,1.32,1.32v25.6a1.17,1.17,0,0,1-1.32,1.32h-1.28a1.17,1.17,0,0,1-1.32-1.32Z"/><path class="cls-6" d="M586.58,143.09a1.17,1.17,0,0,1,1.32-1.32h1.52a1.78,1.78,0,0,1,1.6.88l12,17.48q.36.56.78,1.26c.28.47.53.91.74,1.34s.53,1,.8,1.48h.08q-.08-.72-.12-1.44c-.05-.43-.09-.87-.1-1.34s0-.9,0-1.3v-17a1.17,1.17,0,0,1,1.32-1.32h1.28a1.17,1.17,0,0,1,1.32,1.32v25.6a1.17,1.17,0,0,1-1.32,1.32H606.3a1.64,1.64,0,0,1-1.56-.88l-12.08-17.44a13,13,0,0,1-.8-1.28c-.27-.48-.51-.93-.72-1.36s-.53-1-.8-1.48h-.08c0,.51.07,1,.12,1.48s0,.87.08,1.34,0,.9,0,1.3v17a1.17,1.17,0,0,1-1.32,1.32H587.9a1.17,1.17,0,0,1-1.32-1.32Z"/><path class="cls-6" d="M616.34,143.09a1.17,1.17,0,0,1,1.32-1.32h9a10,10,0,0,1,3.56.62,7.8,7.8,0,0,1,2.8,1.78,8.32,8.32,0,0,1,1.82,2.8,9.67,9.67,0,0,1,.66,3.64,9.85,9.85,0,0,1-.66,3.66,8.5,8.5,0,0,1-1.82,2.84,7.89,7.89,0,0,1-2.8,1.82,9.63,9.63,0,0,1-3.56.64h-6.4v9.12a1.17,1.17,0,0,1-1.32,1.32h-1.28a1.17,1.17,0,0,1-1.32-1.32Zm9.68,13a5.37,5.37,0,0,0,4-1.48,5.52,5.52,0,0,0,1.46-4,5.31,5.31,0,0,0-1.46-4,5.45,5.45,0,0,0-4-1.42h-5.8v10.92Z"/><path class="cls-6" d="M639.82,143.09a1.17,1.17,0,0,1,1.32-1.32h1.32a1.15,1.15,0,0,1,1.28,1.32V160a6.55,6.55,0,0,0,2,5.06,8.34,8.34,0,0,0,10.4,0,6.59,6.59,0,0,0,2-5.1V143.09a1.17,1.17,0,0,1,1.32-1.32h1.32a1.17,1.17,0,0,1,1.32,1.32V160a11.1,11.1,0,0,1-.8,4.28,9.52,9.52,0,0,1-2.26,3.3,10.24,10.24,0,0,1-3.5,2.14,12.8,12.8,0,0,1-4.52.76,13,13,0,0,1-4.54-.76,10.23,10.23,0,0,1-3.52-2.14,9.52,9.52,0,0,1-2.26-3.3,11.1,11.1,0,0,1-.8-4.28Z"/><path class="cls-6" d="M675.22,145.21h-8.4a1.17,1.17,0,0,1-1.32-1.32v-.8a1.17,1.17,0,0,1,1.32-1.32h20.72a1.15,1.15,0,0,1,1.28,1.32v.8a1.15,1.15,0,0,1-1.28,1.32h-8.4v23.48a1.17,1.17,0,0,1-1.32,1.32H676.5a1.15,1.15,0,0,1-1.28-1.32Z"/></g><g class="cls-7"><path class="cls-6" d="M873,143.09a1.17,1.17,0,0,1,1.32-1.32h9a10,10,0,0,1,3.56.62,7.72,7.72,0,0,1,2.8,1.78,8.17,8.17,0,0,1,1.82,2.8,9.67,9.67,0,0,1,.66,3.64,9.85,9.85,0,0,1-.66,3.66,8.35,8.35,0,0,1-1.82,2.84,7.81,7.81,0,0,1-2.8,1.82,9.63,9.63,0,0,1-3.56.64h-6.4v9.12a1.17,1.17,0,0,1-1.32,1.32h-1.28a1.17,1.17,0,0,1-1.32-1.32Zm9.68,13a5.37,5.37,0,0,0,4-1.48,5.47,5.47,0,0,0,1.46-4,5.27,5.27,0,0,0-1.46-4,5.45,5.45,0,0,0-4-1.42h-5.8v10.92Z"/><path class="cls-6" d="M896.79,143.09a1.17,1.17,0,0,1,1.32-1.32h7.6A22.34,22.34,0,0,1,909,142a7.55,7.55,0,0,1,2,.58,7.35,7.35,0,0,1,3.24,2.8,8.38,8.38,0,0,1,1.2,4.6,8.81,8.81,0,0,1-1.34,4.84,6.83,6.83,0,0,1-3.7,2.92v.08a1.67,1.67,0,0,0,.24.32,8.57,8.57,0,0,1,.6,1l5.08,9.4a1.06,1.06,0,0,1,.14,1.12,1.09,1.09,0,0,1-1,.44h-1.6a1.6,1.6,0,0,1-1.56-.92l-5.52-10.32h-6v9.92a1.17,1.17,0,0,1-1.32,1.32h-1.28a1.17,1.17,0,0,1-1.32-1.32Zm9.6,12.24a4.83,4.83,0,0,0,3.68-1.42,5.93,5.93,0,0,0,.7-6.5,4,4,0,0,0-2-1.72,5.53,5.53,0,0,0-1.28-.36,13.53,13.53,0,0,0-2.08-.12h-4.72v10.12Z"/><path class="cls-6" d="M919.67,155.69a14.84,14.84,0,0,1,1.08-5.68,13.79,13.79,0,0,1,3-4.58,14.09,14.09,0,0,1,4.6-3,15.95,15.95,0,0,1,11.64,0,13.69,13.69,0,0,1,4.58,3,13.9,13.9,0,0,1,3,4.58,14.84,14.84,0,0,1,1.08,5.68,15.53,15.53,0,0,1-1.08,5.82,14.43,14.43,0,0,1-3,4.7,13.79,13.79,0,0,1-4.58,3.14,15.43,15.43,0,0,1-11.64,0,14,14,0,0,1-7.62-7.84A15.53,15.53,0,0,1,919.67,155.69Zm4.08,0a12.23,12.23,0,0,0,.78,4.4,10.81,10.81,0,0,0,2.18,3.54,10.12,10.12,0,0,0,7.48,3.22,10.09,10.09,0,0,0,4.16-.86,9.92,9.92,0,0,0,3.3-2.36,10.93,10.93,0,0,0,2.16-3.54,12.23,12.23,0,0,0,.78-4.4,11.52,11.52,0,0,0-.78-4.26,10.38,10.38,0,0,0-2.16-3.42,9.94,9.94,0,0,0-3.3-2.26,11,11,0,0,0-8.32,0,10,10,0,0,0-5.5,5.68A11.52,11.52,0,0,0,923.75,155.69Z"/><path class="cls-6" d="M952.31,155.73a15.35,15.35,0,0,1,1.06-5.72,14,14,0,0,1,3-4.58,13.62,13.62,0,0,1,4.54-3,15,15,0,0,1,5.8-1.1,16.06,16.06,0,0,1,3.3.32,18.18,18.18,0,0,1,2.66.76,13.23,13.23,0,0,1,2,.94,11.08,11.08,0,0,1,1.38.9,1.24,1.24,0,0,1,.24,1.84l-.52.8a1.19,1.19,0,0,1-1.84.32c-.29-.19-.66-.41-1.12-.68a10.15,10.15,0,0,0-1.58-.74,13.6,13.6,0,0,0-2-.58,11.09,11.09,0,0,0-2.38-.24,10.89,10.89,0,0,0-4.4.84,9.66,9.66,0,0,0-5.34,5.72,12.59,12.59,0,0,0-.7,4.2,12.78,12.78,0,0,0,.72,4.28,10.61,10.61,0,0,0,2.08,3.56,10.15,10.15,0,0,0,3.3,2.42,10.33,10.33,0,0,0,4.38.9,10.66,10.66,0,0,0,2.6-.3,14.29,14.29,0,0,0,2.18-.72,10.31,10.31,0,0,0,1.7-.9q.72-.48,1.2-.84a1.15,1.15,0,0,1,1.84.16l.6.8a1.21,1.21,0,0,1-.2,1.84c-.37.29-.86.65-1.46,1.06a13.43,13.43,0,0,1-2.16,1.18,18,18,0,0,1-2.88,1,14.59,14.59,0,0,1-3.54.4,15,15,0,0,1-5.94-1.14,13.71,13.71,0,0,1-4.56-3.14,13.93,13.93,0,0,1-2.92-4.68A16.18,16.18,0,0,1,952.31,155.73Z"/><path class="cls-6" d="M982.35,143.09a1.17,1.17,0,0,1,1.32-1.32h13.76a1.17,1.17,0,0,1,1.32,1.32v.8a1.17,1.17,0,0,1-1.32,1.32H986.27v8.84h8.84a1.17,1.17,0,0,1,1.32,1.32v.8a1.17,1.17,0,0,1-1.32,1.32h-8.84v9.08h11.84a1.17,1.17,0,0,1,1.32,1.32v.8a1.17,1.17,0,0,1-1.32,1.32H983.67a1.17,1.17,0,0,1-1.32-1.32Z"/><path class="cls-6" d="M1003.27,167.57a1.55,1.55,0,0,1-.5-.8,1.37,1.37,0,0,1,.34-1l.68-1a1.22,1.22,0,0,1,1.8-.24,10.86,10.86,0,0,0,1,.66,12.46,12.46,0,0,0,1.38.74,10.71,10.71,0,0,0,1.74.62,8.06,8.06,0,0,0,2.08.26,5.55,5.55,0,0,0,3.62-1.1,3.61,3.61,0,0,0,1.34-2.94,3.46,3.46,0,0,0-1-2.56,9.82,9.82,0,0,0-2.52-1.78c-1-.52-2.11-1-3.28-1.52a21.67,21.67,0,0,1-3.28-1.72,9,9,0,0,1-2.52-2.42,6.28,6.28,0,0,1-1-3.64,7.15,7.15,0,0,1,2.64-5.7,9,9,0,0,1,2.92-1.58,11.41,11.41,0,0,1,3.6-.56,12,12,0,0,1,2.36.22,15.81,15.81,0,0,1,2,.54,9.69,9.69,0,0,1,1.6.7,8.51,8.51,0,0,1,1.08.7,1.27,1.27,0,0,1,.4,1.8l-.56,1c-.24.43-.51.65-.82.66a1.81,1.81,0,0,1-1-.3,20.12,20.12,0,0,0-2.1-1.06,7.52,7.52,0,0,0-3.1-.58,6,6,0,0,0-3.64,1.06,3.41,3.41,0,0,0-1.44,2.9,3.31,3.31,0,0,0,1,2.48,9.83,9.83,0,0,0,2.52,1.7c1,.49,2.11,1,3.28,1.44a18.16,18.16,0,0,1,3.28,1.7,9.09,9.09,0,0,1,2.52,2.46,6.45,6.45,0,0,1,1,3.74,8.17,8.17,0,0,1-.6,3.14,7.21,7.21,0,0,1-1.76,2.54,8.64,8.64,0,0,1-2.82,1.72,10.37,10.37,0,0,1-3.78.64,13.13,13.13,0,0,1-2.86-.3,13.77,13.77,0,0,1-2.42-.76,16,16,0,0,1-1.9-1A10.88,10.88,0,0,1,1003.27,167.57Z"/><path class="cls-6" d="M1024.75,167.57a1.55,1.55,0,0,1-.5-.8,1.33,1.33,0,0,1,.34-1l.68-1a1.22,1.22,0,0,1,1.8-.24,10.86,10.86,0,0,0,1,.66,12.46,12.46,0,0,0,1.38.74,10.71,10.71,0,0,0,1.74.62,8.06,8.06,0,0,0,2.08.26,5.55,5.55,0,0,0,3.62-1.1,3.61,3.61,0,0,0,1.34-2.94,3.46,3.46,0,0,0-1-2.56,10,10,0,0,0-2.52-1.78c-1-.52-2.11-1-3.28-1.52a21.2,21.2,0,0,1-3.28-1.72,9,9,0,0,1-2.52-2.42,6.2,6.2,0,0,1-1-3.64,7.15,7.15,0,0,1,2.64-5.7,9,9,0,0,1,2.92-1.58,11.41,11.41,0,0,1,3.6-.56,12,12,0,0,1,2.36.22,15.81,15.81,0,0,1,2,.54,10.08,10.08,0,0,1,1.6.7,8.51,8.51,0,0,1,1.08.7,1.27,1.27,0,0,1,.4,1.8l-.56,1c-.24.43-.51.65-.82.66a1.79,1.79,0,0,1-1-.3,20.12,20.12,0,0,0-2.1-1.06,7.52,7.52,0,0,0-3.1-.58A6,6,0,0,0,1030,146a3.41,3.41,0,0,0-1.44,2.9,3.28,3.28,0,0,0,1,2.48,9.83,9.83,0,0,0,2.52,1.7c1,.49,2.11,1,3.28,1.44a18.16,18.16,0,0,1,3.28,1.7,9.23,9.23,0,0,1,2.52,2.46,6.45,6.45,0,0,1,1,3.74,8.17,8.17,0,0,1-.6,3.14,7.21,7.21,0,0,1-1.76,2.54,8.64,8.64,0,0,1-2.82,1.72,10.4,10.4,0,0,1-3.78.64,13.07,13.07,0,0,1-2.86-.3,13.77,13.77,0,0,1-2.42-.76,16,16,0,0,1-1.9-1A10.12,10.12,0,0,1,1024.75,167.57Z"/></g><g class="cls-8"><path class="cls-6" d="M1220.17,155.69a14.84,14.84,0,0,1,1.08-5.68,13.71,13.71,0,0,1,7.62-7.62,15.95,15.95,0,0,1,11.64,0,13.64,13.64,0,0,1,7.58,7.62,14.84,14.84,0,0,1,1.08,5.68,15.53,15.53,0,0,1-1.08,5.82,14.43,14.43,0,0,1-3,4.7,13.89,13.89,0,0,1-4.58,3.14,15.43,15.43,0,0,1-11.64,0,14,14,0,0,1-4.6-3.14,14.32,14.32,0,0,1-3-4.7A15.53,15.53,0,0,1,1220.17,155.69Zm4.08,0a12.23,12.23,0,0,0,.78,4.4,10.81,10.81,0,0,0,2.18,3.54,10.36,10.36,0,0,0,11.64,2.36,9.92,9.92,0,0,0,3.3-2.36,10.93,10.93,0,0,0,2.16-3.54,12.23,12.23,0,0,0,.78-4.4,11.52,11.52,0,0,0-.78-4.26,10.38,10.38,0,0,0-2.16-3.42,9.94,9.94,0,0,0-3.3-2.26,11,11,0,0,0-8.32,0,10.13,10.13,0,0,0-3.32,2.26,10.27,10.27,0,0,0-2.18,3.42A11.52,11.52,0,0,0,1224.25,155.69Z"/><path class="cls-6" d="M1254.21,143.09a1.17,1.17,0,0,1,1.32-1.32h1.32a1.15,1.15,0,0,1,1.28,1.32V160a6.55,6.55,0,0,0,2,5.06,8.34,8.34,0,0,0,10.4,0,6.63,6.63,0,0,0,2-5.1V143.09a1.17,1.17,0,0,1,1.32-1.32h1.32a1.17,1.17,0,0,1,1.32,1.32V160a11.1,11.1,0,0,1-.8,4.28,9.52,9.52,0,0,1-2.26,3.3,10.24,10.24,0,0,1-3.5,2.14,13.88,13.88,0,0,1-9.06,0,10.23,10.23,0,0,1-3.52-2.14,9.39,9.39,0,0,1-2.26-3.3,10.92,10.92,0,0,1-.8-4.28Z"/><path class="cls-6" d="M1289.61,145.21h-8.4a1.17,1.17,0,0,1-1.32-1.32v-.8a1.17,1.17,0,0,1,1.32-1.32h20.72a1.15,1.15,0,0,1,1.28,1.32v.8a1.15,1.15,0,0,1-1.28,1.32h-8.4v23.48a1.17,1.17,0,0,1-1.32,1.32h-1.32c-.86,0-1.28-.44-1.28-1.32Z"/><path class="cls-6" d="M1307.05,143.09a1.17,1.17,0,0,1,1.32-1.32h9a10.09,10.09,0,0,1,3.56.62,7.89,7.89,0,0,1,2.8,1.78,8.32,8.32,0,0,1,1.82,2.8,9.67,9.67,0,0,1,.66,3.64,9.85,9.85,0,0,1-.66,3.66,8.5,8.5,0,0,1-1.82,2.84,8,8,0,0,1-2.8,1.82,9.66,9.66,0,0,1-3.56.64H1311v9.12a1.17,1.17,0,0,1-1.32,1.32h-1.28a1.17,1.17,0,0,1-1.32-1.32Zm9.68,13a5.4,5.4,0,0,0,4-1.48,5.52,5.52,0,0,0,1.46-4,5.31,5.31,0,0,0-1.46-4,5.46,5.46,0,0,0-4-1.42H1311v10.92Z"/><path class="cls-6" d="M1330.53,143.09a1.17,1.17,0,0,1,1.32-1.32h1.32a1.15,1.15,0,0,1,1.28,1.32V160a6.55,6.55,0,0,0,2,5.06,8.34,8.34,0,0,0,10.4,0,6.63,6.63,0,0,0,2-5.1V143.09a1.17,1.17,0,0,1,1.32-1.32h1.32a1.17,1.17,0,0,1,1.32,1.32V160a11.1,11.1,0,0,1-.8,4.28,9.66,9.66,0,0,1-2.26,3.3,10.34,10.34,0,0,1-3.5,2.14,13.88,13.88,0,0,1-9.06,0,10.14,10.14,0,0,1-3.52-2.14,9.39,9.39,0,0,1-2.26-3.3,10.92,10.92,0,0,1-.8-4.28Z"/><path class="cls-6" d="M1365.93,145.21h-8.4a1.17,1.17,0,0,1-1.32-1.32v-.8a1.17,1.17,0,0,1,1.32-1.32h20.72a1.15,1.15,0,0,1,1.28,1.32v.8a1.15,1.15,0,0,1-1.28,1.32h-8.4v23.48a1.17,1.17,0,0,1-1.32,1.32h-1.32c-.86,0-1.28-.44-1.28-1.32Z"/></g><g class="cls-2"><polygon class="cls-4" points="1486.73 256.91 1484.72 256.91 465.82 256.67 464.9 69.96 532.25 68.5 532.33 72.5 468.92 73.88 469.8 252.67 1482.72 252.91 1482.39 73.94 1399.81 74.7 1399.77 70.7 1486.39 69.9 1486.73 256.91"/><polygon class="cls-4" points="530.47 78.94 547.09 70.18 530.11 62.15 530.47 78.94"/></g></svg>