<svg id="Layer_1" data-name="Layer 1" xmlns="http://www.w3.org/2000/svg" xmlns:xlink="http://www.w3.org/1999/xlink" viewBox="0 0 1920 1080"><defs><style>.cls-1,.cls-42{fill:none;}.cls-2{clip-path:url(#clip-path);}.cls-3{fill:#f3f5f6;}.cls-4{clip-path:url(#clip-path-2);}.cls-10,.cls-16,.cls-17,.cls-24,.cls-25,.cls-33,.cls-34,.cls-39,.cls-40,.cls-5,.cls-9{opacity:0;}.cls-6{font-size:32px;font-family:MuseoSansRounded-500, Museo Sans Rounded;font-weight:500;}.cls-44,.cls-6{fill:#464775;}.cls-7{letter-spacing:0em;}.cls-8{clip-path:url(#clip-path-3);}.cls-9{fill:#65c8cc;}.cls-10{fill:#e83255;}.cls-11{clip-path:url(#clip-path-4);}.cls-12{letter-spacing:0em;}.cls-13{letter-spacing:0em;}.cls-14{clip-path:url(#clip-path-5);}.cls-15{letter-spacing:-0.01em;}.cls-16{fill:#c4478d;}.cls-17{fill:#7aa05d;}.cls-18{clip-path:url(#clip-path-7);}.cls-19{letter-spacing:-0.01em;}.cls-20{clip-path:url(#clip-path-8);}.cls-21{letter-spacing:-0.01em;}.cls-22{letter-spacing:0em;}.cls-23{letter-spacing:0em;}.cls-24{fill:#83f3ea;}.cls-25{fill:#a2b724;}.cls-26{clip-path:url(#clip-path-10);}.cls-27{letter-spacing:-0.01em;}.cls-28{letter-spacing:-0.01em;}.cls-29{letter-spacing:0em;}.cls-30{clip-path:url(#clip-path-11);}.cls-31{letter-spacing:-0.01em;}.cls-32{letter-spacing:-0.01em;}.cls-33{fill:#9b043e;}.cls-34{fill:#23cd28;}.cls-35{clip-path:url(#clip-path-13);}.cls-36{letter-spacing:-0.09em;}.cls-37{letter-spacing:-0.01em;}.cls-38{clip-path:url(#clip-path-14);}.cls-39{fill:#66211c;}.cls-40{fill:#ff3883;}.cls-41{clip-path:url(#clip-path-16);}.cls-42{stroke:#e5c721;stroke-width:6px;}.cls-43{fill:#e5c721;}.cls-44{font-size:110px;font-family:STIXSizeFourSym-Regular, STIXSizeFourSym;}</style><clipPath id="clip-path"><rect class="cls-1" width="1920" height="1080"/></clipPath><clipPath id="clip-path-2"><rect class="cls-1" x="647" y="230" width="275.81" height="64.91"/></clipPath><clipPath id="clip-path-3"><rect class="cls-1" x="647" y="230" width="678.7" height="649.08"/></clipPath><clipPath id="clip-path-4"><rect class="cls-1" x="922.81" y="294.91" width="402.9" height="64.91"/></clipPath><clipPath id="clip-path-5"><rect class="cls-1" x="647" y="359.82" width="275.81" height="64.91"/></clipPath><clipPath id="clip-path-7"><rect class="cls-1" x="922.81" y="424.72" width="402.9" height="64.91"/></clipPath><clipPath id="clip-path-8"><rect class="cls-1" x="647" y="489.63" width="275.81" height="64.91"/></clipPath><clipPath id="clip-path-10"><rect class="cls-1" x="922.81" y="554.54" width="402.9" height="64.91"/></clipPath><clipPath id="clip-path-11"><rect class="cls-1" x="647" y="619.45" width="275.81" height="64.91"/></clipPath><clipPath id="clip-path-13"><rect class="cls-1" x="922.81" y="684.36" width="402.9" height="64.91"/></clipPath><clipPath id="clip-path-14"><rect class="cls-1" x="647" y="749.26" width="275.81" height="64.91"/></clipPath><clipPath id="clip-path-16"><rect class="cls-1" x="922.81" y="814.17" width="402.9" height="64.91"/></clipPath></defs><g class="cls-2"><rect class="cls-3" width="1920" height="1080"/></g><g class="cls-4"><rect class="cls-5" x="651" y="243" width="267.81" height="52"/><text class="cls-6" transform="translate(726.36 274.38)">Appea<tspan class="cls-7" x="91.74" y="0">r</tspan><tspan x="103.07" y="0">s</tspan></text></g><g class="cls-8"><rect class="cls-9" x="922.81" y="230" width="402.9" height="64.91"/><rect class="cls-10" x="647" y="294.91" width="275.81" height="64.91"/></g><g class="cls-11"><rect class="cls-5" x="926.81" y="307.91" width="394.9" height="52"/><text class="cls-6" transform="translate(926.81 339.29)"><tspan class="cls-12">Z</tspan><tspan x="18.69" y="0">ig Zag </tspan><tspan class="cls-13" x="115.07" y="0">D</tspan><tspan x="138.3" y="0">an</tspan><tspan class="cls-12" x="173.76" y="0">c</tspan><tspan x="190.62" y="0">e</tspan></text></g><g class="cls-14"><rect class="cls-5" x="651" y="372.82" width="267.81" height="52"/><text class="cls-6" transform="translate(736.23 404.2)"><tspan class="cls-15">C</tspan><tspan x="22.4" y="0">ourts</tspan></text></g><g class="cls-8"><rect class="cls-16" x="922.81" y="359.82" width="402.9" height="64.91"/><rect class="cls-17" x="647" y="424.72" width="275.81" height="64.91"/></g><g class="cls-18"><rect class="cls-5" x="926.81" y="437.72" width="394.9" height="52"/><text class="cls-6" transform="translate(926.81 469.11)"><tspan class="cls-19">L</tspan><tspan x="15.9" y="0">eads</tspan></text></g><g class="cls-20"><rect class="cls-5" x="651" y="502.63" width="267.81" height="52"/><text class="cls-6" transform="translate(729.05 534.02)"><tspan class="cls-21">F</tspan><tspan x="15.81" y="0">ol</tspan><tspan class="cls-22" x="44" y="0">l</tspan><tspan class="cls-23" x="52.29" y="0">o</tspan><tspan x="72.03" y="0">ws</tspan></text></g><g class="cls-8"><rect class="cls-24" x="922.81" y="489.63" width="402.9" height="64.91"/><rect class="cls-25" x="647" y="554.54" width="275.81" height="64.91"/></g><g class="cls-26"><rect class="cls-5" x="926.81" y="567.54" width="394.9" height="52"/><text class="cls-6" transform="translate(926.81 598.92)"><tspan class="cls-13">S</tspan><tspan x="17.09" y="0">h</tspan><tspan class="cls-7" x="36.03" y="0">o</tspan><tspan x="55.77" y="0">ws </tspan><tspan class="cls-27" x="103.52" y="0">N</tspan><tspan x="127.07" y="0">est </tspan><tspan class="cls-28" x="177.5" y="0">E</tspan><tspan class="cls-12" x="195.07" y="0">n</tspan><tspan x="213.85" y="0">t</tspan><tspan class="cls-12" x="224.8" y="0">r</tspan><tspan x="236.06" y="0">an</tspan><tspan class="cls-29" x="271.52" y="0">c</tspan><tspan x="288.38" y="0">e</tspan></text></g><g class="cls-30"><rect class="cls-5" x="651" y="632.45" width="267.81" height="52"/><text class="cls-6" transform="translate(702.97 663.83)"><tspan class="cls-31">E</tspan><tspan class="cls-12" x="17.6" y="0">n</tspan><tspan class="cls-22" x="36.38" y="0">t</tspan><tspan x="47.23" y="0">e</tspan><tspan class="cls-7" x="64.67" y="0">r</tspan><tspan x="76" y="0">s </tspan><tspan class="cls-32" x="98.05" y="0">N</tspan><tspan x="121.6" y="0">est</tspan></text></g><g class="cls-8"><rect class="cls-33" x="922.81" y="619.45" width="402.9" height="64.91"/><rect class="cls-34" x="647" y="684.36" width="275.81" height="64.91"/></g><g class="cls-35"><rect class="cls-5" x="926.81" y="697.36" width="394.9" height="52"/><text class="cls-6" transform="translate(926.81 728.74)"><tspan class="cls-36">T</tspan><tspan class="cls-37" x="16.16" y="0">r</tspan><tspan x="27.07" y="0">embles</tspan></text></g><g class="cls-38"><rect class="cls-5" x="651" y="762.26" width="267.81" height="52"/><text class="cls-6" transform="translate(729.38 793.65)"><tspan class="cls-12">S</tspan><tspan x="17.06" y="0">p</tspan><tspan class="cls-12" x="36" y="0">a</tspan><tspan x="52.42" y="0">wns</tspan></text></g><g class="cls-8"><rect class="cls-39" x="922.81" y="749.26" width="402.9" height="64.91"/><rect class="cls-40" x="647" y="814.17" width="275.81" height="64.91"/></g><g class="cls-41"><rect class="cls-5" x="926.81" y="827.17" width="394.9" height="52"/><text class="cls-6" transform="translate(926.81 858.56)"><tspan class="cls-21">F</tspan><tspan x="15.81" y="0">ertilises</tspan></text></g><g class="cls-2"><polyline class="cls-42" points="826.79 282.64 881.46 306.02 884.21 307.2"/><polygon class="cls-43" points="876.73 317.06 903.52 315.47 886.17 294.99 876.73 317.06"/><polyline class="cls-42" points="823.79 411.64 878.46 435.02 881.21 436.2"/><polygon class="cls-43" points="873.73 446.06 900.52 444.47 883.17 423.99 873.73 446.06"/><polyline class="cls-42" points="823.78 541.01 878.47 564.51 881.23 565.7"/><polygon class="cls-43" points="873.73 575.54 900.52 573.99 883.21 553.49 873.73 575.54"/><polyline class="cls-42" points="826.79 801.49 881.48 824.99 884.24 826.17"/><polygon class="cls-43" points="876.74 836.01 903.53 834.47 886.22 813.96 876.74 836.01"/><polyline class="cls-42" points="842.06 669.99 895.64 694.13 898.37 695.36"/><polygon class="cls-43" points="890.71 705.07 917.52 703.99 900.57 683.19 890.71 705.07"/><polyline class="cls-42" points="881.62 339.78 835.15 363.42 832.48 364.78"/><polygon class="cls-43" points="829.71 352.73 813.76 374.3 840.59 374.12 829.71 352.73"/><polyline class="cls-42" points="887.62 466.23 841.15 489.87 838.48 491.23"/><polygon class="cls-43" points="835.71 479.18 819.76 500.75 846.59 500.57 835.71 479.18"/><polyline class="cls-42" points="897.82 592.14 851.35 615.78 848.67 617.14"/><polygon class="cls-43" points="845.9 605.09 829.96 626.66 856.79 626.48 845.9 605.09"/><polyline class="cls-42" points="898.82 726.14 852.35 749.78 849.67 751.14"/><polygon class="cls-43" points="846.9 739.09 830.96 760.66 857.79 760.48 846.9 739.09"/><text class="cls-6" transform="translate(504.02 568.78)">MALE</text><text class="cls-6" transform="translate(1301.06 566.87)">FEMALE</text><text class="cls-44" transform="translate(1303.49 441.85) rotate(180)">{</text><text class="cls-44" transform="translate(590.85 668.12)">{</text></g></svg>