<svg id="Layer_1" data-name="Layer 1" xmlns="http://www.w3.org/2000/svg" xmlns:xlink="http://www.w3.org/1999/xlink" viewBox="0 0 1267.2 756.7"><defs><style>.cls-1,.cls-42{fill:none;}.cls-2{clip-path:url(#clip-path);}.cls-3{fill:#f3f5f6;}.cls-4{clip-path:url(#clip-path-2);}.cls-10,.cls-16,.cls-17,.cls-24,.cls-25,.cls-33,.cls-34,.cls-39,.cls-40,.cls-5,.cls-9{opacity:0;}.cls-6{font-size:32px;font-family:MuseoSansRounded-500, Museo Sans Rounded;font-weight:500;}.cls-44,.cls-6{fill:#464775;}.cls-7{letter-spacing:0em;}.cls-8{clip-path:url(#clip-path-3);}.cls-9{fill:#65c8cc;}.cls-10{fill:#e83255;}.cls-11{clip-path:url(#clip-path-4);}.cls-12{letter-spacing:0em;}.cls-13{letter-spacing:0em;}.cls-14{clip-path:url(#clip-path-5);}.cls-15{letter-spacing:-0.01em;}.cls-16{fill:#c4478d;}.cls-17{fill:#7aa05d;}.cls-18{clip-path:url(#clip-path-7);}.cls-19{letter-spacing:-0.01em;}.cls-20{clip-path:url(#clip-path-8);}.cls-21{letter-spacing:-0.01em;}.cls-22{letter-spacing:0em;}.cls-23{letter-spacing:0em;}.cls-24{fill:#83f3ea;}.cls-25{fill:#a2b724;}.cls-26{clip-path:url(#clip-path-10);}.cls-27{letter-spacing:-0.01em;}.cls-28{letter-spacing:-0.01em;}.cls-29{letter-spacing:0em;}.cls-30{clip-path:url(#clip-path-11);}.cls-31{letter-spacing:-0.01em;}.cls-32{letter-spacing:-0.01em;}.cls-33{fill:#9b043e;}.cls-34{fill:#23cd28;}.cls-35{clip-path:url(#clip-path-13);}.cls-36{letter-spacing:-0.09em;}.cls-37{letter-spacing:-0.01em;}.cls-38{clip-path:url(#clip-path-14);}.cls-39{fill:#66211c;}.cls-40{fill:#ff3883;}.cls-41{clip-path:url(#clip-path-16);}.cls-42{stroke:#e5c721;stroke-width:6px;}.cls-43{fill:#e5c721;}.cls-44{font-size:110px;font-family:STIXSizeFourSym-Regular, STIXSizeFourSym;}</style><clipPath id="clip-path"><rect class="cls-1" x="-307.94" y="-178.07" width="1920" height="1080"/></clipPath><clipPath id="clip-path-2"><rect class="cls-1" x="339.06" y="51.93" width="275.81" height="64.91"/></clipPath><clipPath id="clip-path-3"><rect class="cls-1" x="339.06" y="51.93" width="678.7" height="649.08"/></clipPath><clipPath id="clip-path-4"><rect class="cls-1" x="614.87" y="116.84" width="402.9" height="64.91"/></clipPath><clipPath id="clip-path-5"><rect class="cls-1" x="339.06" y="181.75" width="275.81" height="64.91"/></clipPath><clipPath id="clip-path-7"><rect class="cls-1" x="614.87" y="246.66" width="402.9" height="64.91"/></clipPath><clipPath id="clip-path-8"><rect class="cls-1" x="339.06" y="311.57" width="275.81" height="64.91"/></clipPath><clipPath id="clip-path-10"><rect class="cls-1" x="614.87" y="376.47" width="402.9" height="64.91"/></clipPath><clipPath id="clip-path-11"><rect class="cls-1" x="339.06" y="441.38" width="275.81" height="64.91"/></clipPath><clipPath id="clip-path-13"><rect class="cls-1" x="614.87" y="506.29" width="402.9" height="64.91"/></clipPath><clipPath id="clip-path-14"><rect class="cls-1" x="339.06" y="571.2" width="275.81" height="64.91"/></clipPath><clipPath id="clip-path-16"><rect class="cls-1" x="614.87" y="636.11" width="402.9" height="64.91"/></clipPath></defs><g class="cls-2"><rect class="cls-3" x="-307.94" y="-178.07" width="1920" height="1080"/></g><g class="cls-4"><rect class="cls-5" x="343.06" y="64.93" width="267.81" height="52"/><text class="cls-6" transform="translate(418.42 96.32)">Appea<tspan class="cls-7" x="91.74" y="0">r</tspan><tspan x="103.07" y="0">s</tspan></text></g><g class="cls-8"><rect class="cls-9" x="614.87" y="51.93" width="402.9" height="64.91"/><rect class="cls-10" x="339.06" y="116.84" width="275.81" height="64.91"/></g><g class="cls-11"><rect class="cls-5" x="618.87" y="129.84" width="394.9" height="52"/><text class="cls-6" transform="translate(618.87 161.23)"><tspan class="cls-12">Z</tspan><tspan x="18.69" y="0">ig Zag </tspan><tspan class="cls-13" x="115.07" y="0">D</tspan><tspan x="138.3" y="0">an</tspan><tspan class="cls-12" x="173.76" y="0">c</tspan><tspan x="190.62" y="0">e</tspan></text></g><g class="cls-14"><rect class="cls-5" x="343.06" y="194.75" width="267.81" height="52"/><text class="cls-6" transform="translate(428.29 226.13)"><tspan class="cls-15">C</tspan><tspan x="22.4" y="0">ourts</tspan></text></g><g class="cls-8"><rect class="cls-16" x="614.87" y="181.75" width="402.9" height="64.91"/><rect class="cls-17" x="339.06" y="246.66" width="275.81" height="64.91"/></g><g class="cls-18"><rect class="cls-5" x="618.87" y="259.66" width="394.9" height="52"/><text class="cls-6" transform="translate(618.87 291.04)"><tspan class="cls-19">L</tspan><tspan x="15.9" y="0">eads</tspan></text></g><g class="cls-20"><rect class="cls-5" x="343.06" y="324.57" width="267.81" height="52"/><text class="cls-6" transform="translate(421.11 355.95)"><tspan class="cls-21">F</tspan><tspan x="15.81" y="0">ol</tspan><tspan class="cls-22" x="44" y="0">l</tspan><tspan class="cls-23" x="52.29" y="0">o</tspan><tspan x="72.03" y="0">ws</tspan></text></g><g class="cls-8"><rect class="cls-24" x="614.87" y="311.57" width="402.9" height="64.91"/><rect class="cls-25" x="339.06" y="376.47" width="275.81" height="64.91"/></g><g class="cls-26"><rect class="cls-5" x="618.87" y="389.47" width="394.9" height="52"/><text class="cls-6" transform="translate(618.87 420.86)"><tspan class="cls-13">S</tspan><tspan x="17.09" y="0">h</tspan><tspan class="cls-7" x="36.03" y="0">o</tspan><tspan x="55.77" y="0">ws </tspan><tspan class="cls-27" x="103.52" y="0">N</tspan><tspan x="127.07" y="0">est </tspan><tspan class="cls-28" x="177.5" y="0">E</tspan><tspan class="cls-12" x="195.07" y="0">n</tspan><tspan x="213.85" y="0">t</tspan><tspan class="cls-12" x="224.8" y="0">r</tspan><tspan x="236.06" y="0">an</tspan><tspan class="cls-29" x="271.52" y="0">c</tspan><tspan x="288.38" y="0">e</tspan></text></g><g class="cls-30"><rect class="cls-5" x="343.06" y="454.38" width="267.81" height="52"/><text class="cls-6" transform="translate(395.03 485.76)"><tspan class="cls-31">E</tspan><tspan class="cls-12" x="17.6" y="0">n</tspan><tspan class="cls-22" x="36.38" y="0">t</tspan><tspan x="47.23" y="0">e</tspan><tspan class="cls-7" x="64.67" y="0">r</tspan><tspan x="76" y="0">s </tspan><tspan class="cls-32" x="98.05" y="0">N</tspan><tspan x="121.6" y="0">est</tspan></text></g><g class="cls-8"><rect class="cls-33" x="614.87" y="441.38" width="402.9" height="64.91"/><rect class="cls-34" x="339.06" y="506.29" width="275.81" height="64.91"/></g><g class="cls-35"><rect class="cls-5" x="618.87" y="519.29" width="394.9" height="52"/><text class="cls-6" transform="translate(618.87 550.67)"><tspan class="cls-36">T</tspan><tspan class="cls-37" x="16.16" y="0">r</tspan><tspan x="27.07" y="0">embles</tspan></text></g><g class="cls-38"><rect class="cls-5" x="343.06" y="584.2" width="267.81" height="52"/><text class="cls-6" transform="translate(421.44 615.58)"><tspan class="cls-12">S</tspan><tspan x="17.06" y="0">p</tspan><tspan class="cls-12" x="36" y="0">a</tspan><tspan x="52.42" y="0">wns</tspan></text></g><g class="cls-8"><rect class="cls-39" x="614.87" y="571.2" width="402.9" height="64.91"/><rect class="cls-40" x="339.06" y="636.11" width="275.81" height="64.91"/></g><g class="cls-41"><rect class="cls-5" x="618.87" y="649.11" width="394.9" height="52"/><text class="cls-6" transform="translate(618.87 680.49)"><tspan class="cls-21">F</tspan><tspan x="15.81" y="0">ertilises</tspan></text></g><g class="cls-2"><polyline class="cls-42" points="518.86 104.57 573.52 127.96 576.27 129.14"/><polygon class="cls-43" points="568.8 138.99 595.58 137.4 578.24 116.93 568.8 138.99"/><polyline class="cls-42" points="515.86 233.57 570.52 256.96 573.27 258.14"/><polygon class="cls-43" points="565.8 267.99 592.58 266.4 575.24 245.93 565.8 267.99"/><polyline class="cls-42" points="515.84 362.94 570.53 386.44 573.29 387.63"/><polygon class="cls-43" points="565.79 397.47 592.58 395.92 575.27 375.42 565.79 397.47"/><polyline class="cls-42" points="518.85 623.42 573.54 646.92 576.3 648.11"/><polygon class="cls-43" points="568.8 657.95 595.59 656.4 578.28 635.9 568.8 657.95"/><polyline class="cls-42" points="534.12 491.92 587.7 516.06 590.44 517.29"/><polygon class="cls-43" points="582.77 527 609.58 525.92 592.63 505.12 582.77 527"/><polyline class="cls-42" points="573.68 161.71 527.22 185.35 524.54 186.71"/><polygon class="cls-43" points="521.77 174.66 505.82 196.24 532.66 196.05 521.77 174.66"/><polyline class="cls-42" points="579.68 288.16 533.22 311.81 530.54 313.17"/><polygon class="cls-43" points="527.77 301.11 511.82 322.69 538.66 322.5 527.77 301.11"/><polyline class="cls-42" points="589.88 414.07 543.41 437.71 540.74 439.08"/><polygon class="cls-43" points="537.97 427.02 522.02 448.6 548.85 448.41 537.97 427.02"/><polyline class="cls-42" points="590.88 548.07 544.41 571.72 541.74 573.08"/><polygon class="cls-43" points="538.97 561.02 523.02 582.6 549.85 582.41 538.97 561.02"/><text class="cls-6" transform="translate(196.09 390.71)">MALE</text><text class="cls-6" transform="translate(993.13 388.81)">FEMALE</text><text class="cls-44" transform="translate(995.55 263.79) rotate(180)">{</text><text class="cls-44" transform="translate(282.91 490.06)">{</text></g></svg>