<svg xmlns="http://www.w3.org/2000/svg" xmlns:xlink="http://www.w3.org/1999/xlink" xmlns:lucid="lucid" width="1870.87" height="1322.83"><g transform="translate(0 0)" lucid:page-tab-id="0_0"><path d="M0 0h1870.87v1322.83H0z" fill="#fff"/><path d="M556.7 383.6c2.65-2 6.95-2 9.6 0l90.4 67.8c2.65 2 2.65 5.2 0 7.2l-90.4 67.8c-2.65 2-6.95 2-9.6 0l-90.4-67.8c-2.65-2-2.65-5.2 0-7.2z" stroke="#5e5e5e" stroke-width="3" fill="#fff"/><use xlink:href="#a" transform="matrix(1,0,0,1,466.5,385) translate(67.3198148148148 44.21527777777778)"/><use xlink:href="#b" transform="matrix(1,0,0,1,466.5,385) translate(48.12228395061729 70.88194444444446)"/><use xlink:href="#c" transform="matrix(1,0,0,1,466.5,385) translate(111.02351851851851 70.88194444444446)"/><use xlink:href="#d" transform="matrix(1,0,0,1,466.5,385) translate(67.22722222222222 97.54861111111111)"/><path d="M581.5 160c0 11.05-8.95 20-20 20s-20-8.95-20-20 8.95-20 20-20 20 8.95 20 20z" stroke="#5e5e5e" stroke-width="3"/><path d="M561.5 322.5v39.67" stroke="#5e5e5e" stroke-width="2" fill="none"/><path d="M562.5 322.53h-2v-1.03h2z" stroke="#5e5e5e" stroke-width=".05" fill="#5e5e5e"/><path d="M561.5 377.43l-4.64-14.26h9.28z" stroke="#5e5e5e" stroke-width="2" fill="#5e5e5e"/><path d="M561.5 182.5V220" stroke="#5e5e5e" stroke-width="2" fill="none"/><path d="M561.43 181.5l1.07-.03v1.06h-2v-1.14z" stroke="#5e5e5e" stroke-width=".05" fill="#5e5e5e"/><path d="M561.5 235.26L556.86 221h9.28z" stroke="#5e5e5e" stroke-width="2" fill="#5e5e5e"/><path d="M497.5 240c-8.84 0-16 7.16-16 16v48c0 8.84 7.16 16 16 16h128c8.84 0 16-7.16 16-16v-48c0-8.84-7.16-16-16-16z" stroke="#5e5e5e" stroke-width="3" fill="#fff"/><use xlink:href="#e" transform="matrix(1,0,0,1,489.5,248) translate(10.919753086419753 23.111111111111114)"/><use xlink:href="#f" transform="matrix(1,0,0,1,489.5,248) translate(66.47530864197532 23.111111111111114)"/><use xlink:href="#g" transform="matrix(1,0,0,1,489.5,248) translate(43.635802469135804 49.77777777777778)"/><path d="M556.8 723.75c2.6-2.07 6.8-2.07 9.4 0l90.6 72.5c2.6 2.07 2.6 5.43 0 7.5l-90.6 72.5c-2.6 2.07-6.8 2.07-9.4 0l-90.6-72.5c-2.6-2.07-2.6-5.43 0-7.5z" stroke="#5e5e5e" stroke-width="3" fill="#fff"/><use xlink:href="#h" transform="matrix(1,0,0,1,466.5,725) translate(48.461790123456794 64.65277777777777)"/><use xlink:href="#b" transform="matrix(1,0,0,1,466.5,725) translate(65.68401234567901 64.65277777777777)"/><use xlink:href="#i" transform="matrix(1,0,0,1,466.5,725) translate(128.58524691358025 64.65277777777777)"/><use xlink:href="#j" transform="matrix(1,0,0,1,466.5,725) translate(46.3012962962963 91.31944444444446)"/><path d="M473.5 580c-6.63 0-12 5.37-12 12v36c0 6.63 5.37 12 12 12h176c6.63 0 12-5.37 12-12v-36c0-6.63-5.37-12-12-12z" stroke="#5e5e5e" stroke-width="3" fill="#fff"/><use xlink:href="#k" transform="matrix(1,0,0,1,469.5,588) translate(6.320987654320987 17.77777777777778)"/><use xlink:href="#l" transform="matrix(1,0,0,1,469.5,588) translate(55.58024691358025 17.77777777777778)"/><use xlink:href="#m" transform="matrix(1,0,0,1,469.5,588) translate(159.16049382716048 17.77777777777778)"/><use xlink:href="#n" transform="matrix(1,0,0,1,469.5,588) translate(78.48148148148148 44.44444444444444)"/><path d="M562.5 543.25h-2v-12.92h2z" stroke="#5e5e5e" stroke-width=".05" fill="#5e5e5e"/><path d="M562.5 529.35v1h-2v-1.04z" fill="#5e5e5e"/><path d="M562.52 529.33v1.05h-2.04v-1.1zm-2 1h1.96v-.95l-1.96-.05z" stroke="#5e5e5e" stroke-width=".05" fill="#5e5e5e"/><path d="M561.5 575.26l-3.47-10.68h6.94z" fill="#5e5e5e"/><path d="M561.5 578.5l-4.52-13.92h2.1l2.42 7.45 2.42-7.45h2.1z" stroke="#5e5e5e" stroke-width=".05" fill="#5e5e5e"/><use xlink:href="#o" transform="matrix(1,0,0,1,546.1913580246913,543.2480493152058) translate(0 14.222222222222223)"/><path d="M698.8 801h-37.58v-2h37.6zm65.48 0h-20.1v-2h20.1z" stroke="#5e5e5e" stroke-width=".05" fill="#5e5e5e"/><path d="M661.25 801h-1.16l.2-.63-.27-1.37h1.22z" fill="#5e5e5e"/><path d="M661.27 801.02h-1.22l.22-.65-.27-1.4h1.27zm-1.2-2l.25 1.35-.2.6h1.1v-1.95z" stroke="#5e5e5e" stroke-width=".05" fill="#5e5e5e"/><path d="M779.54 800l-14.26 4.64v-9.28z" fill="#5e5e5e"/><path d="M782.78 800l-18.5 6v-12zm-16.5 3.26L776.3 800l-10.02-3.26z" stroke="#5e5e5e" stroke-width=".05" fill="#5e5e5e"/><use xlink:href="#p" transform="matrix(1,0,0,1,698.8086419753087,789.3333333333334) translate(0 14.222222222222223)"/><path d="M562.5 940h-2v-10.46h2zm0-31.8h-2v-27.96h2z" stroke="#5e5e5e" stroke-width=".05" fill="#5e5e5e"/><path d="M562.38 879.28l.12-.03v1.02h-2v-1.07z" fill="#5e5e5e"/><path d="M562.38 879.25l.14-.03v1.07h-2.04v-1.13zm-1.86 1h1.96v-.97l-.1.02-1.86-.07z" stroke="#5e5e5e" stroke-width=".05" fill="#5e5e5e"/><path d="M561.5 955.26L556.86 941h9.28z" fill="#5e5e5e"/><path d="M561.5 958.5l-6-18.5h12zm-3.26-16.5l3.26 10.03 3.26-10.03z" stroke="#5e5e5e" stroke-width=".05" fill="#5e5e5e"/><use xlink:href="#q" transform="matrix(1,0,0,1,542.783950617284,908.2042509257104) translate(0 14.222222222222223)"/><path d="M561.5 642.5v59.76" stroke="#5e5e5e" stroke-width="2" fill="none"/><path d="M562.5 642.53h-2v-1.03h2z" stroke="#5e5e5e" stroke-width=".05" fill="#5e5e5e"/><path d="M561.5 717.52l-4.64-14.26h9.28z" stroke="#5e5e5e" stroke-width="2" fill="#5e5e5e"/><path d="M876.8 723.75c2.6-2.07 6.8-2.07 9.4 0l90.6 72.5c2.6 2.07 2.6 5.43 0 7.5l-90.6 72.5c-2.6 2.07-6.8 2.07-9.4 0l-90.6-72.5c-2.6-2.07-2.6-5.43 0-7.5z" stroke="#5e5e5e" stroke-width="3" fill="#fff"/><use xlink:href="#h" transform="matrix(1,0,0,1,786.5,725) translate(48.461790123456794 64.65277777777777)"/><use xlink:href="#b" transform="matrix(1,0,0,1,786.5,725) translate(65.68401234567901 64.65277777777777)"/><use xlink:href="#r" transform="matrix(1,0,0,1,786.5,725) translate(128.58524691358025 64.65277777777777)"/><use xlink:href="#j" transform="matrix(1,0,0,1,786.5,725) translate(46.3012962962963 91.31944444444446)"/><path d="M1028.8 801h-47.58v-2h47.6zm75.48 0h-30.1v-2h30.1z" stroke="#5e5e5e" stroke-width=".05" fill="#5e5e5e"/><path d="M981.25 801h-1.16l.2-.63-.27-1.37h1.22z" fill="#5e5e5e"/><path d="M981.27 801.02h-1.22l.22-.65-.27-1.4h1.27zm-1.2-2l.25 1.35-.2.6h1.1v-1.95z" stroke="#5e5e5e" stroke-width=".05" fill="#5e5e5e"/><path d="M1119.54 800l-14.26 4.64v-9.28z" fill="#5e5e5e"/><path d="M1122.78 800l-18.5 6v-12zm-16.5 3.26l10.03-3.26-10.02-3.26z" stroke="#5e5e5e" stroke-width=".05" fill="#5e5e5e"/><use xlink:href="#p" transform="matrix(1,0,0,1,1028.8086419753085,789.3333333333334) translate(0 14.222222222222223)"/><path d="M1216.8 723.75c2.6-2.07 6.8-2.07 9.4 0l90.6 72.5c2.6 2.07 2.6 5.43 0 7.5l-90.6 72.5c-2.6 2.07-6.8 2.07-9.4 0l-90.6-72.5c-2.6-2.07-2.6-5.43 0-7.5z" stroke="#5e5e5e" stroke-width="3" fill="#fff"/><use xlink:href="#h" transform="matrix(1,0,0,1,1126.5,725) translate(41.98030864197531 64.65277777777777)"/><use xlink:href="#b" transform="matrix(1,0,0,1,1126.5,725) translate(59.20253086419753 64.65277777777777)"/><use xlink:href="#s" transform="matrix(1,0,0,1,1126.5,725) translate(122.10376543209877 64.65277777777777)"/><use xlink:href="#j" transform="matrix(1,0,0,1,1126.5,725) translate(46.3012962962963 91.31944444444446)"/><path d="M882.5 940h-2v-10.46h2zm0-31.8h-2v-27.96h2z" stroke="#5e5e5e" stroke-width=".05" fill="#5e5e5e"/><path d="M882.38 879.28l.12-.03v1.02h-2v-1.07z" fill="#5e5e5e"/><path d="M882.38 879.25l.14-.03v1.07h-2.04v-1.13zm-1.86 1h1.96v-.97l-.1.02-1.86-.07z" stroke="#5e5e5e" stroke-width=".05" fill="#5e5e5e"/><path d="M881.5 955.26L876.86 941h9.28z" fill="#5e5e5e"/><path d="M881.5 958.5l-6-18.5h12zm-3.26-16.5l3.26 10.03 3.26-10.03z" stroke="#5e5e5e" stroke-width=".05" fill="#5e5e5e"/><use xlink:href="#q" transform="matrix(1,0,0,1,862.783950617284,908.2042509257104) translate(0 14.222222222222223)"/><path d="M1221.3 940h-2v-10.46h2zm1.2-31.8h-2v-27.96h2z" stroke="#5e5e5e" stroke-width=".05" fill="#5e5e5e"/><path d="M1222.38 879.28l.12-.03v1.02h-2v-1.07z" fill="#5e5e5e"/><path d="M1222.38 879.25l.14-.03v1.07h-2.05v-1.13zm-1.86 1h1.95v-.97l-.1.02-1.84-.07z" stroke="#5e5e5e" stroke-width=".05" fill="#5e5e5e"/><path d="M1220.3 955.26l-4.63-14.26h9.27z" fill="#5e5e5e"/><path d="M1220.3 958.5l-6-18.5h12zm-3.26-16.5l3.26 10.03 3.26-10.03z" stroke="#5e5e5e" stroke-width=".05" fill="#5e5e5e"/><use xlink:href="#q" transform="matrix(1,0,0,1,1202.1843417666128,908.2042509257104) translate(0 14.222222222222223)"/><path d="M501.5 960c-11.05 0-20 8.95-20 20v60c0 11.05 8.95 20 20 20h120c11.05 0 20-8.95 20-20v-60c0-11.05-8.95-20-20-20z" stroke="#5e5e5e" stroke-width="3" fill="#fff"/><use xlink:href="#t" transform="matrix(1,0,0,1,489.5,968) translate(10.302469135802475 19.77777777777778)"/><use xlink:href="#u" transform="matrix(1,0,0,1,489.5,968) translate(68.32716049382717 19.77777777777778)"/><use xlink:href="#v" transform="matrix(1,0,0,1,489.5,968) translate(109.00617283950618 19.77777777777778)"/><use xlink:href="#w" transform="matrix(1,0,0,1,489.5,968) translate(17.154320987654316 46.44444444444444)"/><use xlink:href="#x" transform="matrix(1,0,0,1,489.5,968) translate(52.895061728395056 46.44444444444444)"/><use xlink:href="#y" transform="matrix(1,0,0,1,489.5,968) translate(50.45679012345679 73.11111111111111)"/><path d="M821.5 960c-11.05 0-20 8.95-20 20v60c0 11.05 8.95 20 20 20h120c11.05 0 20-8.95 20-20v-60c0-11.05-8.95-20-20-20z" stroke="#5e5e5e" stroke-width="3" fill="#fff"/><use xlink:href="#t" transform="matrix(1,0,0,1,809.5,968) translate(10.302469135802475 19.77777777777778)"/><use xlink:href="#u" transform="matrix(1,0,0,1,809.5,968) translate(68.32716049382717 19.77777777777778)"/><use xlink:href="#v" transform="matrix(1,0,0,1,809.5,968) translate(109.00617283950618 19.77777777777778)"/><use xlink:href="#z" transform="matrix(1,0,0,1,809.5,968) translate(10.395061728395063 46.44444444444444)"/><use xlink:href="#x" transform="matrix(1,0,0,1,809.5,968) translate(59.65432098765432 46.44444444444444)"/><use xlink:href="#A" transform="matrix(1,0,0,1,809.5,968) translate(57.21604938271605 73.11111111111111)"/><path d="M1121.3 965.8c.84-3.2 4.22-5.8 7.53-5.8h206.67c3.3 0 5.3 2.6 4.45 5.8l-18.24 68.4c-.84 3.2-4.22 5.8-7.53 5.8H1107.5c-3.3 0-5.3-2.6-4.45-5.8z" stroke="#5e5e5e" stroke-width="3" fill="#fff"/><g><use xlink:href="#B" transform="matrix(1,0,0,1,1106.5,964.9999999999999) translate(41.15932098765432 26.52777777777778)"/><use xlink:href="#b" transform="matrix(1,0,0,1,1106.5,964.9999999999999) translate(119.98648148148148 26.52777777777778)"/><use xlink:href="#C" transform="matrix(1,0,0,1,1106.5,964.9999999999999) translate(182.88771604938273 26.52777777777778)"/><use xlink:href="#D" transform="matrix(1,0,0,1,1106.5,964.9999999999999) translate(69.71487654320988 53.19444444444445)"/><use xlink:href="#E" transform="matrix(1,0,0,1,1106.5,964.9999999999999) translate(83.72722222222222 53.19444444444445)"/></g><path d="M1240 1160c0 11.05-8.95 20-20 20s-20-8.95-20-20 8.95-20 20-20 20 8.95 20 20z" stroke="#5e5e5e" stroke-width="3" fill="#fff"/><path d="M1232 1160c0 6.63-5.37 12-12 12s-12-5.37-12-12 5.37-12 12-12 12 5.37 12 12z" stroke="#5e5e5e" stroke-width="3"/><path d="M441.5 611h-15.37l-2.64.7-1.8 1.8-.7 2.63v479.24l.7 2.64 1.8 1.8 2.63.7h449.24l2.64-.7 1.8-1.8.7-2.63v-32.87h2v33.13l-.92 3.42-2.53 2.53-3.42.92H425.87l-3.42-.92-2.53-2.53-.92-3.42V615.87l.92-3.42 2.53-2.53 3.42-.92h15.63z" stroke="#5e5e5e" stroke-width=".05" fill="#5e5e5e"/><path d="M882.5 1062.53h-2v-1.03h2z" fill="#5e5e5e"/><path d="M882.52 1062.55h-2.04v-1.08h2.04zm-2-1.02v.97h1.96v-.97z" stroke="#5e5e5e" stroke-width=".05" fill="#5e5e5e"/><path d="M456.76 610l-14.26 4.64v-9.28z" fill="#5e5e5e"/><path d="M460 610l-18.5 6v-12zm-16.5 3.26l10.03-3.26-10.03-3.26z" stroke="#5e5e5e" stroke-width=".05" fill="#5e5e5e"/><path d="M441.5 611h-15.37l-2.64.7-1.8 1.8-.7 2.63v479.24l.7 2.64 1.8 1.8 2.63.7h129.24l2.64-.7 1.8-1.8.7-2.63v-32.87h2v33.13l-.92 3.42-2.53 2.53-3.42.92H425.87l-3.42-.92-2.53-2.53-.92-3.42V615.87l.92-3.42 2.53-2.53 3.42-.92h15.63z" stroke="#5e5e5e" stroke-width=".05" fill="#5e5e5e"/><path d="M562.5 1062.53h-2v-1.03h2z" fill="#5e5e5e"/><path d="M562.52 1062.55h-2.04v-1.08h2.04zm-2-1.02v.97h1.96v-.97z" stroke="#5e5e5e" stroke-width=".05" fill="#5e5e5e"/><path d="M456.76 610l-14.26 4.64v-9.28z" fill="#5e5e5e"/><path d="M460 610l-18.5 6v-12zm-16.5 3.26l10.03-3.26-10.03-3.26z" stroke="#5e5e5e" stroke-width=".05" fill="#5e5e5e"/><path d="M440 86c0-3.3 2.7-6 6-6h228c3.3 0 6 2.7 6 6v48c0 3.3-2.7 6-6 6H446c-3.3 0-6-2.7-6-6z" stroke="#000" stroke-opacity="0" stroke-width="3" fill="#fff" fill-opacity="0"/><g><use xlink:href="#F" transform="matrix(1,0,0,1,445,85) translate(91.57407407407408 30.27777777777778)"/></g><path d="M1060 1166c0-3.3 2.7-6 6-6h228c3.3 0 6 2.7 6 6v51.33c0 3.32-2.7 6-6 6h-228c-3.3 0-6-2.68-6-6z" stroke="#000" stroke-opacity="0" stroke-width="3" fill="#fff" fill-opacity="0"/><g><use xlink:href="#G" transform="matrix(1,0,0,1,1065,1165) translate(95.24691358024691 31.27777777777778)"/></g><path d="M1221.5 1042.5v77.67" stroke="#5e5e5e" stroke-width="2" fill="none"/><path d="M1222.5 1042.53h-2v-1.03h2z" stroke="#5e5e5e" stroke-width=".05" fill="#5e5e5e"/><path d="M1221.5 1135.44l-4.64-14.27h9.28z" stroke="#5e5e5e" stroke-width="2" fill="#5e5e5e"/><path d="M700 406c0-3.3 2.7-6 6-6h228c3.3 0 6 2.7 6 6v78c0 3.3-2.7 6-6 6H706c-3.3 0-6-2.7-6-6z" stroke="#000" stroke-opacity="0" stroke-width="3" fill="#fff" fill-opacity="0"/><g><use xlink:href="#H" transform="matrix(1,0,0,1,705,405.00000000000006) translate(4.691358024691368 30.27777777777778)"/><use xlink:href="#I" transform="matrix(1,0,0,1,705,405.00000000000006) translate(66.23456790123458 30.27777777777778)"/><use xlink:href="#J" transform="matrix(1,0,0,1,705,405.00000000000006) translate(118.0246913580247 30.27777777777778)"/><use xlink:href="#K" transform="matrix(1,0,0,1,705,405.00000000000006) translate(182.09876543209876 30.27777777777778)"/><use xlink:href="#L" transform="matrix(1,0,0,1,705,405.00000000000006) translate(212.96296296296296 30.27777777777778)"/><use xlink:href="#M" transform="matrix(1,0,0,1,705,405.00000000000006) translate(67.56172839506172 56.94444444444445)"/><use xlink:href="#n" transform="matrix(1,0,0,1,705,405.00000000000006) translate(135.4012345679012 56.94444444444445)"/></g><defs><path fill="#333" d="M266 0h-40l-56-210L115 0H75L2-248h35L96-30l15-64 43-154h32l59 218 59-218h35" id="N"/><path fill="#333" d="M106-169C34-169 62-67 57 0H25v-261h32l-1 103c12-21 28-36 61-36 89 0 53 116 60 194h-32v-121c2-32-8-49-39-48" id="O"/><path fill="#333" d="M24-231v-30h32v30H24zM24 0v-190h32V0H24" id="P"/><path fill="#333" d="M24 0v-261h32V0H24" id="Q"/><path fill="#333" d="M100-194c63 0 86 42 84 106H49c0 40 14 67 53 68 26 1 43-12 49-29l28 8c-11 28-37 45-77 45C44 4 14-33 15-96c1-61 26-98 85-98zm52 81c6-60-76-77-97-28-3 7-6 17-6 28h103" id="R"/><g id="a"><use transform="matrix(0.06172839506172839,0,0,0.06172839506172839,0,0)" xlink:href="#N"/><use transform="matrix(0.06172839506172839,0,0,0.06172839506172839,20.925925925925924,0)" xlink:href="#O"/><use transform="matrix(0.06172839506172839,0,0,0.06172839506172839,33.2716049382716,0)" xlink:href="#P"/><use transform="matrix(0.06172839506172839,0,0,0.06172839506172839,38.148148148148145,0)" xlink:href="#Q"/><use transform="matrix(0.06172839506172839,0,0,0.06172839506172839,43.02469135802469,0)" xlink:href="#R"/></g><path fill="#333" d="M128 0H69L1-190h53L99-40l48-150h52" id="S"/><path fill="#333" d="M133-34C117-15 103 5 69 4 32 3 11-16 11-54c-1-60 55-63 116-61 1-26-3-47-28-47-18 1-26 9-28 27l-52-2c7-38 36-58 82-57s74 22 75 68l1 82c-1 14 12 18 25 15v27c-30 8-71 5-69-32zm-48 3c29 0 43-24 42-57-32 0-66-3-65 30 0 17 8 27 23 27" id="T"/><path fill="#333" d="M25 0v-261h50V0H25" id="U"/><path fill="#333" d="M85 4C-2 5 27-109 22-190h50c7 57-23 150 33 157 60-5 35-97 40-157h50l1 190h-47c-2-12 1-28-3-38-12 25-28 42-61 42" id="V"/><path fill="#333" d="M185-48c-13 30-37 53-82 52C43 2 14-33 14-96s30-98 90-98c62 0 83 45 84 108H66c0 31 8 55 39 56 18 0 30-7 34-22zm-45-69c5-46-57-63-70-21-2 6-4 13-4 21h74" id="W"/><g id="b"><use transform="matrix(0.06172839506172839,0,0,0.06172839506172839,0,0)" xlink:href="#S"/><use transform="matrix(0.06172839506172839,0,0,0.06172839506172839,12.345679012345679,0)" xlink:href="#T"/><use transform="matrix(0.06172839506172839,0,0,0.06172839506172839,24.691358024691358,0)" xlink:href="#U"/><use transform="matrix(0.06172839506172839,0,0,0.06172839506172839,30.864197530864196,0)" xlink:href="#V"/><use transform="matrix(0.06172839506172839,0,0,0.06172839506172839,44.382716049382715,0)" xlink:href="#W"/></g><path fill="#333" d="M117-194c89-4 53 116 60 194h-32v-121c0-31-8-49-39-48C34-167 62-67 57 0H25l-1-190h30c1 10-1 24 2 32 11-22 29-35 61-36" id="X"/><path fill="#333" d="M100-194c62-1 85 37 85 99 1 63-27 99-86 99S16-35 15-95c0-66 28-99 85-99zM99-20c44 1 53-31 53-75 0-43-8-75-51-75s-53 32-53 75 10 74 51 75" id="Y"/><path fill="#333" d="M59-47c-2 24 18 29 38 22v24C64 9 27 4 27-40v-127H5v-23h24l9-43h21v43h35v23H59v120" id="Z"/><g id="c"><use transform="matrix(0.06172839506172839,0,0,0.06172839506172839,0,0)" xlink:href="#X"/><use transform="matrix(0.06172839506172839,0,0,0.06172839506172839,12.345679012345679,0)" xlink:href="#Y"/><use transform="matrix(0.06172839506172839,0,0,0.06172839506172839,24.691358024691358,0)" xlink:href="#Z"/></g><path fill="#333" d="M101-234c-31-9-42 10-38 44h38v23H63V0H32v-167H5v-23h27c-7-52 17-82 69-68v24" id="aa"/><path fill="#333" d="M84 4C-5 8 30-112 23-190h32v120c0 31 7 50 39 49 72-2 45-101 50-169h31l1 190h-30c-1-10 1-25-2-33-11 22-28 36-60 37" id="ab"/><path fill="#333" d="M85-194c31 0 48 13 60 33l-1-100h32l1 261h-30c-2-10 0-23-3-31C134-8 116 4 85 4 32 4 16-35 15-94c0-66 23-100 70-100zm9 24c-40 0-46 34-46 75 0 40 6 74 45 74 42 0 51-32 51-76 0-42-9-74-50-73" id="ac"/><g id="d"><use transform="matrix(0.06172839506172839,0,0,0.06172839506172839,0,0)" xlink:href="#aa"/><use transform="matrix(0.06172839506172839,0,0,0.06172839506172839,6.172839506172839,0)" xlink:href="#Y"/><use transform="matrix(0.06172839506172839,0,0,0.06172839506172839,18.51851851851852,0)" xlink:href="#ab"/><use transform="matrix(0.06172839506172839,0,0,0.06172839506172839,30.864197530864196,0)" xlink:href="#X"/><use transform="matrix(0.06172839506172839,0,0,0.06172839506172839,43.20987654320987,0)" xlink:href="#ac"/></g><path fill="#333" d="M33 0v-248h34V0H33" id="ad"/><path fill="#333" d="M115-194c55 1 70 41 70 98S169 2 115 4C84 4 66-9 55-30l1 105H24l-1-265h31l2 30c10-21 28-34 59-34zm-8 174c40 0 45-34 45-75s-6-73-45-74c-42 0-51 32-51 76 0 43 10 73 51 73" id="ae"/><g id="e"><use transform="matrix(0.06172839506172839,0,0,0.06172839506172839,0,0)" xlink:href="#ad"/><use transform="matrix(0.06172839506172839,0,0,0.06172839506172839,6.172839506172839,0)" xlink:href="#X"/><use transform="matrix(0.06172839506172839,0,0,0.06172839506172839,18.51851851851852,0)" xlink:href="#ae"/><use transform="matrix(0.06172839506172839,0,0,0.06172839506172839,30.864197530864196,0)" xlink:href="#ab"/><use transform="matrix(0.06172839506172839,0,0,0.06172839506172839,43.20987654320987,0)" xlink:href="#Z"/></g><path fill="#333" d="M135-143c-3-34-86-38-87 0 15 53 115 12 119 90S17 21 10-45l28-5c4 36 97 45 98 0-10-56-113-15-118-90-4-57 82-63 122-42 12 7 21 19 24 35" id="af"/><path fill="#333" d="M141-36C126-15 110 5 73 4 37 3 15-17 15-53c-1-64 63-63 125-63 3-35-9-54-41-54-24 1-41 7-42 31l-33-3c5-37 33-52 76-52 45 0 72 20 72 64v82c-1 20 7 32 28 27v20c-31 9-61-2-59-35zM48-53c0 20 12 33 32 33 41-3 63-29 60-74-43 2-92-5-92 41" id="ag"/><path fill="#333" d="M114-163C36-179 61-72 57 0H25l-1-190h30c1 12-1 29 2 39 6-27 23-49 58-41v29" id="ah"/><path fill="#333" d="M96-169c-40 0-48 33-48 73s9 75 48 75c24 0 41-14 43-38l32 2c-6 37-31 61-74 61-59 0-76-41-82-99-10-93 101-131 147-64 4 7 5 14 7 22l-32 3c-4-21-16-35-41-35" id="ai"/><g id="f"><use transform="matrix(0.06172839506172839,0,0,0.06172839506172839,0,0)" xlink:href="#af"/><use transform="matrix(0.06172839506172839,0,0,0.06172839506172839,11.11111111111111,0)" xlink:href="#R"/><use transform="matrix(0.06172839506172839,0,0,0.06172839506172839,23.45679012345679,0)" xlink:href="#ag"/><use transform="matrix(0.06172839506172839,0,0,0.06172839506172839,35.80246913580247,0)" xlink:href="#ah"/><use transform="matrix(0.06172839506172839,0,0,0.06172839506172839,43.148148148148145,0)" xlink:href="#ai"/><use transform="matrix(0.06172839506172839,0,0,0.06172839506172839,54.25925925925925,0)" xlink:href="#O"/></g><g id="g"><use transform="matrix(0.06172839506172839,0,0,0.06172839506172839,0,0)" xlink:href="#S"/><use transform="matrix(0.06172839506172839,0,0,0.06172839506172839,12.345679012345679,0)" xlink:href="#T"/><use transform="matrix(0.06172839506172839,0,0,0.06172839506172839,24.691358024691358,0)" xlink:href="#U"/><use transform="matrix(0.06172839506172839,0,0,0.06172839506172839,30.864197530864196,0)" xlink:href="#V"/><use transform="matrix(0.06172839506172839,0,0,0.06172839506172839,44.382716049382715,0)" xlink:href="#W"/></g><g id="h"><use transform="matrix(0.06172839506172839,0,0,0.06172839506172839,0,0)" xlink:href="#P"/><use transform="matrix(0.06172839506172839,0,0,0.06172839506172839,4.876543209876543,0)" xlink:href="#aa"/></g><path fill="#333" d="M18-100v-36l175-74v27L42-118l151 64v27" id="aj"/><use transform="matrix(0.06172839506172839,0,0,0.06172839506172839,0,0)" xlink:href="#aj" id="i"/><path fill="#333" d="M220-157c-53 9-28 100-34 157h-49v-107c1-27-5-49-29-50C55-147 81-57 75 0H25l-1-190h47c2 12-1 28 3 38 10-53 101-56 108 0 13-22 24-43 59-42 82 1 51 116 57 194h-49v-107c-1-25-5-48-29-50" id="ak"/><path fill="#333" d="M25-224v-37h50v37H25zM25 0v-190h50V0H25" id="al"/><path fill="#333" d="M88-194c31-1 46 15 58 34l-1-101h50l1 261h-48c-2-10 0-23-3-31C134-8 116 4 84 4 32 4 16-41 15-95c0-56 19-97 73-99zm17 164c33 0 40-30 41-66 1-37-9-64-41-64s-38 30-39 65c0 43 13 65 39 65" id="am"/><path fill="#333" d="M147 0H94L2-248h55l64 206c17-72 42-137 63-206h54" id="an"/><g id="j"><use transform="matrix(0.06172839506172839,0,0,0.06172839506172839,0,0)" xlink:href="#ak"/><use transform="matrix(0.06172839506172839,0,0,0.06172839506172839,19.753086419753085,0)" xlink:href="#al"/><use transform="matrix(0.06172839506172839,0,0,0.06172839506172839,25.925925925925924,0)" xlink:href="#am"/><use transform="matrix(0.06172839506172839,0,0,0.06172839506172839,39.44444444444444,0)" xlink:href="#an"/><use transform="matrix(0.06172839506172839,0,0,0.06172839506172839,53.02469135802468,0)" xlink:href="#T"/><use transform="matrix(0.06172839506172839,0,0,0.06172839506172839,65.37037037037037,0)" xlink:href="#U"/><use transform="matrix(0.06172839506172839,0,0,0.06172839506172839,71.5432098765432,0)" xlink:href="#V"/><use transform="matrix(0.06172839506172839,0,0,0.06172839506172839,85.06172839506172,0)" xlink:href="#W"/></g><path fill="#333" d="M63-220v92h138v28H63V0H30v-248h175v28H63" id="ao"/><g id="k"><use transform="matrix(0.06172839506172839,0,0,0.06172839506172839,0,0)" xlink:href="#ao"/><use transform="matrix(0.06172839506172839,0,0,0.06172839506172839,13.518518518518517,0)" xlink:href="#P"/><use transform="matrix(0.06172839506172839,0,0,0.06172839506172839,18.39506172839506,0)" xlink:href="#X"/><use transform="matrix(0.06172839506172839,0,0,0.06172839506172839,30.74074074074074,0)" xlink:href="#ac"/></g><g id="l"><use transform="matrix(0.06172839506172839,0,0,0.06172839506172839,0,0)" xlink:href="#ak"/><use transform="matrix(0.06172839506172839,0,0,0.06172839506172839,19.753086419753085,0)" xlink:href="#al"/><use transform="matrix(0.06172839506172839,0,0,0.06172839506172839,25.925925925925924,0)" xlink:href="#am"/><use transform="matrix(0.06172839506172839,0,0,0.06172839506172839,39.44444444444444,0)" xlink:href="#an"/><use transform="matrix(0.06172839506172839,0,0,0.06172839506172839,53.02469135802468,0)" xlink:href="#T"/><use transform="matrix(0.06172839506172839,0,0,0.06172839506172839,65.37037037037037,0)" xlink:href="#U"/><use transform="matrix(0.06172839506172839,0,0,0.06172839506172839,71.5432098765432,0)" xlink:href="#V"/><use transform="matrix(0.06172839506172839,0,0,0.06172839506172839,85.06172839506172,0)" xlink:href="#W"/></g><g id="m"><use transform="matrix(0.06172839506172839,0,0,0.06172839506172839,0,0)" xlink:href="#Y"/><use transform="matrix(0.06172839506172839,0,0,0.06172839506172839,12.345679012345679,0)" xlink:href="#aa"/></g><g id="n"><use transform="matrix(0.06172839506172839,0,0,0.06172839506172839,0,0)" xlink:href="#Q"/><use transform="matrix(0.06172839506172839,0,0,0.06172839506172839,4.876543209876543,0)" xlink:href="#P"/><use transform="matrix(0.06172839506172839,0,0,0.06172839506172839,9.753086419753085,0)" xlink:href="#af"/><use transform="matrix(0.06172839506172839,0,0,0.06172839506172839,20.864197530864196,0)" xlink:href="#Z"/></g><path fill="#333" d="M146-102V0H94v-102L6-248h54l60 105 60-105h54" id="ap"/><path fill="#333" d="M137-138c1-29-70-34-71-4 15 46 118 7 119 86 1 83-164 76-172 9l43-7c4 19 20 25 44 25 33 8 57-30 24-41C81-84 22-81 20-136c-2-80 154-74 161-7" id="aq"/><g id="o"><use transform="matrix(0.04938271604938272,0,0,0.04938271604938272,0,0)" xlink:href="#ap"/><use transform="matrix(0.04938271604938272,0,0,0.04938271604938272,10.864197530864198,0)" xlink:href="#W"/><use transform="matrix(0.04938271604938272,0,0,0.04938271604938272,20.74074074074074,0)" xlink:href="#aq"/></g><path fill="#333" d="M76-208v77h127v40H76V0H24v-248h183v40H76" id="ar"/><g id="p"><use transform="matrix(0.04938271604938272,0,0,0.04938271604938272,0,0)" xlink:href="#ar"/><use transform="matrix(0.04938271604938272,0,0,0.04938271604938272,10.814814814814815,0)" xlink:href="#T"/><use transform="matrix(0.04938271604938272,0,0,0.04938271604938272,20.69135802469136,0)" xlink:href="#U"/><use transform="matrix(0.04938271604938272,0,0,0.04938271604938272,25.629629629629633,0)" xlink:href="#aq"/><use transform="matrix(0.04938271604938272,0,0,0.04938271604938272,35.50617283950618,0)" xlink:href="#W"/></g><path fill="#333" d="M136-208V0H84v-208H4v-40h212v40h-80" id="as"/><path fill="#333" d="M135-150c-39-12-60 13-60 57V0H25l-1-190h47c2 13-1 29 3 40 6-28 27-53 61-41v41" id="at"/><g id="q"><use transform="matrix(0.04938271604938272,0,0,0.04938271604938272,0,0)" xlink:href="#as"/><use transform="matrix(0.04938271604938272,0,0,0.04938271604938272,9.82716049382716,0)" xlink:href="#at"/><use transform="matrix(0.04938271604938272,0,0,0.04938271604938272,16.74074074074074,0)" xlink:href="#V"/><use transform="matrix(0.04938271604938272,0,0,0.04938271604938272,27.555555555555557,0)" xlink:href="#W"/></g><path fill="#333" d="M18-27v-27l151-64-151-65v-27l175 74v36" id="au"/><use transform="matrix(0.06172839506172839,0,0,0.06172839506172839,0,0)" xlink:href="#au" id="r"/><path fill="#333" d="M18-150v-26h174v26H18zm0 90v-26h174v26H18" id="av"/><g id="s"><use transform="matrix(0.06172839506172839,0,0,0.06172839506172839,0,0)" xlink:href="#av"/><use transform="matrix(0.06172839506172839,0,0,0.06172839506172839,12.962962962962962,0)" xlink:href="#av"/></g><path fill="#333" d="M194 0L95-120 63-95V0H30v-248h33v124l119-124h40L117-140 236 0h-42" id="aw"/><g id="t"><use transform="matrix(0.06172839506172839,0,0,0.06172839506172839,0,0)" xlink:href="#aw"/><use transform="matrix(0.06172839506172839,0,0,0.06172839506172839,14.814814814814813,0)" xlink:href="#R"/><use transform="matrix(0.06172839506172839,0,0,0.06172839506172839,27.160493827160494,0)" xlink:href="#R"/><use transform="matrix(0.06172839506172839,0,0,0.06172839506172839,39.50617283950617,0)" xlink:href="#ae"/></g><path fill="#333" d="M30 0v-248h33v221h125V0H30" id="ax"/><g id="u"><use transform="matrix(0.06172839506172839,0,0,0.06172839506172839,0,0)" xlink:href="#ax"/><use transform="matrix(0.06172839506172839,0,0,0.06172839506172839,12.345679012345679,0)" xlink:href="#P"/><use transform="matrix(0.06172839506172839,0,0,0.06172839506172839,17.22222222222222,0)" xlink:href="#af"/><use transform="matrix(0.06172839506172839,0,0,0.06172839506172839,28.333333333333332,0)" xlink:href="#Z"/></g><g id="v"><use transform="matrix(0.06172839506172839,0,0,0.06172839506172839,0,0)" xlink:href="#Y"/><use transform="matrix(0.06172839506172839,0,0,0.06172839506172839,12.345679012345679,0)" xlink:href="#X"/></g><g id="w"><use transform="matrix(0.06172839506172839,0,0,0.06172839506172839,0,0)" xlink:href="#Q"/><use transform="matrix(0.06172839506172839,0,0,0.06172839506172839,4.876543209876543,0)" xlink:href="#R"/><use transform="matrix(0.06172839506172839,0,0,0.06172839506172839,17.22222222222222,0)" xlink:href="#aa"/><use transform="matrix(0.06172839506172839,0,0,0.06172839506172839,23.39506172839506,0)" xlink:href="#Z"/></g><path fill="#333" d="M210-169c-67 3-38 105-44 169h-31v-121c0-29-5-50-35-48C34-165 62-65 56 0H25l-1-190h30c1 10-1 24 2 32 10-44 99-50 107 0 11-21 27-35 58-36 85-2 47 119 55 194h-31v-121c0-29-5-49-35-48" id="ay"/><path fill="#333" d="M108 0H70L1-190h34L89-25l56-165h34" id="az"/><g id="x"><use transform="matrix(0.06172839506172839,0,0,0.06172839506172839,0,0)" xlink:href="#ah"/><use transform="matrix(0.06172839506172839,0,0,0.06172839506172839,7.345679012345679,0)" xlink:href="#R"/><use transform="matrix(0.06172839506172839,0,0,0.06172839506172839,19.691358024691358,0)" xlink:href="#ay"/><use transform="matrix(0.06172839506172839,0,0,0.06172839506172839,38.148148148148145,0)" xlink:href="#Y"/><use transform="matrix(0.06172839506172839,0,0,0.06172839506172839,50.49382716049382,0)" xlink:href="#az"/><use transform="matrix(0.06172839506172839,0,0,0.06172839506172839,61.60493827160494,0)" xlink:href="#R"/></g><path fill="#333" d="M177-190C167-65 218 103 67 71c-23-6-38-20-44-43l32-5c15 47 100 32 89-28v-30C133-14 115 1 83 1 29 1 15-40 15-95c0-56 16-97 71-98 29-1 48 16 59 35 1-10 0-23 2-32h30zM94-22c36 0 50-32 50-73 0-42-14-75-50-75-39 0-46 34-46 75s6 73 46 73" id="aA"/><g id="y"><use transform="matrix(0.06172839506172839,0,0,0.06172839506172839,0,0)" xlink:href="#ah"/><use transform="matrix(0.06172839506172839,0,0,0.06172839506172839,7.345679012345679,0)" xlink:href="#P"/><use transform="matrix(0.06172839506172839,0,0,0.06172839506172839,12.222222222222221,0)" xlink:href="#aA"/><use transform="matrix(0.06172839506172839,0,0,0.06172839506172839,24.5679012345679,0)" xlink:href="#O"/><use transform="matrix(0.06172839506172839,0,0,0.06172839506172839,36.913580246913575,0)" xlink:href="#Z"/></g><g id="z"><use transform="matrix(0.06172839506172839,0,0,0.06172839506172839,0,0)" xlink:href="#ah"/><use transform="matrix(0.06172839506172839,0,0,0.06172839506172839,7.345679012345679,0)" xlink:href="#P"/><use transform="matrix(0.06172839506172839,0,0,0.06172839506172839,12.222222222222221,0)" xlink:href="#aA"/><use transform="matrix(0.06172839506172839,0,0,0.06172839506172839,24.5679012345679,0)" xlink:href="#O"/><use transform="matrix(0.06172839506172839,0,0,0.06172839506172839,36.913580246913575,0)" xlink:href="#Z"/></g><g id="A"><use transform="matrix(0.06172839506172839,0,0,0.06172839506172839,0,0)" xlink:href="#Q"/><use transform="matrix(0.06172839506172839,0,0,0.06172839506172839,4.876543209876543,0)" xlink:href="#R"/><use transform="matrix(0.06172839506172839,0,0,0.06172839506172839,17.22222222222222,0)" xlink:href="#aa"/><use transform="matrix(0.06172839506172839,0,0,0.06172839506172839,23.39506172839506,0)" xlink:href="#Z"/></g><path fill="#333" d="M30-248c118-7 216 8 213 122C240-48 200 0 122 0H30v-248zM63-27c89 8 146-16 146-99s-60-101-146-95v194" id="aB"/><path fill="#333" d="M179-190L93 31C79 59 56 82 12 73V49c39 6 53-20 64-50L1-190h34L92-34l54-156h33" id="aC"/><g id="B"><use transform="matrix(0.06172839506172839,0,0,0.06172839506172839,0,0)" xlink:href="#aB"/><use transform="matrix(0.06172839506172839,0,0,0.06172839506172839,15.987654320987653,0)" xlink:href="#P"/><use transform="matrix(0.06172839506172839,0,0,0.06172839506172839,20.864197530864196,0)" xlink:href="#af"/><use transform="matrix(0.06172839506172839,0,0,0.06172839506172839,31.975308641975307,0)" xlink:href="#ae"/><use transform="matrix(0.06172839506172839,0,0,0.06172839506172839,44.32098765432099,0)" xlink:href="#Q"/><use transform="matrix(0.06172839506172839,0,0,0.06172839506172839,49.19753086419753,0)" xlink:href="#ag"/><use transform="matrix(0.06172839506172839,0,0,0.06172839506172839,61.54320987654321,0)" xlink:href="#aC"/></g><path fill="#333" d="M118-107v75H92v-75H18v-26h74v-75h26v75h74v26h-74" id="aD"/><use transform="matrix(0.06172839506172839,0,0,0.06172839506172839,0,0)" xlink:href="#aD" id="C"/><path fill="#333" d="M109-170H84l-4-78h32zm-65 0H19l-4-78h33" id="aE"/><use transform="matrix(0.06172839506172839,0,0,0.06172839506172839,0,0)" xlink:href="#aE" id="D"/><path fill="#333" d="M63-70H37l-4-178h34zM33 0v-35h34V0H33" id="aF"/><g id="E"><use transform="matrix(0.06172839506172839,0,0,0.06172839506172839,0,0)" xlink:href="#aa"/><use transform="matrix(0.06172839506172839,0,0,0.06172839506172839,6.172839506172839,0)" xlink:href="#Y"/><use transform="matrix(0.06172839506172839,0,0,0.06172839506172839,18.51851851851852,0)" xlink:href="#ab"/><use transform="matrix(0.06172839506172839,0,0,0.06172839506172839,30.864197530864196,0)" xlink:href="#X"/><use transform="matrix(0.06172839506172839,0,0,0.06172839506172839,43.20987654320987,0)" xlink:href="#ac"/><use transform="matrix(0.06172839506172839,0,0,0.06172839506172839,55.55555555555555,0)" xlink:href="#aF"/><use transform="matrix(0.06172839506172839,0,0,0.06172839506172839,61.72839506172839,0)" xlink:href="#aE"/></g><path fill="#333" d="M185-189c-5-48-123-54-124 2 14 75 158 14 163 119 3 78-121 87-175 55-17-10-28-26-33-46l33-7c5 56 141 63 141-1 0-78-155-14-162-118-5-82 145-84 179-34 5 7 8 16 11 25" id="aG"/><g id="F"><use transform="matrix(0.06172839506172839,0,0,0.06172839506172839,0,0)" xlink:href="#aG"/><use transform="matrix(0.06172839506172839,0,0,0.06172839506172839,14.814814814814813,0)" xlink:href="#Z"/><use transform="matrix(0.06172839506172839,0,0,0.06172839506172839,20.98765432098765,0)" xlink:href="#ag"/><use transform="matrix(0.06172839506172839,0,0,0.06172839506172839,33.33333333333333,0)" xlink:href="#ah"/><use transform="matrix(0.06172839506172839,0,0,0.06172839506172839,40.679012345679006,0)" xlink:href="#Z"/></g><path fill="#333" d="M30 0v-248h187v28H63v79h144v27H63v87h162V0H30" id="aH"/><g id="G"><use transform="matrix(0.06172839506172839,0,0,0.06172839506172839,0,0)" xlink:href="#aH"/><use transform="matrix(0.06172839506172839,0,0,0.06172839506172839,14.814814814814813,0)" xlink:href="#X"/><use transform="matrix(0.06172839506172839,0,0,0.06172839506172839,27.160493827160494,0)" xlink:href="#ac"/></g><path fill="#333" d="M175 0L67-191c6 58 2 128 3 191H24v-248h59L193-55c-6-58-2-129-3-193h46V0h-61" id="aI"/><path fill="#333" d="M110-194c64 0 96 36 96 99 0 64-35 99-97 99-61 0-95-36-95-99 0-62 34-99 96-99zm-1 164c35 0 45-28 45-65 0-40-10-65-43-65-34 0-45 26-45 65 0 36 10 65 43 65" id="aJ"/><path fill="#333" d="M115-3C79 11 28 4 28-45v-112H4v-33h27l15-45h31v45h36v33H77v99c-1 23 16 31 38 25v30" id="aK"/><path fill="#333" d="M33-154v-36h34v36H33zM33 0v-36h34V0H33" id="aL"/><g id="H"><use transform="matrix(0.06172839506172839,0,0,0.06172839506172839,0,0)" xlink:href="#aI"/><use transform="matrix(0.06172839506172839,0,0,0.06172839506172839,15.987654320987653,0)" xlink:href="#aJ"/><use transform="matrix(0.06172839506172839,0,0,0.06172839506172839,29.50617283950617,0)" xlink:href="#aK"/><use transform="matrix(0.06172839506172839,0,0,0.06172839506172839,36.85185185185185,0)" xlink:href="#W"/><use transform="matrix(0.06172839506172839,0,0,0.06172839506172839,49.197530864197525,0)" xlink:href="#aL"/></g><path fill="#333" d="M140-251c81 0 123 46 123 126C263-46 219 4 140 4 59 4 17-45 17-125s42-126 123-126zm0 227c63 0 89-41 89-101s-29-99-89-99c-61 0-89 39-89 99S79-25 140-24" id="aM"/><g id="I"><use transform="matrix(0.06172839506172839,0,0,0.06172839506172839,0,0)" xlink:href="#aM"/><use transform="matrix(0.06172839506172839,0,0,0.06172839506172839,17.28395061728395,0)" xlink:href="#X"/><use transform="matrix(0.06172839506172839,0,0,0.06172839506172839,29.629629629629626,0)" xlink:href="#Q"/><use transform="matrix(0.06172839506172839,0,0,0.06172839506172839,34.50617283950617,0)" xlink:href="#aC"/></g><path fill="#333" d="M206 0h-36l-40-164L89 0H53L-1-190h32L70-26l43-164h34l41 164 42-164h31" id="aN"/><path fill="#333" d="M143 0L79-87 56-68V0H24v-261h32v163l83-92h37l-77 82L181 0h-38" id="aO"/><g id="J"><use transform="matrix(0.06172839506172839,0,0,0.06172839506172839,0,0)" xlink:href="#aN"/><use transform="matrix(0.06172839506172839,0,0,0.06172839506172839,15.987654320987653,0)" xlink:href="#Y"/><use transform="matrix(0.06172839506172839,0,0,0.06172839506172839,28.333333333333332,0)" xlink:href="#ah"/><use transform="matrix(0.06172839506172839,0,0,0.06172839506172839,35.67901234567901,0)" xlink:href="#aO"/><use transform="matrix(0.06172839506172839,0,0,0.06172839506172839,46.79012345679013,0)" xlink:href="#af"/></g><g id="K"><use transform="matrix(0.06172839506172839,0,0,0.06172839506172839,0,0)" xlink:href="#Y"/><use transform="matrix(0.06172839506172839,0,0,0.06172839506172839,12.345679012345679,0)" xlink:href="#X"/></g><use transform="matrix(0.06172839506172839,0,0,0.06172839506172839,0,0)" xlink:href="#ag" id="L"/><g id="M"><use transform="matrix(0.06172839506172839,0,0,0.06172839506172839,0,0)" xlink:href="#af"/><use transform="matrix(0.06172839506172839,0,0,0.06172839506172839,11.11111111111111,0)" xlink:href="#Y"/><use transform="matrix(0.06172839506172839,0,0,0.06172839506172839,23.45679012345679,0)" xlink:href="#ah"/><use transform="matrix(0.06172839506172839,0,0,0.06172839506172839,30.80246913580247,0)" xlink:href="#Z"/><use transform="matrix(0.06172839506172839,0,0,0.06172839506172839,36.97530864197531,0)" xlink:href="#R"/><use transform="matrix(0.06172839506172839,0,0,0.06172839506172839,49.32098765432099,0)" xlink:href="#ac"/></g></defs></g></svg>