<svg id="Layer_1" data-name="Layer 1" xmlns="http://www.w3.org/2000/svg" xmlns:xlink="http://www.w3.org/1999/xlink" viewBox="0 0 1293.21 536.48"><defs><style>.cls-1{fill:none;}.cls-2{clip-path:url(#clip-path);}.cls-3{fill:#47aba6;}.cls-4{clip-path:url(#clip-path-2);}.cls-5{font-size:30px;font-family:MuseoSans-700, Museo Sans;font-weight:700;}.cls-11,.cls-5{fill:#464775;}.cls-6{clip-path:url(#clip-path-3);}.cls-7{fill:#e5c721;}.cls-8{clip-path:url(#clip-path-4);}.cls-9{letter-spacing:0em;}.cls-10{clip-path:url(#clip-path-5);}.cls-12{clip-path:url(#clip-path-6);}.cls-13{letter-spacing:0em;}</style><clipPath id="clip-path" transform="translate(-1 -1)"><rect class="cls-1" width="170.87" height="437.97"/></clipPath><clipPath id="clip-path-2" transform="translate(-1 -1)"><rect class="cls-1" x="26.35" y="493.98" width="124.06" height="54"/></clipPath><clipPath id="clip-path-3" transform="translate(-1 -1)"><rect class="cls-1" x="496.73" y="74.62" width="301.74" height="278.06"/></clipPath><clipPath id="clip-path-4" transform="translate(-1 -1)"><rect class="cls-1" x="575.56" y="493.98" width="149.98" height="54"/></clipPath><clipPath id="clip-path-5" transform="translate(-1 -1)"><rect class="cls-1" x="1124.33" y="179.95" width="170.87" height="78.06"/></clipPath><clipPath id="clip-path-6" transform="translate(-1 -1)"><rect class="cls-1" x="1144.79" y="493.98" width="135.85" height="54"/></clipPath></defs><g class="cls-2"><path class="cls-3" d="M40.33,123.72a2.12,2.12,0,0,1,2.49,1.57c1.09,5.24,1.08,12.36,1.84,20.32,1.2,12.55,3.28,25.08,2.73,32.5-.22,3.71.11,7.21,0,7.53,0,0-3.82,3.82-5.45,4.37-2.4.65-4.82,2.83-5.25,2.18-3.06-5.67-10.89-36.66-11.77-41.46.44-2.73.77-6.56,1-8.53a4.2,4.2,0,0,1,.85-2.28c2.08-3,8.3-12,12.55-15.72A2.13,2.13,0,0,1,40.33,123.72Zm86.85-.3a9.06,9.06,0,0,1,2.59,2.21c7.63,8.51,13.62,13.75,14.39,16.37.54,4.69,1,10,1,10s-6.86,31.56-10,34c-2,1.64-9.92-3.61-14.29-3.07,0-5.45.11-10.58.55-20.73.55-12.22,3-30.55,3.48-36C125.13,123.34,126.13,123,127.18,123.42ZM81.59,1.18A26.28,26.28,0,0,0,67.78,7.7c-8.51,7.42-5.22,23.11-5.22,23.11s-2.83,0-1.09,7.44c1.09,4.69.33,5.77,3.82,7.29.88,5.68,3.58,6,3.58,15.93,0,.11-2.15-.1-3.68,3.06-.44.88-.88,3.81-2.63,4.57-7.74,3.71-25.1,7.55-29.35,11.8-6,6-30.76,53-30.76,57.62,0,7.09-.57,11.88,1,15.48,6.55,15.28,14.42,40.58,24.24,52.58a15.73,15.73,0,0,0,7.09,4.6c3.28,1.09,8.84,3.49,8.73,5.46-1.09,17.67-3.27,60-4.91,80.19-1.09,13.2-2,28.26-2.73,37.64-1.31,16.15-1.63,35.13-6,55.1-2,9.16-5.45,21.27-3.27,21.27C23.29,418.92,10.73,423.28,4.4,425A4.55,4.55,0,0,0,1,429.94l.21,1.4c.11,1.74,2.32,2.42,2.86,2.42,3.49.65,14.27,2.38,22.13-.79,9.16-3.6,20.85-1.18,29.9-2.38,2.73-.33,3.07-10.06,2-14.53a4.25,4.25,0,0,0-1-1.94l.44.75c4.59.43,9.26-50.84,12.21-92.3,1.31-17.46,10.15-55.64,13-68.19a1.07,1.07,0,0,1,2.08,0c1.74,9.93,4,31.09,6.41,45.82.54,3.39,2.2,16.37,2.42,24.55.87,25.1-1.64,78.55,1.74,85.31,0,0-.75,10.27-4,17.8-4.59,10.58,17.88,10.68,24.2,6.65,8.19-5.13,3.29-14.18,3.62-18.11.76-3.49,2.4-3.49,3.27-10.91,2.51-22.47.33-50.84.55-73.65.11-7.52,2.93-22,2.93-42.34s0-38.52-1.3-56.74c-.87-12,3.06-12.74-.54-28.13,12.54,1.31,14.17.22,18.2-4.91,10.59-13.74,22.28-44.94,24.35-50.29,4-.87,3.8-9.63,1.84-16-.55-1.64-3-1.4-3.48-3-3.38-12.76-24.87-42.22-28.37-48.55-3.05-5.57-23.46-9.62-30.44-12.34a5.58,5.58,0,0,1-2.73-2.73c-.22-.44-.33-.86-.55-1.3-1.85-4-4.46-3.92-4.46-3.92-.33-3.05-.58-5.58.41-7.33A39.93,39.93,0,0,0,102.05,46c1.53-.33,2.74-.13,4.16-5.8.54-2.51,2.92-9.16-.79-9.38.77-4.58,3.17-20.81-6.1-24.31-2.73-1-2.82-2.42-4-3A24.45,24.45,0,0,0,81.59,1.18Z" transform="translate(-1 -1)"/></g><g class="cls-4"><text class="cls-5" transform="translate(34.85 530.18)">CLIENT</text></g><g class="cls-6"><path class="cls-7" d="M775.91,317.79a2.81,2.81,0,0,1,.29,0A12.56,12.56,0,1,1,764,327l9.4,7.06a5.93,5.93,0,0,0,3.58,1.33,4.76,4.76,0,0,0,3.15-1.21,5.58,5.58,0,0,0,.71-7.61l-5-6.06Zm-221-.34h.22v2.84L550,326.61a5.57,5.57,0,0,0,.69,7.59,4.81,4.81,0,0,0,3.17,1.21,5.85,5.85,0,0,0,3.56-1.31l9.68-7.27a12.27,12.27,0,0,1,.43,3.24,12.62,12.62,0,1,1-12.62-12.62Zm66.86-76.59v33.85a31.23,31.23,0,0,0,9.71,22.64H576l19-52.26Zm-26.17-45.5,9.78,39.3L595,236.31l-12.09-40Zm19.47-1.53,8.37,38L609.88,234,600.2,195Zm19.32-1.5L641.51,229l-13.57,2.15-8.3-37.64Zm19.34-1.51,5.84,35.3L646,228.27,638.93,192ZM673,189.35l4.63,33.91-13.6,2.15-5.79-34.92Zm19-1.51,3.65,32.58-13.57,2.13L677.57,189Zm19.51-1.5,2.29,31.22-13.64,2.15-3.62-32.2Zm19-1.48L732,214.7l-13.6,2.15L716.12,186Zm19.66-1.52-.07,28.5L736.48,214l-1.35-29.48Zm17-1.32v27.12l-12.54,2,.07-28.14Zm-12.4-31.15,12.4.27v26.33l-12.45.95Zm-21.32-.43,16.79.34-.07,28L734.91,180ZM713.47,150l15.5.34,1.41,30-14.6,1.12Zm-21.11-.45,16.55.36,2.34,31.89L696.1,183Zm-20.23-.43,15.65.34,3.79,33.87L677,184.48Zm-20.77-.43,16.17.34,4.89,35.77L657.54,186Zm-20.92-.43,16.29.34L653,186.34l-14.93,1.15Zm-20.87-.45,16.22.36,7.7,39.66L618.66,189Zm-21.23-.43,16.56.33,9.18,41.65-15,1.14ZM568,147l15.67.31,10.86,43.6-12.93,1Zm186.95-24.88,12.33,1.24V146.6l-12.38-.26Zm-22.82-2.31,18.27,1.86,0,24.62-17-.36Zm-21-2.12,16.43,1.67,1.22,26.47-15.63-.33Zm-22.59-2.29,18,1.81,2.08,28.19L691.83,145Zm-21.28-2.15,16.65,1.67,3.37,30-15.75-.33ZM645.11,111l17.48,1.76,4.32,31.75-16.31-.33Zm-22.37-2.27,17.67,1.79L646,144.05l-16.45-.36Zm-22.28-2.26L618,108.2l6.87,35.4-16.31-.34Zm-22.87-2.32,18.1,1.84,8.2,37.21-16.67-.36Zm-23.31-2.36,18.51,1.86,9.71,39.1-15.91-.34ZM508.44,84.28l.19,0c5.72.58,21.77,2.21,26.17,2.68A9.29,9.29,0,0,1,542,91.79l-33.79-3.43a2,2,0,0,1,.21-4.08Zm-.05-8.66a10.49,10.49,0,0,0-6.87,2.53A10.74,10.74,0,0,0,507.37,97L545,100.81l42.36,140-20.54,56.56h-7.32a4.32,4.32,0,0,0-4.34,4.31v7.11h-.22a21.29,21.29,0,1,0,21.28,21.3,21,21,0,0,0-1.86-8.68l2.31-1.74V306h177.6v13.65l2.58,2a21,21,0,0,0-1.91,8.8,21.29,21.29,0,1,0,21.3-21.3h-.29v-7.44a4.32,4.32,0,0,0-4.34-4.31H653.05a22.67,22.67,0,0,1-22.63-22.64V239.48l145.49-22.94v-101L551.56,92.77l-.5-1.72a18,18,0,0,0-15.33-12.69c-5.72-.61-18.9-1.93-26.24-2.67C509.13,75.66,508.76,75.62,508.39,75.62Z" transform="translate(-1 -1)"/></g><g class="cls-8"><text class="cls-5" transform="translate(584.06 530.18)">SUBJ<tspan class="cls-9" x="74.28" y="0">E</tspan><tspan x="91.44" y="0">CT</tspan></text></g><g class="cls-10"><path class="cls-11" d="M1128.83,237.68l-3.34,12.89,0,0a1.45,1.45,0,0,0,.2,1.54,35.19,35.19,0,0,0,5.09,4.43c4,.11,8.41.19,13,.25V255h4.45v1.9l8.11.07v-2h4.45v2c2.68,0,5.39,0,8.11,0v-2h4.45v2h8.11v-2h4.45v2l8.11,0v-2h4.45v2l8.11-.06V255H1211v1.89l8.11-.07V255h4.45v1.78l8.11-.08V255h4.45v1.66c3.75,0,6.4-.06,7.66-.06V255h4.43v1.57c2.36,0,5-.1,7.65-.25l-.16-1.53,4.41-.42.19,1.62a83,83,0,0,0,8.45-1.19l-.44-1.69,4.32-1,.44,1.65c7.41-2,13.64-5.61,15.93-11.76l-2.1.47s-2.1.38-2.49.52c-8.92,1.76-23.35,3.72-44.7,3.72h-1.66c-17.71-.08-24.22-1.84-30-3.41-6.13-1.66-11.92-3.25-30.53-2.44C1150.66,242,1135.27,239.29,1128.83,237.68ZM1190.44,181c-5.52.17-5.51,8-5.26,11.29,0,1.07.06,1.32.09,1.93a35.08,35.08,0,0,1-7.84,5.64,19,19,0,0,1-1.78.8,34.36,34.36,0,0,1-11.41,2.26,21.42,21.42,0,0,1-9.06-1.28l-1.4-.66c-6.9-3.71-7.26-11.41-10.4-12.75l0-.09a10.29,10.29,0,0,0-2.41-.5,5,5,0,0,0-4.07,1.18,73.36,73.36,0,0,0-8.45,12.75c-2,4.37-1.06,7.37.65,8.89-1.9,7.79-2.68,16.82-.4,25.66,5.87,1.48,21.47,4.43,48.8,3.25h.32l1.56-.06c14.46-.52,20.85.45,26.07,1.75l1.47.38,1.59.44c5.93,1.61,12.06,3.27,29.57,3.35,29,.14,45.44-3.34,52.84-5.23,6.82-5.18,1.64-16.17-3.58-17a4.52,4.52,0,0,0-1.89.12c-4.71-1.06-14.76-3.68-22.48-6l-1.46-.44h0a75.44,75.44,0,0,1-7.39-2.54v0s-1.86-.82-4.29-1.86l-2.22-1,.69-1.52a2.33,2.33,0,0,0-1.17-3.07l-1-.45a2.29,2.29,0,0,0-2.82.8l-5.3-2.78-1.62-.89a2.33,2.33,0,0,0-1.16-3l-1-.45a2.3,2.3,0,0,0-2.82.81l-1.75-.95s0,0,0,0l-2.9-1.54-1.79-.94a2.32,2.32,0,0,0-1.18-3l-1-.45a2.3,2.3,0,0,0-2.84.83l-1.62-.85v0l-2-1-.65-.34-.09,0-1.58-.79a2.32,2.32,0,0,0-1.18-3l-1-.45a2.31,2.31,0,0,0-2.93,1l-6.26-3.12a2.32,2.32,0,0,0-1.16-3.06l-1-.45a2.32,2.32,0,0,0-3,1l-1.73-.85h0l-.6-.29A10.5,10.5,0,0,0,1190.44,181Z" transform="translate(-1 -1)"/></g><g class="cls-12"><text class="cls-5" transform="translate(1153.29 530.18)">OBJ<tspan class="cls-13" x="60.15" y="0">E</tspan><tspan x="77.31" y="0">CT</tspan></text></g></svg>