<svg id="Layer_1" data-name="Layer 1" xmlns="http://www.w3.org/2000/svg" xmlns:xlink="http://www.w3.org/1999/xlink" viewBox="0 0 1920 1080"><defs><style>.cls-1,.cls-10,.cls-11,.cls-12,.cls-14,.cls-32,.cls-33,.cls-8,.cls-9{fill:none;}.cls-2{clip-path:url(#clip-path);}.cls-3{fill:#fff;}.cls-15,.cls-34,.cls-38,.cls-4,.cls-41{fill:#464775;}.cls-5{fill:#00a2ff;}.cls-6{fill:#e5c721;}.cls-7{fill:#0dae9a;}.cls-8,.cls-9{stroke:#e5c721;}.cls-10,.cls-12,.cls-8{stroke-width:6px;}.cls-11,.cls-14,.cls-32,.cls-33,.cls-9{stroke-width:5px;}.cls-10,.cls-11{stroke:#0dae9a;}.cls-12,.cls-14{stroke:#00a1ff;}.cls-13{fill:#00a1ff;}.cls-15{font-size:29px;}.cls-15,.cls-34,.cls-41{font-family:MuseoSansRounded-500, Museo Sans Rounded;}.cls-15,.cls-34,.cls-38,.cls-41{font-weight:500;}.cls-16{letter-spacing:0em;}.cls-17{letter-spacing:-0.03em;}.cls-18{letter-spacing:0em;}.cls-19{letter-spacing:-0.01em;}.cls-20{clip-path:url(#clip-path-2);}.cls-21{clip-path:url(#clip-path-3);}.cls-22{clip-path:url(#clip-path-4);}.cls-23{fill:#ce4d16;}.cls-24{clip-path:url(#clip-path-5);}.cls-25{clip-path:url(#clip-path-6);}.cls-26{letter-spacing:-0.03em;}.cls-27{letter-spacing:-0.01em;}.cls-28{clip-path:url(#clip-path-7);}.cls-29{clip-path:url(#clip-path-8);}.cls-30{clip-path:url(#clip-path-9);}.cls-31{clip-path:url(#clip-path-10);}.cls-32,.cls-33{stroke:#464775;}.cls-32{stroke-linecap:round;stroke-linejoin:round;stroke-dashoffset:0.5px;stroke-dasharray:0 15;}.cls-34,.cls-38,.cls-41{font-size:24px;}.cls-35{letter-spacing:0em;}.cls-36{letter-spacing:0em;}.cls-37{letter-spacing:-0.01em;}.cls-38{font-family:MuseoSansRounded-500Italic, Museo Sans Rounded;font-style:italic;}.cls-39{letter-spacing:-0.01em;}.cls-40{letter-spacing:-0.01em;}.cls-41{letter-spacing:0em;}.cls-42{letter-spacing:-0.02em;}.cls-43{letter-spacing:0em;}</style><clipPath id="clip-path"><rect class="cls-1" width="1920" height="1080"/></clipPath><clipPath id="clip-path-2"><rect class="cls-1" x="937.47" y="402.33" width="140.78" height="94.2"/></clipPath><clipPath id="clip-path-3"><rect class="cls-1" x="1106.83" y="549.78" width="140.78" height="94.2"/></clipPath><clipPath id="clip-path-4"><rect class="cls-1" x="937.47" y="549.78" width="140.78" height="94.2"/></clipPath><clipPath id="clip-path-5"><rect class="cls-1" x="1106.83" y="402.33" width="140.78" height="94.2"/></clipPath><clipPath id="clip-path-6"><rect class="cls-1" x="1108.02" y="497.01" width="138.4" height="52.28"/></clipPath><clipPath id="clip-path-7"><rect class="cls-1" x="939.96" y="497.01" width="135.79" height="52.28"/></clipPath><clipPath id="clip-path-8"><rect class="cls-1" x="938.7" y="644.79" width="138.32" height="52.28"/></clipPath><clipPath id="clip-path-9"><rect class="cls-1" x="1107.46" y="644.79" width="139.5" height="52.28"/></clipPath><clipPath id="clip-path-10"><rect class="cls-1" x="907.9" y="378.86" width="368.95" height="322.28"/></clipPath></defs><g class="cls-2"><rect class="cls-3" width="1920" height="1080"/><path class="cls-4" d="M202,477.18c.78-.14,1.53.19,1.7,1.83.14,1.18.57,3.27.85,5,.91,5.58,2.5,6.7,2.64,10.33.7,15.83-3,15.21-5.15,22.19-.34-.21-3.62.89-6.62,2.29-3.7-4.12-5.52-18.75-8.17-23.56-1.4-2.58,3.14-5.81,6.49-9.57,2.58-2.86,3.68-4.1,6.47-7.52A3.81,3.81,0,0,1,202,477.18ZM254.65,474a3.28,3.28,0,0,1,2.35,1c4,3.35,14.8,15.34,14.8,16.87,0,1.19-1.68,4.46-5.23,10.59-2.37,4.12-4.74,6.85-8,12-.21.35-1.55,2.71-3,2.57a15.13,15.13,0,0,1-4-1.87c-1.81-1.26-3.83-1-3.83-.76,0,.07-1.89-3.09-1.75-9.57.21-12.56,2.22-16.87,3.69-21.82C251.25,477.83,252.58,474.24,254.65,474ZM230,400.78c-3.14-.23-8.29.61-12.42,6.26-2.65,3.7-2,6.54-6.41,15.89-5.72,12.2,4,14.44-2.66,20.92-2.72,2.65-.7,7.13-.7,7.13-.55.21-1.53.14-2.09.35-2.86.7-6.42,1.66-9.28,6.47-4,6.77-13.8,20.92-21.12,32.43a1.52,1.52,0,0,1-.22.35,7.46,7.46,0,0,1-.41.76,6,6,0,0,0-.07,5.45c1.47,3,1.94,5.78,4,10.94s6.5,10.69,9.91,16.13c.84,1.4.76,2.57,2.92,5.71a3.61,3.61,0,0,0,2.45,1.53c1.88.14,3.77-.48,3.7-.2-1.05,7.81-.5,17.16.83,26.85.77,6.07,9.27,38.63,9.55,44.14a370.58,370.58,0,0,0,5.79,53.35c.14.63.43.92.63.92a4.17,4.17,0,0,1,1,.35c.07,5.16,1.59,3.91-.92,8-1.46,2.37-4.88,4.87-4.6,9.27a4.48,4.48,0,0,0,1.68,3.63c1.67,1.47,7.46,3.62,12.9-.5,2.79-2.09,1-6.06,1.59-7.73.77-2.1,1.81-3.28,1.12-8.37-.14-1-.62-2.92-.9-4.38.7-.28,1.24-.63,1.24-1,.07-5.65.15-8.67-.06-17.17-.21-6.35-.13-10.81-.48-17.44-.35-7.18-.84-6.42-1.4-13.6a56.69,56.69,0,0,1-.15-9.13l.63-10.75c.14-13.67.5-19,1.2-32.63.14-1.11.76-1.74,1.24-.63,3.84,8.58,5.65,13.11,8.72,21.41,2.44,6.62,8.45,23.86,8.87,27,.7,5.79,1.74,11.5,2.58,18.61,1.53,12.77,6.84,29.92,7.54,33.13a7.28,7.28,0,0,0,.41,1.46,2.73,2.73,0,0,0,1.53.44c.28,2.44.34,6.62-1.33,9.83-1.47,2.86,1,6.82,1,6.82a7.61,7.61,0,0,0,5.58,1.74,6.35,6.35,0,0,1,4.12,1.4,3.2,3.2,0,0,0,.42.28,28.61,28.61,0,0,0,14.51,1.74c3.28-.34,3.63-2.37,1.33-5.16-3.42-4.26-7.39-4.87-9.07-7.52-3.06-4.88-4.95-5.93-5.58-9.7.84-.28,1.33-.48,1.33-.48s-.42-6.43-.91-10.61c-1.26-11-1.68-18.61-2.09-24.61-.7-10.6-3.15-15.56-3.71-19-2.09-12.34-2.93-13.38-4.18-26.28-.21-2.37-1.19-19-2.79-28.82-.91-5.51-2.64-10.24-4-15.47.42,1.67.69-.7,2.23-1,3.35-.69,4.74-2.59,6.62-5,4.61-6.21,18.07-21.89,20.16-26.35.91-1.95,2.51-6.08,2.58-8.18.07-2.51-2.51-5.43-3.27-7.1a67.31,67.31,0,0,0-5.1-8.09c-3.7-5.09-5.57-6.36-10.94-12.7-.84-1-4.74-8.86-8.51-10.46-3.48-1.54-9.85-1.53-9.85-1.53.77-3-1.81-4.53-1.81-8,0-7.05,7.48-3.85.57-23.17-.7-1.88-2.1-10.52-6.78-13.38-.62-.42-2-.71-2.44-1.27a10.64,10.64,0,0,0-3.83-2.57A9.63,9.63,0,0,0,230,400.78Z"/><path class="cls-4" d="M531.27,455.14a3.27,3.27,0,0,0-3.27,3.13l-4.55,105.78h-17v34.27H485.17v26.54H740.63V598.32h-22V545.23H705.78v-41l-36.14,20v-20l-36.14,20v-20L586.91,530v34H575.34l-4.55-105.78a3.26,3.26,0,0,0-3.26-3.13h-5.62a3.28,3.28,0,0,0-3.28,3.13l-4.55,105.78H544.7l-4.53-105.78a3.27,3.27,0,0,0-3.27-3.13Z"/><path class="cls-5" d="M1729.15,769.79a3.87,3.87,0,1,1-3.86,3.86A3.86,3.86,0,0,1,1729.15,769.79Zm-63.21,0a3.87,3.87,0,1,1-3.87,3.86A3.87,3.87,0,0,1,1665.94,769.79Zm63.21-4.36a8.23,8.23,0,1,0,8.24,8.22A8.22,8.22,0,0,0,1729.15,765.43Zm-63.21,0a8.23,8.23,0,1,0,8.23,8.22A8.22,8.22,0,0,0,1665.94,765.43ZM1694.08,746h12.44a4.11,4.11,0,0,1,3.3,1.4l5.57,6.89c.39.48-.31,1.42-1.07,1.42h-19.1a1.18,1.18,0,0,1-1.2-1.07l-.82-7.68A.9.9,0,0,1,1694.08,746Zm-13.88,0h8.74a1,1,0,0,1,1,.91l.33,7.63a1.12,1.12,0,0,1-1.12,1.17h-14.56a1,1,0,0,1-1-1.41l3-6.09A4,4,0,0,1,1680.2,746Zm-2.53-2.69a8.25,8.25,0,0,0-4.75,1.51c-3.2,2.27-7.9,8-9.53,9a5.49,5.49,0,0,1-2.22.85l-10.09,2.14a3.39,3.39,0,0,0-3,3.38v4.17h-.43a1.88,1.88,0,0,0-1.88,1.87v7.64a1.88,1.88,0,0,0,1.88,1.87h8.46a10.45,10.45,0,0,1-.2-2,10,10,0,0,1,20.08,0,10.45,10.45,0,0,1-.2,2h43.54a10.45,10.45,0,0,1-.2-2,10,10,0,0,1,20.08,0,10.28,10.28,0,0,1-.23,2.16h9.71a1.87,1.87,0,0,0,1.86-1.88V766.3a1.86,1.86,0,0,0-1.86-1.88h-.45v-2.29a2.11,2.11,0,0,0-1.69-2.07c-4.58-.92-19.12-3.75-23.86-4.67a5.11,5.11,0,0,1-2.61-1.36l-9.2-9a6.88,6.88,0,0,0-4.92-1.78h-28.28Z"/><path class="cls-5" d="M1734.38,865.11a4.12,4.12,0,1,1-4.12,4.12A4.11,4.11,0,0,1,1734.38,865.11Zm-67.18,0a4.12,4.12,0,1,1-4.11,4.12A4.11,4.11,0,0,1,1667.2,865.11Zm67.18-4.62a8.74,8.74,0,1,0,8.75,8.74A8.74,8.74,0,0,0,1734.38,860.49Zm-67.18,0a8.74,8.74,0,1,0,8.74,8.74A8.74,8.74,0,0,0,1667.2,860.49Zm11.5-18.12h13.84a.43.43,0,0,1,.41.44l-.49,9.05a.65.65,0,0,1-.67.61h-14.37a.67.67,0,0,1-.64-.77l1.53-9A.39.39,0,0,1,1678.7,842.37Zm17.82,0h9.21a3,3,0,0,1,1.73.56l12.11,9a.32.32,0,0,1-.19.58h-22.11a.65.65,0,0,1-.67-.61l-.5-9A.44.44,0,0,1,1696.52,842.33Zm-35.75,0h13.78a.4.4,0,0,1,.39.53l-2.53,9.11a.66.66,0,0,1-.64.47h-16.54a.52.52,0,0,1-.47-.78l4.87-8.66A1.3,1.3,0,0,1,1660.77,842.33Zm-.92-3a3.21,3.21,0,0,0-2.53,1.25l-8,10.44a5.26,5.26,0,0,0-1.09,3.2v4.62a.48.48,0,0,1-.48.48,2,2,0,0,0-2,2v8.12a2,2,0,0,0,2,2h9a11.82,11.82,0,0,1-.22-2.17,10.67,10.67,0,1,1,21.33,0,11,11,0,0,1-.23,2.17h46.27a11,11,0,0,1-.21-2.17,10.66,10.66,0,1,1,21.07,2.28H1755a2,2,0,0,0,2-2v-5.49a4.84,4.84,0,0,0-.52-2.12l-2.73-5.06a1.84,1.84,0,0,0-1.48-1.09l-22.86-3.09a8.94,8.94,0,0,1-3.67-1.36L1709,840.52a7.31,7.31,0,0,0-3.93-1.16Z"/><path class="cls-5" d="M1747.53,967.18a4.29,4.29,0,1,1-4.29,4.29A4.31,4.31,0,0,1,1747.53,967.18Zm-74.81,0a4.29,4.29,0,1,1-4.29,4.29A4.31,4.31,0,0,1,1672.72,967.18Zm74.81-4.1a8.42,8.42,0,1,0,8.41,8.42A8.43,8.43,0,0,0,1747.53,963.08Zm-74.81,0a8.42,8.42,0,1,0,8.42,8.42A8.43,8.43,0,0,0,1672.72,963.08Zm50.57-30.26,3,.3a12.55,12.55,0,0,1,8,4l7.12,7.76a1.24,1.24,0,0,1-.94,2.05h-17.29a1.23,1.23,0,0,1-1.24-1.24V934.05A1.25,1.25,0,0,1,1723.29,932.82Zm-66.42-3a5.91,5.91,0,0,0-5.65,4.13c-2.77,8.6-2.92,23.39-2.92,26.77a.69.69,0,0,1-.7.69h-1.14a.7.7,0,0,0-.7.7v7.57a1.43,1.43,0,0,0,1.39,1.42l14.76.18a10.82,10.82,0,0,1,21.64.06l53.17.18a10.84,10.84,0,0,1,21.67,0v0l6.7-.18a1.42,1.42,0,0,0,1.38-1.45l-.2-8a.61.61,0,0,0-.58-.58h-.75a.57.57,0,0,1-.58-.57c0-1,0-4.35,0-6.28a2.07,2.07,0,0,0-1.33-1.92c-3-1.24-10.41-4.2-13.85-5.29a8.15,8.15,0,0,1-3.65-2.3c-2-2.2-5.77-6.15-8.57-9.23-4.08-4.53-9.78-6-20.28-6Z"/><path class="cls-6" d="M1739.89,340.58a4,4,0,1,1-4,4A4,4,0,0,1,1739.89,340.58Zm-58.8,0a4,4,0,1,1-4,4A4,4,0,0,1,1681.09,340.58Zm6.73-3.91a10.37,10.37,0,0,1,3.69,7.77h34.28v-7.77Zm-19.71,0-1.36,8.57-.73,4.5h3.72l1.13-7a10.29,10.29,0,0,1,3.48-6h-6.24Zm71.78-.61a8.57,8.57,0,1,0,8.57,8.57A8.57,8.57,0,0,0,1739.89,336.06Zm-58.8,0a8.57,8.57,0,1,0,8.56,8.57A8.57,8.57,0,0,0,1681.09,336.06Zm51.38-23.35h8.91a2.05,2.05,0,0,1,1.83,1.15l5.13,10.64a.89.89,0,0,1-.8,1.28h-3.22c-1,0-1.3-.5-1.89-1.26s-2.38-3.19-4.19-3.2h-5.83a1.15,1.15,0,0,1-1.16-1.15v-6.24A1.21,1.21,0,0,1,1732.47,312.71Zm-4.8-3.68v33.19h2.1a10.43,10.43,0,0,1,20.29,0h1.08a2.07,2.07,0,0,0,2.07-2.06V327.47a5,5,0,0,0-.44-1.93l-6.74-14.2a4,4,0,0,0-3.65-2.31ZM1659,290.72v43.95h66.76V296.32a5.62,5.62,0,0,0-5.6-5.6Z"/><path class="cls-6" d="M1790,243.59a3.73,3.73,0,0,1,3.73,3.74,3.79,3.79,0,0,1-3.73,3.73,3.74,3.74,0,0,1,0-7.47Zm-52.19,0a3.74,3.74,0,1,1-3.73,3.74A3.73,3.73,0,0,1,1737.81,243.59Zm-17.59,0a3.73,3.73,0,0,1,3.74,3.74,3.8,3.8,0,0,1-3.74,3.73,3.74,3.74,0,0,1,0-7.47Zm-76,0a3.72,3.72,0,0,1,3.72,3.74,3.78,3.78,0,0,1-3.72,3.73,3.74,3.74,0,0,1,0-7.47Zm-17.58,0a3.73,3.73,0,0,1,3.73,3.74,3.8,3.8,0,0,1-3.73,3.73,3.74,3.74,0,0,1,0-7.47ZM1790,239.47a7.91,7.91,0,1,0,7.92,7.9A7.88,7.88,0,0,0,1790,239.47Zm-52.19,0a7.91,7.91,0,1,0,7.9,7.9A7.88,7.88,0,0,0,1737.81,239.47Zm-17.59,0a7.91,7.91,0,1,0,7.92,7.9A7.88,7.88,0,0,0,1720.22,239.47Zm-76,0a7.91,7.91,0,1,0,7.91,7.9A7.9,7.9,0,0,0,1644.26,239.47Zm-17.58,0a7.91,7.91,0,1,0,7.9,7.9A7.89,7.89,0,0,0,1626.68,239.47Zm99-.21a10.13,10.13,0,0,1,3.32,3.83,9.88,9.88,0,0,1,3.33-3.83Zm-21.11,0-1.21,8.92h7.16c0-.26-.06-.56-.06-.81a9.78,9.78,0,0,1,4.28-8.11Zm64.23-23.77h8.47a1,1,0,0,1,1,.65l2.52,5.9a1.07,1.07,0,0,1-1,1.56h-11a1.12,1.12,0,0,1-1.1-1.12v-5.89A1.11,1.11,0,0,1,1768.79,215.49Zm-20.86-2.63v26.36h-4.62a9.74,9.74,0,0,1,4.33,8.11,4,4,0,0,1-.05.8h32.7c0-.25-.07-.55-.07-.8a9.78,9.78,0,1,1,19.56,0,4,4,0,0,1,0,.8h5.49a1.67,1.67,0,0,0,1.66-1.66v-7.21a1.62,1.62,0,0,0-1.66-1.55h-.31v-7.36a1.36,1.36,0,0,0-1.15-1.37l-17.84-5-5.24-10a2.11,2.11,0,0,0-1.81-1.12h-15.62v26.36h-2V212.86Zm2.32-17.08a2.32,2.32,0,0,0-2.32,2.33V211h32.4c1.51.06,1.61-1.56.6-2.77C1778.21,205.06,1762.94,195.78,1750.25,195.78Zm-144.89-6.14v47.91h136.07V189.64Z"/><path class="cls-6" d="M1737.79,140.52a4.38,4.38,0,1,1-4.38,4.37A4.36,4.36,0,0,1,1737.79,140.52Zm-39.35,0a4.38,4.38,0,1,1-4.38,4.37A4.36,4.36,0,0,1,1698.44,140.52Zm-22,0a4.38,4.38,0,1,1-4.38,4.37A4.37,4.37,0,0,1,1676.49,140.52Zm61.3-4.94a9.32,9.32,0,1,0,9.31,9.31A9.31,9.31,0,0,0,1737.79,135.58Zm-33,0a11.24,11.24,0,0,1,4.93,9.31h16.8a11.24,11.24,0,0,1,4.93-9.31Zm-6.34,0a9.32,9.32,0,1,0,9.31,9.31A9.31,9.31,0,0,0,1698.44,135.58Zm-15.61,0a11.32,11.32,0,0,1,4.63,6.75,11.32,11.32,0,0,1,4.63-6.75Zm-6.34,0a9.32,9.32,0,1,0,9.31,9.31A9.31,9.31,0,0,0,1676.49,135.58Zm60-25.83h6.68a2,2,0,0,1,1.84,1.21l4.58,10.51a.71.71,0,0,1-.65,1h-3a2.32,2.32,0,0,1-1.76-.8l-1-1.2a2.66,2.66,0,0,0-2-.9h-4.61a.7.7,0,0,1-.7-.71v-8.38A.7.7,0,0,1,1736.54,109.75Zm-8.47,0h3.54a.7.7,0,0,1,.69.71v8.38a.7.7,0,0,1-.69.71h-3.54a.7.7,0,0,1-.7-.71v-8.38A.7.7,0,0,1,1728.07,109.75Zm-4.23-4.13v27.86h13.5a11.24,11.24,0,0,1,10.15,6.41l.84,1.76h5.92a3.15,3.15,0,0,0,3.14-3.15v-2.93h-1.81a.79.79,0,0,1-.79-.79V124.66a6.6,6.6,0,0,0-.54-2.59l-6.2-14.14a3.84,3.84,0,0,0-3.52-2.31Zm-46.13-8.09-22.51,52H1662l4.28-9.87a10.24,10.24,0,0,1,9.4-6.17h45.84V101a3.46,3.46,0,0,0-3.45-3.46Zm-2.9,0c-32.23,12.19-33.14,35.09-31.52,46h-4.37v6h13.38Z"/><path class="cls-7" d="M1735.92,672.55a3.54,3.54,0,1,1-3.53,3.54A3.54,3.54,0,0,1,1735.92,672.55Zm-48.19,0a3.54,3.54,0,1,1-3.53,3.54A3.55,3.55,0,0,1,1687.73,672.55Zm23.49-58.38a12.51,12.51,0,0,0-2,.17s5.08,15.42-10.06,28.26c0,0-5.85,4.74-19.77,6.38,0,0-9.4,1.83-9.4,14.06a3.14,3.14,0,0,0,1.14,2.22l-4.39,4.72c-.34.62,1.64,2.34,4.42,3.85s5.3,2.24,5.64,1.62l1.91-7.63h0l.83-1.44h3.5l-.36,1.59a9.57,9.57,0,1,0,11.54,1.13l5.56-2.9h24.79l5.08,2.65a9.57,9.57,0,1,0,10.33-1.4l-.29-1.25h.2a3.39,3.39,0,0,0,1.93-3.15V614.41h-17a4,4,0,0,0-4,1.72A28.68,28.68,0,0,0,1711.22,614.17Z"/><path class="cls-7" d="M1712.33,577.23h6.78a3.62,3.62,0,0,1,.14.94,3.53,3.53,0,1,1-7.06,0A3.24,3.24,0,0,1,1712.33,577.23Zm-17.63,0h6.79a3.62,3.62,0,0,1,.14.94,3.54,3.54,0,1,1-7.07,0A3.62,3.62,0,0,1,1694.7,577.23Zm40.45-2.12a3.53,3.53,0,1,1-5.28,3.06,3.62,3.62,0,0,1,.14-.94h3.13a2,2,0,0,0,2-2Zm-55.67-.34v.44a2,2,0,0,0,2,2h2.3a3.62,3.62,0,0,1,.14.94,3.54,3.54,0,1,1-4.46-3.4Zm18.82-9.32h18.91l-1.19,3h-16.53Zm12.17-52.06a14,14,0,0,0-2,.16s5.09,15.44-10.06,28.29c0,0-5.86,4.75-19.79,6.39,0,0-9.41,1.82-9.41,14.07,0,0,0,3.15,4.36,3.15h11.16l-1.19,3h-2.08a1.89,1.89,0,0,0-.82.18l-.27,0a9.58,9.58,0,1,0,8.84,13.25,9.58,9.58,0,0,0,17.66.08,9.57,9.57,0,0,0,17.65-.08,9.57,9.57,0,1,0,9.42-13.22,2,2,0,0,0-.84-.19h-1.2l-1.2-3h8.44a3.39,3.39,0,0,0,1.94-3.15V513.63h-17a4,4,0,0,0-4.05,1.72A28.77,28.77,0,0,0,1710.47,513.39Z"/><path class="cls-7" d="M1736.34,459.11l-1.24.71v1.43l1.24.72,1.24-.72v-1.43Zm-60.44,0-1.24.71v1.43l1.24.72,1.24-.72v-1.43Zm60.44-.53a2,2,0,1,1-2,2A2,2,0,0,1,1736.34,458.58Zm-60.44,0a2,2,0,1,1-2,2A2,2,0,0,1,1675.9,458.58Zm61.56-4.81a1.55,1.55,0,0,1,1.06.34.15.15,0,0,1,0,.23l-2,2a.16.16,0,0,1-.23,0,1.56,1.56,0,0,1,1.13-2.54Zm-62.69,0a1.56,1.56,0,0,1,1.14,2.54.16.16,0,0,1-.23,0l-2-2a.15.15,0,0,1,0-.23A1.51,1.51,0,0,1,1674.77,453.77Zm-24.56-9.13a1.32,1.32,0,0,0-.2,2.57c3.37,1,13,3.72,19.4,4.18v.75a.43.43,0,0,0,.43.43h.55a.45.45,0,0,1,.38.22l2.25,4.64a4.24,4.24,0,1,0,7.12,3.11,4.18,4.18,0,0,0-1.24-3l1.63-4.67a.42.42,0,0,1,.41-.31h.63a.42.42,0,0,0,.42-.43v-.69h48.26v.69a.43.43,0,0,0,.43.43h.63a.41.41,0,0,1,.4.31l1.62,4.67a4.24,4.24,0,1,0,5.89-.12l2.25-4.64a.45.45,0,0,1,.38-.22h.55a.43.43,0,0,0,.43-.43v-.75c6.35-.46,16-3.19,19.4-4.18a1.32,1.32,0,0,0-.75-2.53c-3.76,1.1-14.56,4.11-20.31,4.11h-70.1c-5.75,0-16.55-3-20.32-4.11A1.41,1.41,0,0,0,1650.21,444.64Z"/><polyline class="cls-8" points="1021.54 343.14 1021.5 340.14 1020.21 229 1459.48 226.5"/><polygon class="cls-6" points="1009.5 340.28 1021.78 364.14 1033.5 340 1009.5 340.28"/><line class="cls-9" x1="1462.16" y1="320.4" x2="1462.16" y2="124.53"/><path class="cls-6" d="M1536.71,106.57a.2.2,0,0,0-.16.07l-22.24,22.23a.24.24,0,0,1-.33,0l-9.37-9.37a.24.24,0,0,0-.33,0l-4.5,4.51a.22.22,0,0,0,0,.33l9.53,9.54,3.27,3.27,1.4,1.4a.24.24,0,0,0,.33,0l27.08-27.07a.24.24,0,0,0,0-.33l-4.51-4.51A.28.28,0,0,0,1536.71,106.57Z"/><rect class="cls-9" x="1487.71" y="89.73" width="66.49" height="66.49"/><rect class="cls-9" x="1487.71" y="189.22" width="68.73" height="66.49"/><rect class="cls-9" x="1487.71" y="288.72" width="66.49" height="66.49"/><line class="cls-9" x1="1462.15" y1="126.6" x2="1487.34" y2="126.6"/><line class="cls-9" x1="1462.15" y1="226.09" x2="1487.34" y2="226.09"/><line class="cls-9" x1="1462.15" y1="320.59" x2="1487.34" y2="320.59"/><polyline class="cls-10" points="1314.56 455.18 1317.56 455.09 1340.36 454.41 1340.85 554.01 1458.01 554.6"/><polygon class="cls-7" points="1317.2 443.1 1293.57 455.81 1317.92 467.08 1317.2 443.1"/><line class="cls-11" x1="1460.69" y1="648.51" x2="1460.69" y2="452.64"/><path class="cls-7" d="M1532.75,632.85a.23.23,0,0,0-.17.07l-22.23,22.23a.24.24,0,0,1-.33,0l-9.37-9.37a.24.24,0,0,0-.33,0l-4.51,4.51a.24.24,0,0,0,0,.33l9.53,9.54,3.28,3.27,1.4,1.4a.22.22,0,0,0,.33,0l27.07-27.07a.22.22,0,0,0,0-.33l-4.5-4.51A.28.28,0,0,0,1532.75,632.85Z"/><rect class="cls-11" x="1486.24" y="417.83" width="66.49" height="66.49"/><rect class="cls-11" x="1486.24" y="517.33" width="68.73" height="66.49"/><rect class="cls-11" x="1486.24" y="616.82" width="66.49" height="66.49"/><line class="cls-11" x1="1460.69" y1="454.7" x2="1485.87" y2="454.7"/><line class="cls-11" x1="1460.69" y1="554.2" x2="1485.87" y2="554.2"/><line class="cls-11" x1="1460.69" y1="648.69" x2="1485.87" y2="648.69"/><polyline class="cls-12" points="1173.15 736.6 1173.17 739.6 1174.08 859.58 1458.48 859.38"/><polygon class="cls-13" points="1185.17 739.51 1172.99 715.6 1161.17 739.69 1185.17 739.51"/><line class="cls-14" x1="1461.13" y1="953.3" x2="1461.13" y2="757.43"/><path class="cls-13" d="M1536.06,842.93a.23.23,0,0,0-.17.07l-22.23,22.23a.24.24,0,0,1-.33,0l-9.37-9.37a.24.24,0,0,0-.33,0l-4.51,4.51a.24.24,0,0,0,0,.33l9.54,9.54,3.27,3.27,1.4,1.4a.22.22,0,0,0,.33,0l27.08-27.07a.24.24,0,0,0,0-.33l-4.51-4.51A.28.28,0,0,0,1536.06,842.93Z"/><rect class="cls-14" x="1486.69" y="722.63" width="66.49" height="66.49"/><rect class="cls-14" x="1486.69" y="822.12" width="68.73" height="66.49"/><rect class="cls-14" x="1486.69" y="921.62" width="66.49" height="66.49"/><line class="cls-14" x1="1461.13" y1="759.5" x2="1486.31" y2="759.5"/><line class="cls-14" x1="1461.13" y1="858.99" x2="1486.31" y2="858.99"/><line class="cls-14" x1="1461.13" y1="953.49" x2="1486.31" y2="953.49"/><text class="cls-15" transform="translate(499.33 675.47)">Abst<tspan class="cls-16" x="57.83" y="0">r</tspan><tspan x="68.03" y="0">act </tspan><tspan class="cls-17" x="115.59" y="0">F</tspan><tspan class="cls-18" x="129.28" y="0">ac</tspan><tspan class="cls-19" x="159.67" y="0">t</tspan><tspan x="169.44" y="0">ory</tspan></text></g><g class="cls-20"><path class="cls-6" d="M963.52,403.33a1.78,1.78,0,0,0-1.78,1.7l-2.47,57.46h-9.21v18.62H938.47v14.42h138.78V481.11h-12V452.27h-7V430l-19.64,10.85V430l-19.63,10.85V430l-25.31,14v18.48h-6.29L985,405a1.77,1.77,0,0,0-1.77-1.7h-3.05a1.78,1.78,0,0,0-1.78,1.7l-2.47,57.46h-5.1L968.35,405a1.78,1.78,0,0,0-1.78-1.7Z"/></g><g class="cls-21"><path class="cls-5" d="M1132.87,550.78a1.79,1.79,0,0,0-1.78,1.7l-2.47,57.46h-9.2v18.62h-11.59V643H1246.6V628.56h-11.94V599.72h-7V577.47L1208,588.32V577.47l-19.64,10.85V577.47l-25.3,14v18.48h-6.29l-2.47-57.46a1.77,1.77,0,0,0-1.77-1.7h-3a1.78,1.78,0,0,0-1.78,1.7l-2.47,57.46h-5.1l-2.46-57.46a1.78,1.78,0,0,0-1.78-1.7Z"/></g><g class="cls-22"><path class="cls-23" d="M963.52,550.78a1.78,1.78,0,0,0-1.78,1.7l-2.47,57.46h-9.21v18.62H938.47V643h138.78V628.56h-12V599.72h-7V577.47l-19.64,10.85V577.47l-19.63,10.85V577.47l-25.31,14v18.48h-6.29L985,552.48a1.77,1.77,0,0,0-1.77-1.7h-3.05a1.78,1.78,0,0,0-1.78,1.7l-2.47,57.46h-5.1l-2.46-57.46a1.78,1.78,0,0,0-1.78-1.7Z"/></g><g class="cls-24"><path class="cls-7" d="M1132.87,403.33a1.79,1.79,0,0,0-1.78,1.7l-2.47,57.46h-9.2v18.62h-11.59v14.42H1246.6V481.11h-11.94V452.27h-7V430L1208,440.87V430l-19.64,10.85V430l-25.3,14v18.48h-6.29L1154.34,405a1.77,1.77,0,0,0-1.77-1.7h-3a1.78,1.78,0,0,0-1.78,1.7l-2.47,57.46h-5.1L1137.71,405a1.78,1.78,0,0,0-1.78-1.7Z"/></g><g class="cls-25"><text class="cls-15" transform="translate(1117.16 533.75)"><tspan class="cls-26">F</tspan><tspan x="13.69" y="0">ac</tspan><tspan class="cls-27" x="44.08" y="0">t</tspan><tspan x="53.85" y="0">ory 2</tspan></text></g><g class="cls-28"><text class="cls-15" transform="translate(949.1 533.75)"><tspan class="cls-26">F</tspan><tspan x="13.69" y="0">ac</tspan><tspan class="cls-27" x="44.08" y="0">t</tspan><tspan x="53.85" y="0">ory 1</tspan></text></g><g class="cls-29"><text class="cls-15" transform="translate(947.84 681.53)"><tspan class="cls-26">F</tspan><tspan x="13.69" y="0">ac</tspan><tspan class="cls-27" x="44.08" y="0">t</tspan><tspan x="53.85" y="0">ory 3</tspan></text></g><g class="cls-30"><text class="cls-15" transform="translate(1116.61 681.53)"><tspan class="cls-26">F</tspan><tspan x="13.69" y="0">ac</tspan><tspan class="cls-27" x="44.08" y="0">t</tspan><tspan x="53.85" y="0">ory 4</tspan></text></g><g class="cls-31"><rect class="cls-32" x="912.43" y="383.39" width="359.88" height="313.21"/></g><g class="cls-2"><polyline class="cls-33" points="324.82 540 425.14 540 427.64 540"/><polygon class="cls-4" points="425.14 550.2 445.54 540 425.14 529.8 425.14 550.2"/><polyline class="cls-33" points="762.41 540 862.72 540 865.22 540"/><polygon class="cls-4" points="862.72 550.2 883.12 540 862.72 529.8 862.72 550.2"/><text class="cls-34" transform="translate(136.1 735.66)"><tspan class="cls-35">C</tspan><tspan x="16.9" y="0">lie</tspan><tspan class="cls-36" x="41.95" y="0">n</tspan><tspan x="56.04" y="0">t </tspan><tspan class="cls-37" x="70.25" y="0">R</tspan><tspan x="84.86" y="0">equests a</tspan></text><text class="cls-34" transform="translate(323.04 735.66)"> </text><text class="cls-38" transform="translate(176.44 764.66)">‘<tspan class="cls-39" x="5.16" y="0">W</tspan><tspan x="27.29" y="0">hee</tspan><tspan class="cls-40" x="67.78" y="0">l</tspan><tspan x="73.85" y="0">ed’</tspan></text><text class="cls-34" transform="translate(282.71 764.66)"> </text><text class="cls-41" transform="translate(186.38 793.66)">P<tspan class="cls-42" x="14.21" y="0">r</tspan><tspan class="cls-43" x="22.32" y="0">oduct</tspan></text></g></svg>