<svg id="Layer_1" data-name="Layer 1" xmlns="http://www.w3.org/2000/svg" xmlns:xlink="http://www.w3.org/1999/xlink" viewBox="0 0 1920 856.08"><defs><style>.cls-1,.cls-29,.cls-30,.cls-32,.cls-37,.cls-38,.cls-40,.cls-45,.cls-47{fill:none;}.cls-2{clip-path:url(#clip-path);}.cls-17,.cls-3,.cls-8{fill:#fff;}.cls-4{clip-path:url(#clip-path-2);}.cls-5{fill:#0dae9a;}.cls-6{clip-path:url(#clip-path-3);}.cls-7{opacity:0;}.cls-8{font-size:24px;}.cls-17,.cls-34,.cls-35,.cls-49,.cls-8{font-family:MuseoSansRounded-500, Museo Sans Rounded;font-weight:500;}.cls-9{letter-spacing:-0.01em;}.cls-10{letter-spacing:0em;}.cls-11{letter-spacing:0em;}.cls-12{letter-spacing:-0.01em;}.cls-13{letter-spacing:0em;}.cls-14{clip-path:url(#clip-path-4);}.cls-15{clip-path:url(#clip-path-5);}.cls-16{clip-path:url(#clip-path-6);}.cls-17{font-size:16px;}.cls-18{clip-path:url(#clip-path-7);}.cls-19{clip-path:url(#clip-path-8);}.cls-20{clip-path:url(#clip-path-9);}.cls-21{clip-path:url(#clip-path-10);}.cls-22{clip-path:url(#clip-path-11);}.cls-23{clip-path:url(#clip-path-12);}.cls-24{clip-path:url(#clip-path-13);}.cls-25{clip-path:url(#clip-path-14);}.cls-26{clip-path:url(#clip-path-15);}.cls-27{clip-path:url(#clip-path-16);}.cls-28{clip-path:url(#clip-path-17);}.cls-29{stroke:#000;}.cls-30,.cls-32,.cls-37,.cls-38,.cls-40,.cls-45,.cls-47{stroke:#0dae9a;}.cls-31{clip-path:url(#clip-path-19);}.cls-32{stroke-width:7px;}.cls-33{clip-path:url(#clip-path-20);}.cls-34,.cls-49{font-size:32px;}.cls-34,.cls-35{fill:#464775;}.cls-35{font-size:21.33px;}.cls-36{clip-path:url(#clip-path-21);}.cls-37{stroke-width:3px;}.cls-38,.cls-40,.cls-45,.cls-47{stroke-linejoin:round;}.cls-38{stroke-width:3px;}.cls-39{clip-path:url(#clip-path-22);}.cls-40{stroke-width:3px;}.cls-41{clip-path:url(#clip-path-23);}.cls-42{clip-path:url(#clip-path-24);}.cls-43{clip-path:url(#clip-path-25);}.cls-44{clip-path:url(#clip-path-26);}.cls-45{stroke-width:3px;}.cls-46{clip-path:url(#clip-path-27);}.cls-47{stroke-width:3px;}.cls-48{clip-path:url(#clip-path-29);}.cls-49{fill:#5e5e5e;}.cls-50{clip-path:url(#clip-path-30);}.cls-51{clip-path:url(#clip-path-31);}.cls-52{clip-path:url(#clip-path-32);}.cls-53{clip-path:url(#clip-path-34);}</style><clipPath id="clip-path"><rect class="cls-1" y="-124.22" width="1920" height="1080"/></clipPath><clipPath id="clip-path-2"><rect class="cls-1" x="631.63" y="476" width="578" height="293"/></clipPath><clipPath id="clip-path-3"><rect class="cls-1" x="634.13" y="478.5" width="197.44" height="58.65"/></clipPath><clipPath id="clip-path-4"><rect class="cls-1" x="832.57" y="478.5" width="199.73" height="58.65"/></clipPath><clipPath id="clip-path-5"><rect class="cls-1" x="1033.3" y="478.5" width="173.93" height="58.65"/></clipPath><clipPath id="clip-path-6"><rect class="cls-1" x="634.13" y="538.16" width="197.44" height="54.77"/></clipPath><clipPath id="clip-path-7"><rect class="cls-1" x="832.57" y="538.16" width="199.73" height="54.77"/></clipPath><clipPath id="clip-path-8"><rect class="cls-1" x="1033.3" y="538.16" width="173.93" height="54.77"/></clipPath><clipPath id="clip-path-9"><rect class="cls-1" x="634.13" y="593.93" width="197.44" height="56.71"/></clipPath><clipPath id="clip-path-10"><rect class="cls-1" x="832.57" y="593.93" width="199.73" height="56.71"/></clipPath><clipPath id="clip-path-11"><rect class="cls-1" x="1033.3" y="593.93" width="173.93" height="56.71"/></clipPath><clipPath id="clip-path-12"><rect class="cls-1" x="634.13" y="651.64" width="197.44" height="56.71"/></clipPath><clipPath id="clip-path-13"><rect class="cls-1" x="832.57" y="651.64" width="199.73" height="56.71"/></clipPath><clipPath id="clip-path-14"><rect class="cls-1" x="1033.3" y="651.64" width="173.93" height="56.71"/></clipPath><clipPath id="clip-path-15"><rect class="cls-1" x="634.13" y="709.35" width="197.44" height="56.71"/></clipPath><clipPath id="clip-path-16"><rect class="cls-1" x="832.57" y="709.35" width="199.73" height="56.71"/></clipPath><clipPath id="clip-path-17"><rect class="cls-1" x="1033.3" y="709.35" width="173.93" height="56.71"/></clipPath><clipPath id="clip-path-19"><rect class="cls-1" x="765.81" y="191.96" width="143.05" height="143.05"/></clipPath><clipPath id="clip-path-20"><rect class="cls-1" x="770.31" y="196.46" width="134.05" height="134.05"/></clipPath><clipPath id="clip-path-21"><rect class="cls-1" x="881.29" y="315.33" width="145.32" height="40.29"/></clipPath><clipPath id="clip-path-22"><rect class="cls-1" x="763.98" y="121.76" width="85.96" height="86.07"/></clipPath><clipPath id="clip-path-23"><rect class="cls-1" x="1003.74" y="199.05" width="143.05" height="143.05"/></clipPath><clipPath id="clip-path-24"><rect class="cls-1" x="1008.24" y="203.55" width="134.05" height="134.05"/></clipPath><clipPath id="clip-path-25"><rect class="cls-1" x="620.1" y="237.44" width="50.7" height="50.7"/></clipPath><clipPath id="clip-path-26"><rect class="cls-1" x="651.89" y="253.9" width="117.58" height="17.77"/></clipPath><clipPath id="clip-path-27"><rect class="cls-1" x="881.3" y="174.82" width="150.77" height="43.89"/></clipPath><clipPath id="clip-path-29"><rect class="cls-1" x="932.5" y="107.7" width="49.82" height="63.01"/></clipPath><clipPath id="clip-path-30"><rect class="cls-1" x="928.34" y="352.58" width="49.82" height="63.01"/></clipPath><clipPath id="clip-path-31"><rect class="cls-1" x="785.33" y="62.55" width="43.26" height="63.01"/></clipPath><clipPath id="clip-path-32"><rect class="cls-1" x="1134.44" y="219.51" width="85.96" height="86.07" transform="translate(637.83 1341.47) rotate(-76)"/></clipPath><clipPath id="clip-path-34"><rect class="cls-1" x="1158.91" y="155.36" width="43.26" height="63.01"/></clipPath></defs><g class="cls-2"><rect class="cls-3" y="-124.22" width="1920" height="1080"/></g><g class="cls-4"><rect class="cls-5" x="633.63" y="478" width="198.44" height="59.65"/><rect class="cls-5" x="832.07" y="478" width="200.73" height="59.65"/><rect class="cls-5" x="1032.8" y="478" width="174.93" height="59.65"/><rect class="cls-5" x="633.63" y="537.66" width="198.44" height="55.77"/><rect class="cls-5" x="832.07" y="537.66" width="200.73" height="55.77"/><rect class="cls-5" x="1032.8" y="537.66" width="174.93" height="55.77"/><rect class="cls-5" x="633.63" y="593.43" width="198.44" height="57.71"/><rect class="cls-5" x="832.07" y="593.43" width="200.73" height="57.71"/><rect class="cls-5" x="1032.8" y="593.43" width="174.93" height="57.71"/><rect class="cls-5" x="633.63" y="651.14" width="198.44" height="57.71"/><rect class="cls-5" x="832.07" y="651.14" width="200.73" height="57.71"/><rect class="cls-5" x="1032.8" y="651.14" width="174.93" height="57.71"/><rect class="cls-5" x="633.63" y="708.85" width="198.44" height="57.71"/><rect class="cls-5" x="832.07" y="708.85" width="200.73" height="57.71"/><rect class="cls-5" x="1032.8" y="708.85" width="174.93" height="57.71"/></g><g class="cls-6"><rect class="cls-7" x="642.13" y="486.5" width="181.44" height="37"/><text class="cls-8" transform="translate(664.31 509.79)">cur<tspan class="cls-9" x="35.38" y="0">r</tspan><tspan class="cls-10" x="43.56" y="0">e</tspan><tspan class="cls-11" x="56.64" y="0">n</tspan><tspan x="70.73" y="0">t st</tspan><tspan class="cls-12" x="103.68" y="0">a</tspan><tspan class="cls-13" x="115.97" y="0">t</tspan><tspan x="124.08" y="0">e</tspan></text></g><g class="cls-14"><rect class="cls-7" x="840.57" y="486.5" width="183.73" height="37"/><text class="cls-8" transform="translate(861.45 509.79)">input symbol</text></g><g class="cls-15"><rect class="cls-7" x="1041.3" y="486.5" width="157.93" height="37"/><text class="cls-8" transform="translate(1067.89 509.79)">new st<tspan class="cls-12" x="71.28" y="0">a</tspan><tspan class="cls-13" x="83.57" y="0">t</tspan><tspan x="91.68" y="0">e</tspan></text></g><g class="cls-16"><rect class="cls-7" x="642.13" y="546.16" width="181.44" height="66"/><text class="cls-8" transform="translate(722.66 569.45)">S</text><text class="cls-17" transform="translate(735.54 571.35)">1</text><text class="cls-8" transform="translate(743.05 569.45)"> </text></g><g class="cls-18"><rect class="cls-7" x="840.57" y="546.16" width="183.73" height="37"/><text class="cls-8" transform="translate(926.8 569.45)">1</text></g><g class="cls-19"><rect class="cls-7" x="1041.3" y="546.16" width="157.93" height="66"/><text class="cls-8" transform="translate(1110.07 569.45)">S</text><text class="cls-17" transform="translate(1122.95 571.35)">1</text><text class="cls-8" transform="translate(1130.46 569.45)"> </text></g><g class="cls-20"><rect class="cls-7" x="642.13" y="601.93" width="181.44" height="37"/><text class="cls-8" transform="translate(722.66 625.21)">S</text><text class="cls-17" transform="translate(735.54 627.12)">1</text></g><g class="cls-21"><rect class="cls-7" x="840.57" y="601.93" width="183.73" height="37"/><text class="cls-8" transform="translate(924.97 625.21)">0</text></g><g class="cls-22"><rect class="cls-7" x="1041.3" y="601.93" width="157.93" height="66"/><text class="cls-8" transform="translate(1109.35 625.21)">S</text><text class="cls-17" transform="translate(1122.23 627.12)">2</text><text class="cls-8" transform="translate(1131.18 625.21)"> </text></g><g class="cls-23"><rect class="cls-7" x="642.13" y="659.64" width="181.44" height="37"/><text class="cls-8" transform="translate(721.94 682.93)">S</text><text class="cls-17" transform="translate(734.82 684.83)">2</text></g><g class="cls-24"><rect class="cls-7" x="840.57" y="659.64" width="183.73" height="37"/><text class="cls-8" transform="translate(926.8 682.93)">1</text></g><g class="cls-25"><rect class="cls-7" x="1041.3" y="659.64" width="157.93" height="37"/><text class="cls-8" transform="translate(1109.35 682.93)">S</text><text class="cls-17" transform="translate(1122.23 684.83)">2</text></g><g class="cls-26"><rect class="cls-7" x="642.13" y="717.35" width="181.44" height="37"/><text class="cls-8" transform="translate(721.94 740.64)">S</text><text class="cls-17" transform="translate(734.82 742.54)">2</text></g><g class="cls-27"><rect class="cls-7" x="840.57" y="717.35" width="183.73" height="37"/><text class="cls-8" transform="translate(924.97 740.64)">0</text></g><g class="cls-28"><rect class="cls-7" x="1041.3" y="717.35" width="157.93" height="37"/><text class="cls-8" transform="translate(1110.07 740.64)">S</text><text class="cls-17" transform="translate(1122.95 742.54)">1</text></g><g class="cls-4"><line class="cls-29" x1="832.07" y1="477.5" x2="832.07" y2="767.06"/><line class="cls-29" x1="1032.8" y1="477.5" x2="1032.8" y2="767.06"/><line class="cls-29" x1="633.13" y1="537.66" x2="1208.23" y2="537.66"/><line class="cls-29" x1="633.13" y1="593.43" x2="1208.23" y2="593.43"/><line class="cls-29" x1="633.13" y1="651.14" x2="1208.23" y2="651.14"/><line class="cls-29" x1="633.13" y1="708.85" x2="1208.23" y2="708.85"/><line class="cls-30" x1="633.63" y1="477.5" x2="633.63" y2="767.06"/><line class="cls-30" x1="1207.73" y1="477.5" x2="1207.73" y2="767.06"/><line class="cls-30" x1="633.13" y1="478" x2="1208.23" y2="478"/><line class="cls-30" x1="633.13" y1="766.56" x2="1208.23" y2="766.56"/></g><g class="cls-31"><circle class="cls-32" cx="837.34" cy="263.48" r="67.03"/></g><g class="cls-33"><text class="cls-34" transform="translate(823.75 275.01)">S</text><text class="cls-35" transform="translate(840.93 277.55)">1</text></g><g class="cls-36"><path class="cls-37" d="M883.51,317.22a87,87,0,0,0,132.72,9.66l1-1.15"/><path class="cls-38" d="M1016.23,326.88l7.1-8.4m-2.05,12.66,2.05-12.66-12.14,4.14"/></g><g class="cls-39"><path class="cls-37" d="M836.13,193.18c30.24-32.27-5.33-82.86-45.93-65.32-32.14,13.9-30.33,57.41-2.31,71.21l1.44.44"/><path class="cls-40" d="M787.89,199.07l10.52,3.23M786,205.38l12.46-3.08-8.57-9.54"/></g><g class="cls-41"><circle class="cls-32" cx="1075.26" cy="270.58" r="67.03"/></g><g class="cls-42"><text class="cls-34" transform="translate(1060.71 282.11)">S</text><text class="cls-35" transform="translate(1077.9 284.65)">2</text></g><g class="cls-43"><circle class="cls-5" cx="645.45" cy="262.79" r="24.35"/></g><g class="cls-44"><polyline class="cls-37" points="652.89 262.79 755.82 262.79 757.32 262.79"/><path class="cls-45" d="M755.82,262.79h11m-11,6.6,11-6.6-11-6.6"/></g><g class="cls-46"><g class="cls-2"><path class="cls-37" d="M890.79,204.82l1-1.14a89.28,89.28,0,0,1,59.55-26.28,90.26,90.26,0,0,1,78.51,39.46"/><path class="cls-47" d="M891.77,203.68,884.58,212m12.19-4-12.19,4,2.19-12.64"/></g></g><g class="cls-48"><text class="cls-49" transform="translate(947.46 151.08)">0</text></g><g class="cls-50"><text class="cls-49" transform="translate(943.29 395.97)">0</text></g><g class="cls-51"><text class="cls-49" transform="translate(799.46 105.93)">1</text></g><g class="cls-52"><g class="cls-2"><path class="cls-37" d="M1142.83,284c24,37.15,81.68,14.87,74.48-28.76-5.7-34.56-48.36-43.33-68.53-19.47L1148,237"/><path class="cls-47" d="M1148.78,235.75l-5.68,9.42m0-12.83,0,12.83,11.33-6"/></g></g><g class="cls-53"><text class="cls-49" transform="translate(1173.04 198.75)">1</text></g></svg>