<?xml version="1.0" encoding="utf-8"?>
<!-- Generator: Adobe Illustrator 26.0.2, SVG Export Plug-In . SVG Version: 6.00 Build 0)  -->
<svg version="1.1" id="Layer_1" xmlns="http://www.w3.org/2000/svg" xmlns:xlink="http://www.w3.org/1999/xlink" x="0px" y="0px"
	 viewBox="0 0 1410 611.4" style="enable-background:new 0 0 1410 611.4;" xml:space="preserve">
<style type="text/css">
	.st0{clip-path:url(#SVGID_00000059997415989272536340000001338412927966893978_);}
	.st1{fill:#47ABA6;}
	.st2{clip-path:url(#SVGID_00000078745221762271097880000001773088532675266694_);}
	.st3{fill:#464775;}
	.st4{font-family:'MuseoSansRounded-900';}
	.st5{font-size:30px;}
	.st6{clip-path:url(#SVGID_00000115507637591918659180000011633078207853476514_);}
	.st7{fill:#E5C721;}
	.st8{clip-path:url(#SVGID_00000071528363613447775290000001281055213090946990_);}
	.st9{clip-path:url(#SVGID_00000098911298172141321790000013857744668332953758_);}
	.st10{clip-path:url(#SVGID_00000155135043773957602070000015343071542503769481_);}
</style>
<g>
	<defs>
		<rect id="SVGID_1_" x="64.2" y="38.8" width="170.9" height="438"/>
	</defs>
	<clipPath id="SVGID_00000119798835802293954010000017435043286318024383_">
		<use xlink:href="#SVGID_1_"  style="overflow:visible;"/>
	</clipPath>
	<g style="clip-path:url(#SVGID_00000119798835802293954010000017435043286318024383_);">
		<path class="st1" d="M104.6,162.5c1.1-0.2,2.2,0.5,2.5,1.6c1.1,5.2,1.1,12.4,1.8,20.3c1.2,12.6,3.3,25.1,2.7,32.5
			c-0.2,3.7,0.1,7.2,0,7.5c0,0-3.8,3.8-5.4,4.4c-2.4,0.6-4.8,2.8-5.2,2.2c-3.1-5.7-10.9-36.7-11.8-41.5c0.4-2.7,0.8-6.6,1-8.5
			c0.1-0.8,0.3-1.6,0.8-2.3c2.1-3,8.3-12,12.6-15.7C103.8,162.7,104.2,162.6,104.6,162.5z M191.4,162.2c1,0.6,1.9,1.3,2.6,2.2
			c7.6,8.5,13.6,13.8,14.4,16.4c0.5,4.7,1,10,1,10s-6.9,31.6-10,34c-2,1.6-9.9-3.6-14.3-3.1c0-5.4,0.1-10.6,0.6-20.7
			c0.6-12.2,3-30.6,3.5-36C189.4,162.1,190.4,161.8,191.4,162.2z M145.8,40c-5.1,0.8-10,3-13.8,6.5c-8.5,7.4-5.2,23.1-5.2,23.1
			s-2.8,0-1.1,7.4c1.1,4.7,0.3,5.8,3.8,7.3c0.9,5.7,3.6,6,3.6,15.9c0,0.1-2.1-0.1-3.7,3.1c-0.4,0.9-0.9,3.8-2.6,4.6
			c-7.7,3.7-25.1,7.6-29.3,11.8c-6,6-30.8,53-30.8,57.6c0,7.1-0.6,11.9,1,15.5c6.5,15.3,14.4,40.6,24.2,52.6
			c1.9,2.2,4.4,3.7,7.1,4.6c3.3,1.1,8.8,3.5,8.7,5.5c-1.1,17.7-3.3,60-4.9,80.2c-1.1,13.2-2,28.3-2.7,37.6
			c-1.3,16.1-1.6,35.1-6,55.1c-2,9.2-5.4,21.3-3.3,21.3c-3.3,8.1-15.9,12.4-22.2,14.2c-2.2,0.6-3.7,2.7-3.4,4.9l0.2,1.4
			c0.1,1.7,2.3,2.4,2.9,2.4c3.5,0.6,14.3,2.4,22.1-0.8c9.2-3.6,20.8-1.2,29.9-2.4c2.7-0.3,3.1-10.1,2-14.5c-0.2-0.7-0.5-1.4-1-1.9
			l0.4,0.8c4.6,0.4,9.3-50.8,12.2-92.3c1.3-17.5,10.1-55.6,13-68.2c0.1-0.6,0.7-0.9,1.3-0.8c0.4,0.1,0.7,0.4,0.8,0.8
			c1.7,9.9,4,31.1,6.4,45.8c0.5,3.4,2.2,16.4,2.4,24.5c0.9,25.1-1.6,78.5,1.7,85.3c0,0-0.8,10.3-4,17.8
			c-4.6,10.6,17.9,10.7,24.2,6.6c8.2-5.1,3.3-14.2,3.6-18.1c0.8-3.5,2.4-3.5,3.3-10.9c2.5-22.5,0.3-50.8,0.6-73.6
			c0.1-7.5,2.9-22,2.9-42.3s0-38.5-1.3-56.7c-0.9-12,3.1-12.7-0.5-28.1c12.5,1.3,14.2,0.2,18.2-4.9c10.6-13.7,22.3-44.9,24.4-50.3
			c4-0.9,3.8-9.6,1.8-16c-0.6-1.6-3-1.4-3.5-3c-3.4-12.8-24.9-42.2-28.4-48.6c-3.1-5.6-23.5-9.6-30.4-12.3c-1.2-0.6-2.2-1.5-2.7-2.7
			c-0.2-0.4-0.3-0.9-0.6-1.3c-1.8-4-4.5-3.9-4.5-3.9c-0.3-3.1-0.6-5.6,0.4-7.3c1.4-2.6,2.4-5.4,3.1-8.3c1.5-0.3,2.7-0.1,4.2-5.8
			c0.5-2.5,2.9-9.2-0.8-9.4c0.8-4.6,3.2-20.8-6.1-24.3c-2.7-1-2.8-2.4-4-3C155.3,40.2,150.5,39.4,145.8,40z"/>
	</g>
</g>
<g>
	<defs>
		<rect id="SVGID_00000124844947768997216290000009858016495002733232_" x="90.6" y="532.8" width="124.1" height="54"/>
	</defs>
	<clipPath id="SVGID_00000026150985592085406990000008594673161973287810_">
		<use xlink:href="#SVGID_00000124844947768997216290000009858016495002733232_"  style="overflow:visible;"/>
	</clipPath>
	<g style="clip-path:url(#SVGID_00000026150985592085406990000008594673161973287810_);">
		<text transform="matrix(1 0 0 1 100.0815 569.961)" class="st3 st4 st5">CLIENT</text>
	</g>
</g>
<g>
	<defs>
		<rect id="SVGID_00000149369468070200539040000017323479553502869162_" x="561" y="113.4" width="301.7" height="278.1"/>
	</defs>
	<clipPath id="SVGID_00000050626996440973174150000016055163944034372529_">
		<use xlink:href="#SVGID_00000149369468070200539040000017323479553502869162_"  style="overflow:visible;"/>
	</clipPath>
	<g style="clip-path:url(#SVGID_00000050626996440973174150000016055163944034372529_);">
		<path class="st7" d="M840.1,356.6c0.1,0,0.2,0,0.3,0c6.9,0.1,12.5,5.7,12.5,12.7c-0.1,6.9-5.7,12.5-12.7,12.5
			c-6.9-0.1-12.5-5.7-12.5-12.7c0-1.1,0.2-2.2,0.5-3.3l9.4,7.1c1,0.8,2.3,1.3,3.6,1.3c1.2,0,2.3-0.4,3.2-1.2c2.2-2,2.5-5.3,0.7-7.6
			l-5-6.1L840.1,356.6z M619.1,356.2h0.2v2.8l-5.1,6.3c-1.8,2.3-1.5,5.6,0.7,7.6c0.9,0.8,2,1.2,3.2,1.2c1.3,0,2.6-0.5,3.6-1.3
			l9.7-7.3c0.3,1.1,0.4,2.1,0.4,3.2c0,7-5.7,12.6-12.6,12.6s-12.6-5.7-12.6-12.6C606.5,361.9,612.2,356.2,619.1,356.2L619.1,356.2
			L619.1,356.2z M686,279.6v33.9c0,8.6,3.5,16.7,9.7,22.6h-55.5l19-52.3L686,279.6z M659.8,234.1l9.8,39.3l-10.4,1.6l-12.1-40
			L659.8,234.1z M679.3,232.6l8.4,38l-13.6,2.2l-9.7-39L679.3,232.6z M698.6,231.1l7.1,36.7l-13.6,2.1l-8.3-37.6L698.6,231.1z
			 M718,229.6l5.8,35.3l-13.6,2.1l-7.1-36.3L718,229.6z M737.2,228.1l4.6,33.9l-13.6,2.1l-5.8-34.9L737.2,228.1z M756.2,226.6
			l3.7,32.6l-13.6,2.1l-4.5-33.6L756.2,226.6z M775.7,225.1l2.3,31.2l-13.6,2.1l-3.6-32.2L775.7,225.1z M794.7,223.6l1.5,29.8
			l-13.6,2.1l-2.3-30.8L794.7,223.6z M814.4,222.1l-0.1,28.5l-13.6,2.2l-1.3-29.5L814.4,222.1z M831.4,220.8v27.1l-12.5,2l0.1-28.1
			L831.4,220.8z M819,189.7l12.4,0.3v26.3l-12.5,0.9L819,189.7z M797.7,189.2l16.8,0.3l-0.1,28l-15.3,1.2L797.7,189.2z M777.7,188.8
			l15.5,0.3l1.4,30l-14.6,1.1L777.7,188.8z M756.6,188.3l16.5,0.4l2.3,31.9l-15.2,1.2L756.6,188.3z M736.4,187.9l15.7,0.3l3.8,33.9
			l-14.6,1.1L736.4,187.9z M715.6,187.5l16.2,0.3l4.9,35.8l-14.9,1.2L715.6,187.5z M694.7,187l16.3,0.3l6.3,37.7l-14.9,1.1
			L694.7,187z M673.8,186.6L690,187l7.7,39.7l-14.8,1.2L673.8,186.6z M652.6,186.2l16.6,0.3l9.2,41.7l-15,1.1L652.6,186.2z
			 M632.2,185.8l15.7,0.3l10.9,43.6l-12.9,1L632.2,185.8z M819.2,160.9l12.3,1.2v23.2l-12.4-0.3L819.2,160.9z M796.4,158.6l18.3,1.9
			v24.6l-17-0.4L796.4,158.6z M775.4,156.5l16.4,1.7l1.2,26.5l-15.6-0.3L775.4,156.5z M752.8,154.2l18,1.8l2.1,28.2l-16.8-0.4
			L752.8,154.2z M731.5,152l16.7,1.7l3.4,30l-15.8-0.3L731.5,152z M709.3,149.8l17.5,1.8l4.3,31.8l-16.3-0.3L709.3,149.8z
			 M687,147.5l17.7,1.8l5.6,33.5l-16.5-0.4L687,147.5z M664.7,145.3l17.5,1.7l6.9,35.4l-16.3-0.3L664.7,145.3z M641.8,142.9
			l18.1,1.8l8.2,37.2l-16.7-0.4L641.8,142.9z M618.5,140.6l18.5,1.9l9.7,39.1l-15.9-0.3L618.5,140.6z M572.7,123.1h0.2
			c5.7,0.6,21.8,2.2,26.2,2.7c3.1,0.3,5.7,2.1,7.2,4.8l-33.8-3.4c-1.1-0.1-2-1-1.9-2.1S571.5,123,572.7,123.1L572.7,123.1z
			 M572.6,114.4c-2.5,0-5,0.9-6.9,2.5c-4.5,3.9-5,10.6-1.2,15.1c1.8,2.1,4.3,3.4,7,3.7l37.6,3.8l42.4,140l-20.5,56.6h-7.3
			c-2.4,0-4.3,1.9-4.3,4.3c0,0,0,0,0,0v7.1h-0.2c-11.8,0-21.3,9.5-21.3,21.3c0,11.8,9.5,21.3,21.3,21.3c11.8,0,21.3-9.5,21.3-21.3
			c0-3-0.6-6-1.9-8.7l2.3-1.7v-13.7h177.6v13.6l2.6,2c-1.3,2.8-1.9,5.8-1.9,8.8c0,11.8,9.5,21.3,21.3,21.3
			c11.8,0,21.3-9.5,21.3-21.3c0-11.8-9.5-21.3-21.3-21.3h-0.3v-7.4c0-2.4-1.9-4.3-4.3-4.3c0,0,0,0,0,0H717.3
			c-12.5,0-22.6-10.1-22.6-22.6v-35.3l145.5-22.9v-101l-224.3-22.8l-0.5-1.7c-2.1-6.9-8.1-11.9-15.3-12.7
			c-5.7-0.6-18.9-1.9-26.2-2.7C573.4,114.4,573,114.4,572.6,114.4z"/>
	</g>
</g>
<g>
	<defs>
		<rect id="SVGID_00000048496526427669305830000007815488545128599219_" x="639.8" y="532.8" width="150" height="54"/>
	</defs>
	<clipPath id="SVGID_00000115509042221053067160000011152878379694869394_">
		<use xlink:href="#SVGID_00000048496526427669305830000007815488545128599219_"  style="overflow:visible;"/>
	</clipPath>
	<g style="clip-path:url(#SVGID_00000115509042221053067160000011152878379694869394_);">
		<text transform="matrix(1 0 0 1 649.2914 569.961)" class="st3 st4 st5">SUBJ</text>
		<text transform="matrix(1 0 0 1 723.5714 569.961)" class="st3 st4 st5">E</text>
		<text transform="matrix(1 0 0 1 740.7314 569.961)" class="st3 st4 st5">CT</text>
	</g>
</g>
<g>
	<defs>
		<rect id="SVGID_00000045614225778657974460000004632614787984315824_" x="1188.6" y="218.7" width="170.9" height="78.1"/>
	</defs>
	<clipPath id="SVGID_00000143576591962416511450000006229744059384655007_">
		<use xlink:href="#SVGID_00000045614225778657974460000004632614787984315824_"  style="overflow:visible;"/>
	</clipPath>
	<g style="clip-path:url(#SVGID_00000143576591962416511450000006229744059384655007_);">
		<path class="st3" d="M1193.1,276.5l-3.3,12.9l0,0c-0.2,0.5-0.2,1.1,0.2,1.5c1.6,1.6,3.3,3.1,5.1,4.4c4,0.1,8.4,0.2,13,0.2v-1.8
			h4.4v1.9l8.1,0.1v-2h4.4v2c2.7,0,5.4,0,8.1,0v-2h4.4v2h8.1v-2h4.4v2h8.1v-2h4.4v2l8.1-0.1v-1.9h4.4v1.9l8.1-0.1v-1.8h4.4v1.8
			l8.1-0.1v-1.7h4.4v1.7c3.8,0,6.4-0.1,7.7-0.1v-1.6h4.4v1.6c2.4,0,5-0.1,7.7-0.2l-0.2-1.5l4.4-0.4l0.2,1.6c2.8-0.3,5.7-0.6,8.4-1.2
			l-0.4-1.7l4.3-1l0.4,1.6c7.4-2,13.6-5.6,15.9-11.8l-2.1,0.5c0,0-2.1,0.4-2.5,0.5c-8.9,1.8-23.3,3.7-44.7,3.7h-1.7
			c-17.7-0.1-24.2-1.8-30-3.4c-6.1-1.7-11.9-3.2-30.5-2.4C1214.9,280.8,1199.5,278.1,1193.1,276.5z M1254.7,219.8
			c-5.5,0.2-5.5,8-5.3,11.3c0,1.1,0.1,1.3,0.1,1.9c-2.3,2.2-5,4.1-7.8,5.6c-0.6,0.3-1.2,0.6-1.8,0.8c-3.6,1.4-7.5,2.2-11.4,2.3
			c-3.1,0.2-6.2-0.2-9.1-1.3l-1.4-0.7c-6.9-3.7-7.3-11.4-10.4-12.8v-0.1c-0.8-0.3-1.6-0.4-2.4-0.5c-1.5-0.2-3,0.2-4.1,1.2
			c-3.3,3.9-6.1,8.2-8.4,12.8c-2,4.4-1.1,7.4,0.7,8.9c-1.9,7.8-2.7,16.8-0.4,25.7c5.9,1.5,21.5,4.4,48.8,3.2h0.3l1.6-0.1
			c14.5-0.5,20.8,0.4,26.1,1.8l1.5,0.4l1.6,0.4c5.9,1.6,12.1,3.3,29.6,3.4c29,0.1,45.4-3.3,52.8-5.2c6.8-5.2,1.6-16.2-3.6-17
			c-0.6-0.1-1.3-0.1-1.9,0.1c-4.7-1.1-14.8-3.7-22.5-6l-1.5-0.4l0,0c-2.5-0.7-5-1.6-7.4-2.5l0,0c0,0-1.9-0.8-4.3-1.9l-2.2-1l0.7-1.5
			c0.5-1.2,0-2.5-1.2-3.1l-1-0.4c-1-0.4-2.2-0.1-2.8,0.8l-5.3-2.8l-1.6-0.9c0.5-1.1,0-2.5-1.2-3l-1-0.4c-1-0.4-2.2-0.1-2.8,0.8
			l-1.8-0.9l0,0l-2.9-1.5l-1.8-0.9c0.5-1.2,0-2.5-1.2-3l-1-0.4c-1-0.4-2.2-0.1-2.8,0.8l-1.6-0.9l0,0l-2-1l-0.7-0.3h-0.1l-1.6-0.8
			c0.5-1.2,0-2.5-1.2-3l-1-0.4c-1.1-0.5-2.4,0-2.9,1l-6.3-3.1c0.5-1.2,0-2.5-1.2-3.1l-1-0.4c-1.1-0.5-2.4-0.1-3,1l-1.7-0.9l0,0
			l-0.6-0.3C1258,220.4,1256.3,219.9,1254.7,219.8z"/>
	</g>
</g>
<g>
	<defs>
		<rect id="SVGID_00000065040394302054683400000014567610536347642548_" x="1209" y="532.8" width="135.8" height="54"/>
	</defs>
	<clipPath id="SVGID_00000050659177990441000720000004133037346475844270_">
		<use xlink:href="#SVGID_00000065040394302054683400000014567610536347642548_"  style="overflow:visible;"/>
	</clipPath>
	<g style="clip-path:url(#SVGID_00000050659177990441000720000004133037346475844270_);">
		<text transform="matrix(1 0 0 1 1218.5215 569.961)" class="st3 st4 st5">OBJ</text>
		<text transform="matrix(1 0 0 1 1278.6715 569.961)" class="st3 st4 st5">E</text>
		<text transform="matrix(1 0 0 1 1295.8315 569.961)" class="st3 st4 st5">CT</text>
	</g>
</g>
</svg>
