<svg xmlns="http://www.w3.org/2000/svg" xmlns:xlink="http://www.w3.org/1999/xlink" xmlns:lucid="lucid" width="1561" height="1000"><g transform="translate(-133 -100)" lucid:page-tab-id="btmcowbeSPd_"><path d="M960 160c0 11.05-8.95 20-20 20s-20-8.95-20-20 8.95-20 20-20 20 8.95 20 20z" stroke="#5e5e5e" stroke-width="3"/><path d="M876 320c-8.84 0-16 7.16-16 16v48c0 8.84 7.16 16 16 16h128c8.84 0 16-7.16 16-16v-48c0-8.84-7.16-16-16-16z" stroke="#5e5e5e" stroke-width="3" fill="#ffbbb1"/><use xlink:href="#a" transform="matrix(1,0,0,1,868,328) translate(54.12962962962963 36.44444444444444)"/><path d="M536 600c-8.84 0-16 7.16-16 16v48c0 8.84 7.16 16 16 16h128c8.84 0 16-7.16 16-16v-48c0-8.84-7.16-16-16-16z" stroke="#5e5e5e" stroke-width="3" fill="#ffc374"/><use xlink:href="#b" transform="matrix(1,0,0,1,528,608) translate(47.77160493827161 36.44444444444444)"/><path d="M1216 600c-8.84 0-16 7.16-16 16v48c0 8.84 7.16 16 16 16h128c8.84 0 16-7.16 16-16v-48c0-8.84-7.16-16-16-16z" stroke="#5e5e5e" stroke-width="3" fill="#d1bcd2"/><use xlink:href="#c" transform="matrix(1,0,0,1,1208,608) translate(44.87037037037037 36.44444444444444)"/><path d="M1216 860c-8.84 0-16 7.16-16 16v48c0 8.84 7.16 16 16 16h128c8.84 0 16-7.16 16-16v-48c0-8.84-7.16-16-16-16z" stroke="#000" stroke-width="3" fill="#c7e8ac"/><use xlink:href="#d" transform="matrix(1,0,0,1,1208,868) translate(42.98765432098766 36.44444444444444)"/><path d="M536 860c-8.84 0-16 7.16-16 16v48c0 8.84 7.16 16 16 16h128c8.84 0 16-7.16 16-16v-48c0-8.84-7.16-16-16-16z" stroke="#5e5e5e" stroke-width="3" fill="#99d2f2"/><use xlink:href="#e" transform="matrix(1,0,0,1,528,868) translate(51.660493827160494 36.44444444444444)"/><path d="M940 183.5v112.26" stroke="#5e5e5e" stroke-width="4" fill="none"/><path d="M939.93 181.5l1.68-.06.4-.07v2.18h-4v-2.3" fill="#5e5e5e"/><path d="M940 312.03l-4.64-14.27h9.28z" stroke="#5e5e5e" stroke-width="4" fill="#5e5e5e"/><path d="M919.07 403.5V494c0 3.3-2.68 6-6 6H606c-3.3 0-6 2.7-6 6v69.76" stroke="#c92d39" stroke-width="4" fill="none"/><path d="M921.07 403.55h-4v-2.05h4" fill="#c92d39"/><path d="M600 592.03l-4.64-14.27h9.28z" stroke="#c92d39" stroke-width="4" fill="#c92d39"/><path d="M940 403.5V794c0 3.3 2.7 6 6 6h332.57c3.3 0 6 2.7 6 6v29.76" stroke="#c92d39" stroke-width="4" fill="none"/><path d="M942 403.55h-4v-2.05h4" fill="#c92d39"/><path d="M1284.57 852.03l-4.64-14.27h9.27z" stroke="#c92d39" stroke-width="4" fill="#c92d39"/><path d="M960.05 403.5v21.97c0 .02 0 .03-.02.03s-.03 0-.03.03V494c0 3.3 2.7 6 6 6h308c3.3 0 6 2.7 6 6v69.76" stroke="#c92d39" stroke-width="4" fill="none"/><path d="M962.05 403.55h-4v-2.05h4" fill="#c92d39"/><path d="M1280 592.03l-4.64-14.27h9.28z" stroke="#c92d39" stroke-width="4" fill="#c92d39"/><path d="M1363.5 640h60.5c3.3 0 6-2.7 6-6V366c0-3.3-2.7-6-6-6h-379.76" stroke="#834187" stroke-width="4" fill="none"/><path d="M1363.55 642h-2.05v-4h2.05" fill="#834187"/><path d="M1027.97 360l14.27-4.64v9.28z" stroke="#834187" stroke-width="4" fill="#834187"/><path d="M516.5 640H406c-3.3 0-6-2.7-6-6V366c0-3.3 2.7-6 6-6h429.76" stroke="#ffc374" stroke-width="4" fill="none"/><path d="M518.5 642h-2.05v-4h2.05" fill="#ffc374"/><path d="M852.03 360l-14.27 4.64v-9.28z" stroke="#ffc374" stroke-width="4" fill="#ffc374"/><path d="M683.5 640h492.26" stroke="#ffc374" stroke-width="4" fill="none"/><path d="M683.55 642h-2.05v-4h2.05" fill="#ffc374"/><path d="M1192.03 640l-14.27 4.64v-9.28z" stroke="#ffc374" stroke-width="4" fill="#ffc374"/><path d="M600 704.24V734c0 3.3-2.7 6-6 6H406c-3.3 0-6 2.7-6 6v278c0 3.3 2.7 6 6 6h868c3.3 0 6-2.7 6-6v-80.5" stroke="#7ab648" stroke-width="4" fill="none"/><path d="M600 687.97l4.64 14.27h-9.28z" stroke="#7ab648" stroke-width="4" fill="#7ab648"/><path d="M1282 943.55h-4v-2.05h4" fill="#7ab648"/><path d="M1280 683.5V744c0 3.3-2.7 6-6 6H645.8c-3.2 0-5.8-2.6-5.8-5.8v-5.43c0-.22-.18-.4-.4-.4-.22 0-.4-.17-.4-.4v-33.73" stroke="#834187" stroke-width="4" fill="none"/><path d="M1282 683.55h-4v-2.05h4" fill="#834187"/><path d="M639.2 687.97l4.64 14.27h-9.28z" stroke="#834187" stroke-width="4" fill="#834187"/><path d="M1363.5 900h32c3.3 0 6 2.7 6 6v68c0 3.3-2.7 6-6 6H1126c-3.3 0-6-2.7-6-6V385.02c0-3.3-2.7-6-6-6h-69.76" stroke="#7ab648" stroke-width="4" fill="none"/><path d="M1363.55 902h-2.05v-4h2.05" fill="#7ab648"/><path d="M1027.97 379.02l14.27-4.63v9.26z" stroke="#7ab648" stroke-width="4" fill="#7ab648"/><path d="M683.5 656.54H794c3.3 0 6 2.68 6 6V894c0 3.3 2.7 6 6 6h369.76" stroke="#ffc374" stroke-width="4" fill="none"/><path d="M683.55 658.54h-2.05v-4h2.05" fill="#ffc374"/><path d="M1192.03 900l-14.27 4.64v-9.28z" stroke="#ffc374" stroke-width="4" fill="#ffc374"/><path d="M563.2 683.5v152.26" stroke="#ffc374" stroke-width="4" fill="none"/><path d="M565.2 683.55h-4v-2.05h4" fill="#ffc374"/><path d="M563.2 852.03l-4.64-14.27h9.28z" stroke="#ffc374" stroke-width="4" fill="#ffc374"/><path d="M683.5 900h32c3.3 0 6 2.7 6 6v148c0 3.3 2.7 6 6 6H1424c3.3 0 6-2.7 6-6V663.8c0-3.33-2.7-6-6-6h-39.76" stroke="#3aa6dd" stroke-width="4" fill="none"/><path d="M683.55 902h-2.05v-4h2.05" fill="#3aa6dd"/><path d="M1367.97 657.8l14.27-4.65v9.27z" stroke="#3aa6dd" stroke-width="4" fill="#3aa6dd"/><path d="M516.5 900H456c-3.3 0-6-2.7-6-6V670.1c0-3.32 2.7-6 6-6h39.76" stroke="#3aa6dd" stroke-width="4" fill="none"/><path d="M518.5 902h-2.05v-4h2.05" fill="#3aa6dd"/><path d="M512.03 664.1l-14.27 4.63v-9.27z" stroke="#3aa6dd" stroke-width="4" fill="#3aa6dd"/><path d="M856.5 337.42h-32c-3.3 0-6-2.68-6-6V284.5c0-3.3 2.7-6 6-6h87.4c3.32 0 6 2.7 6 6v11.26" stroke="#c92d39" stroke-width="4" fill="none"/><path d="M858.5 335.9v3.52h-2.05v-4h2.1" fill="#c92d39"/><path d="M917.9 312.03l-4.63-14.27h9.27z" stroke="#c92d39" stroke-width="4" fill="#c92d39"/><defs><path fill="#333" d="M33 0v-248h34V0H33" id="f"/><path fill="#333" d="M85-194c31 0 48 13 60 33l-1-100h32l1 261h-30c-2-10 0-23-3-31C134-8 116 4 85 4 32 4 16-35 15-94c0-66 23-100 70-100zm9 24c-40 0-46 34-46 75 0 40 6 74 45 74 42 0 51-32 51-76 0-42-9-74-50-73" id="g"/><path fill="#333" d="M24 0v-261h32V0H24" id="h"/><path fill="#333" d="M100-194c63 0 86 42 84 106H49c0 40 14 67 53 68 26 1 43-12 49-29l28 8c-11 28-37 45-77 45C44 4 14-33 15-96c1-61 26-98 85-98zm52 81c6-60-76-77-97-28-3 7-6 17-6 28h103" id="i"/><g id="a"><use transform="matrix(0.06172839506172839,0,0,0.06172839506172839,0,0)" xlink:href="#f"/><use transform="matrix(0.06172839506172839,0,0,0.06172839506172839,6.172839506172839,0)" xlink:href="#g"/><use transform="matrix(0.06172839506172839,0,0,0.06172839506172839,18.51851851851852,0)" xlink:href="#h"/><use transform="matrix(0.06172839506172839,0,0,0.06172839506172839,23.395061728395063,0)" xlink:href="#i"/></g><path fill="#333" d="M266 0h-40l-56-210L115 0H75L2-248h35L96-30l15-64 43-154h32l59 218 59-218h35" id="j"/><path fill="#333" d="M141-36C126-15 110 5 73 4 37 3 15-17 15-53c-1-64 63-63 125-63 3-35-9-54-41-54-24 1-41 7-42 31l-33-3c5-37 33-52 76-52 45 0 72 20 72 64v82c-1 20 7 32 28 27v20c-31 9-61-2-59-35zM48-53c0 20 12 33 32 33 41-3 63-29 60-74-43 2-92-5-92 41" id="k"/><path fill="#333" d="M143 0L79-87 56-68V0H24v-261h32v163l83-92h37l-77 82L181 0h-38" id="l"/><g id="b"><use transform="matrix(0.06172839506172839,0,0,0.06172839506172839,0,0)" xlink:href="#j"/><use transform="matrix(0.06172839506172839,0,0,0.06172839506172839,20.123456790123456,0)" xlink:href="#k"/><use transform="matrix(0.06172839506172839,0,0,0.06172839506172839,32.46913580246913,0)" xlink:href="#h"/><use transform="matrix(0.06172839506172839,0,0,0.06172839506172839,37.34567901234568,0)" xlink:href="#l"/></g><path fill="#333" d="M153-248C145-148 188 4 80 4 36 3 13-21 6-62l32-5c4 25 16 42 43 43 27 0 39-20 39-49v-147H72v-28h81" id="m"/><path fill="#333" d="M84 4C-5 8 30-112 23-190h32v120c0 31 7 50 39 49 72-2 45-101 50-169h31l1 190h-30c-1-10 1-25-2-33-11 22-28 36-60 37" id="n"/><path fill="#333" d="M210-169c-67 3-38 105-44 169h-31v-121c0-29-5-50-35-48C34-165 62-65 56 0H25l-1-190h30c1 10-1 24 2 32 10-44 99-50 107 0 11-21 27-35 58-36 85-2 47 119 55 194h-31v-121c0-29-5-49-35-48" id="o"/><path fill="#333" d="M115-194c55 1 70 41 70 98S169 2 115 4C84 4 66-9 55-30l1 105H24l-1-265h31l2 30c10-21 28-34 59-34zm-8 174c40 0 45-34 45-75s-6-73-45-74c-42 0-51 32-51 76 0 43 10 73 51 73" id="p"/><g id="c"><use transform="matrix(0.06172839506172839,0,0,0.06172839506172839,0,0)" xlink:href="#m"/><use transform="matrix(0.06172839506172839,0,0,0.06172839506172839,11.11111111111111,0)" xlink:href="#n"/><use transform="matrix(0.06172839506172839,0,0,0.06172839506172839,23.45679012345679,0)" xlink:href="#o"/><use transform="matrix(0.06172839506172839,0,0,0.06172839506172839,41.91358024691358,0)" xlink:href="#p"/></g><path fill="#333" d="M185-189c-5-48-123-54-124 2 14 75 158 14 163 119 3 78-121 87-175 55-17-10-28-26-33-46l33-7c5 56 141 63 141-1 0-78-155-14-162-118-5-82 145-84 179-34 5 7 8 16 11 25" id="q"/><path fill="#333" d="M106-169C34-169 62-67 57 0H25v-261h32l-1 103c12-21 28-36 61-36 89 0 53 116 60 194h-32v-121c2-32-8-49-39-48" id="r"/><path fill="#333" d="M100-194c62-1 85 37 85 99 1 63-27 99-86 99S16-35 15-95c0-66 28-99 85-99zM99-20c44 1 53-31 53-75 0-43-8-75-51-75s-53 32-53 75 10 74 51 75" id="s"/><path fill="#333" d="M59-47c-2 24 18 29 38 22v24C64 9 27 4 27-40v-127H5v-23h24l9-43h21v43h35v23H59v120" id="t"/><g id="d"><use transform="matrix(0.06172839506172839,0,0,0.06172839506172839,0,0)" xlink:href="#q"/><use transform="matrix(0.06172839506172839,0,0,0.06172839506172839,14.814814814814813,0)" xlink:href="#r"/><use transform="matrix(0.06172839506172839,0,0,0.06172839506172839,27.160493827160494,0)" xlink:href="#s"/><use transform="matrix(0.06172839506172839,0,0,0.06172839506172839,39.50617283950617,0)" xlink:href="#s"/><use transform="matrix(0.06172839506172839,0,0,0.06172839506172839,51.85185185185185,0)" xlink:href="#t"/></g><path fill="#333" d="M233-177c-1 41-23 64-60 70L243 0h-38l-65-103H63V0H30v-248c88 3 205-21 203 71zM63-129c60-2 137 13 137-47 0-61-80-42-137-45v92" id="u"/><path fill="#333" d="M117-194c89-4 53 116 60 194h-32v-121c0-31-8-49-39-48C34-167 62-67 57 0H25l-1-190h30c1 10-1 24 2 32 11-22 29-35 61-36" id="v"/><g id="e"><use transform="matrix(0.06172839506172839,0,0,0.06172839506172839,0,0)" xlink:href="#u"/><use transform="matrix(0.06172839506172839,0,0,0.06172839506172839,15.987654320987653,0)" xlink:href="#n"/><use transform="matrix(0.06172839506172839,0,0,0.06172839506172839,28.333333333333332,0)" xlink:href="#v"/></g></defs></g></svg>