<svg id="Layer_1" data-name="Layer 1" xmlns="http://www.w3.org/2000/svg" xmlns:xlink="http://www.w3.org/1999/xlink" viewBox="0 0 1920 724.7"><defs><style>.cls-1{fill:none;}.cls-2{clip-path:url(#clip-path);}.cls-11,.cls-3{fill:#464775;}.cls-4{fill:#0dae9a;}.cls-5{clip-path:url(#clip-path-2);}.cls-11,.cls-6{font-size:40px;font-family:MuseoSansRounded-500, Museo Sans Rounded;font-weight:500;}.cls-6{fill:#fff;}.cls-7{letter-spacing:0em;}.cls-8{fill:#e5c721;}.cls-9{clip-path:url(#clip-path-4);}.cls-10{clip-path:url(#clip-path-6);}.cls-12{letter-spacing:-0.01em;}.cls-13{letter-spacing:-0.04em;}.cls-14{clip-path:url(#clip-path-7);}</style><clipPath id="clip-path"><rect class="cls-1" y="4" width="1920" height="1080"/></clipPath><clipPath id="clip-path-2"><rect class="cls-1" x="829.6" y="609.57" width="247.24" height="76"/></clipPath><clipPath id="clip-path-4"><rect class="cls-1" x="895.74" y="53.02" width="114.96" height="76"/></clipPath><clipPath id="clip-path-6"><rect class="cls-1" x="844.6" y="262.93" width="217.24" height="76"/></clipPath><clipPath id="clip-path-7"><rect class="cls-1" y="5" width="1920" height="1080"/></clipPath></defs><g class="cls-2"><path class="cls-3" d="M482.85,249.23a1.22,1.22,0,0,1,1.36-1.24H486a1.43,1.43,0,0,1,1.48,1l6.12,14.24q.24.6.48,1.26l.44,1.22.48,1.32h.08c.13-.43.28-.87.44-1.32l.44-1.22q.24-.66.48-1.26L502.57,249a1.43,1.43,0,0,1,1.48-1h1.8a1.22,1.22,0,0,1,1.36,1.24l2.08,25.64a1.13,1.13,0,0,1-1.28,1.36h-1.28a1.24,1.24,0,0,1-1.36-1.28l-1.28-16.52c0-.43-.09-.88-.1-1.36s0-.93,0-1.36,0-1,0-1.44h-.08c-.19.51-.36,1-.52,1.48s-.33.89-.5,1.38-.34.93-.5,1.3l-5.2,11.68a1.5,1.5,0,0,1-1.52,1h-1.32a1.5,1.5,0,0,1-1.52-1l-5.2-11.68c-.16-.37-.33-.8-.5-1.28l-.5-1.4c-.19-.51-.36-1-.52-1.56h-.08v2.86a11.93,11.93,0,0,1-.08,1.38L484.69,275a1.22,1.22,0,0,1-1.32,1.28h-1.32a1.13,1.13,0,0,1-1.28-1.36Z"/><path class="cls-3" d="M513.25,266.11a11.71,11.71,0,0,1,.78-4.36,9.94,9.94,0,0,1,2.12-3.34,9.33,9.33,0,0,1,3.2-2.14,10.46,10.46,0,0,1,4-.76,9.21,9.21,0,0,1,3.72.72,7.69,7.69,0,0,1,2.74,2,9,9,0,0,1,1.68,3,12.54,12.54,0,0,1,.58,3.88,1.37,1.37,0,0,1-.38,1,1.29,1.29,0,0,1-1,.4H517.21a7.64,7.64,0,0,0,.68,2.92,6.89,6.89,0,0,0,1.56,2.16,6.25,6.25,0,0,0,2.18,1.32,7.6,7.6,0,0,0,2.58.44,7.28,7.28,0,0,0,2.92-.54,9.62,9.62,0,0,0,1.92-1.06,1.17,1.17,0,0,1,1.8.44l.36.6a1.36,1.36,0,0,1,.22,1,1.26,1.26,0,0,1-.62.78,12.68,12.68,0,0,1-1.12.7,11.64,11.64,0,0,1-1.54.7,14.69,14.69,0,0,1-1.92.54,10.9,10.9,0,0,1-2.26.22,11.11,11.11,0,0,1-4.36-.82,10.29,10.29,0,0,1-3.38-2.24,10,10,0,0,1-2.2-3.36A11.1,11.1,0,0,1,513.25,266.11Zm15-2.16a5.64,5.64,0,0,0-1.5-4,4.76,4.76,0,0,0-3.42-1.36,5.63,5.63,0,0,0-3.86,1.42,6.55,6.55,0,0,0-2.06,4Z"/><path class="cls-3" d="M534.69,270.71a5.72,5.72,0,0,1,.6-2.7,5.66,5.66,0,0,1,1.6-1.9,8.79,8.79,0,0,1,2.26-1.24,14.27,14.27,0,0,1,2.62-.72,22.67,22.67,0,0,1,2.66-.32c.86-.05,1.64-.08,2.34-.08h1v-.52a5.84,5.84,0,0,0-.34-2.1,3.38,3.38,0,0,0-2.34-2.12,6.38,6.38,0,0,0-1.72-.22,7.72,7.72,0,0,0-2.7.44,11.27,11.27,0,0,0-1.86.84,1.24,1.24,0,0,1-1.8-.48l-.32-.56a1.17,1.17,0,0,1,.44-1.8,17,17,0,0,1,2.58-1.12,11.7,11.7,0,0,1,4-.6,8.09,8.09,0,0,1,5.88,2,7.88,7.88,0,0,1,2.08,5.9v11.48a1.17,1.17,0,0,1-1.32,1.32h-1a1.17,1.17,0,0,1-1.32-1.32v-1.72a1.54,1.54,0,0,1,0-.4c0-.11,0-.21.08-.32h-.08a8.11,8.11,0,0,1-1.52,2.12,8.9,8.9,0,0,1-2,1.46,6.41,6.41,0,0,1-3,.66,8.16,8.16,0,0,1-2.56-.4,6.46,6.46,0,0,1-2.18-1.18,5.83,5.83,0,0,1-1.5-1.88A5.43,5.43,0,0,1,534.69,270.71Zm3.92-.32a3.2,3.2,0,0,0,.94,2.22,3.63,3.63,0,0,0,2.82,1,4.54,4.54,0,0,0,2.3-.58,5.57,5.57,0,0,0,1.72-1.52,7.76,7.76,0,0,0,1.08-2.08,7.19,7.19,0,0,0,.38-2.26v-.88h-1c-.72,0-1.55,0-2.48.1a11.66,11.66,0,0,0-2.68.5,5.44,5.44,0,0,0-2.16,1.22A2.93,2.93,0,0,0,538.61,270.39Z"/><path class="cls-3" d="M556.21,274.51a1,1,0,0,1-.56-.8,1.58,1.58,0,0,1,.28-1l.4-.56a1.23,1.23,0,0,1,.82-.56,1.88,1.88,0,0,1,1,.28,18.54,18.54,0,0,0,1.92,1,6.92,6.92,0,0,0,3,.6,4.09,4.09,0,0,0,2.48-.7,2.31,2.31,0,0,0,1-2,1.91,1.91,0,0,0-.78-1.6,9,9,0,0,0-1.94-1.1c-.78-.33-1.61-.65-2.5-1a11.77,11.77,0,0,1-2.5-1.2,6.89,6.89,0,0,1-1.94-1.82,4.66,4.66,0,0,1-.78-2.8,5.32,5.32,0,0,1,.58-2.54,5.13,5.13,0,0,1,1.58-1.82,7.23,7.23,0,0,1,2.34-1.1,10.38,10.38,0,0,1,2.82-.38,9.47,9.47,0,0,1,3.5.56,15.14,15.14,0,0,1,2.1,1,1.13,1.13,0,0,1,.66.74,1.48,1.48,0,0,1-.22,1l-.36.6c-.38.67-1,.81-1.76.44a14.34,14.34,0,0,0-1.66-.76,6.67,6.67,0,0,0-2.46-.4,4.3,4.3,0,0,0-2.42.64,2.13,2.13,0,0,0-1,1.92,2,2,0,0,0,.78,1.62,8,8,0,0,0,1.94,1.1c.77.32,1.6.64,2.5,1a14,14,0,0,1,2.5,1.18,6.54,6.54,0,0,1,1.94,1.8,4.75,4.75,0,0,1,.78,2.82,5.47,5.47,0,0,1-2,4.28,7,7,0,0,1-2.3,1.24,9.66,9.66,0,0,1-3,.44,11.21,11.21,0,0,1-2.34-.22,11,11,0,0,1-1.9-.56,13.18,13.18,0,0,1-1.5-.72A8.1,8.1,0,0,1,556.21,274.51Z"/><path class="cls-3" d="M574.33,257.31a1.17,1.17,0,0,1,1.32-1.32h1.24a1.15,1.15,0,0,1,1.28,1.32v10.76a12.22,12.22,0,0,0,.14,2,4.16,4.16,0,0,0,.56,1.6,3,3,0,0,0,1.16,1.08,4,4,0,0,0,1.94.4,5.87,5.87,0,0,0,2.78-.64,6.94,6.94,0,0,0,2.08-1.68,7.32,7.32,0,0,0,1.3-2.42,9.61,9.61,0,0,0,.44-2.9v-8.16a1.17,1.17,0,0,1,1.32-1.32h1.24a1.17,1.17,0,0,1,1.32,1.32v17.6a1.17,1.17,0,0,1-1.32,1.32H590a1.17,1.17,0,0,1-1.32-1.32v-2.22a1.43,1.43,0,0,1,0-.38c0-.11,0-.23.08-.36h-.08a7.27,7.27,0,0,1-1,1.6,8.23,8.23,0,0,1-1.62,1.54,9.18,9.18,0,0,1-2.2,1.16,7.73,7.73,0,0,1-2.72.46,6.67,6.67,0,0,1-5.16-1.86q-1.72-1.86-1.72-5.9Z"/><path class="cls-3" d="M598.05,257.31a1.17,1.17,0,0,1,1.32-1.32h1.12a1.17,1.17,0,0,1,1.32,1.32v2.32c0,.21,0,.41,0,.6s0,.35-.06.48a2.39,2.39,0,0,0,0,.44h.08a8.84,8.84,0,0,1,.9-2,7.35,7.35,0,0,1,1.38-1.7,7,7,0,0,1,1.78-1.2,4.89,4.89,0,0,1,2.14-.46,1.15,1.15,0,0,1,1.28,1.32v1.12q0,1.32-1.44,1.32a4.52,4.52,0,0,0-2.58.74,6.3,6.3,0,0,0-1.84,1.9,8.47,8.47,0,0,0-1.1,2.66,12.71,12.71,0,0,0-.36,3v7a1.17,1.17,0,0,1-1.32,1.32h-1.24a1.17,1.17,0,0,1-1.32-1.32Z"/><path class="cls-3" d="M610.41,266.11a11.71,11.71,0,0,1,.78-4.36,9.94,9.94,0,0,1,2.12-3.34,9.33,9.33,0,0,1,3.2-2.14,10.46,10.46,0,0,1,4-.76,9.21,9.21,0,0,1,3.72.72,7.69,7.69,0,0,1,2.74,2,9,9,0,0,1,1.68,3,12.54,12.54,0,0,1,.58,3.88,1.37,1.37,0,0,1-.38,1,1.29,1.29,0,0,1-1,.4H614.37a7.64,7.64,0,0,0,.68,2.92,6.89,6.89,0,0,0,1.56,2.16,6.25,6.25,0,0,0,2.18,1.32,7.6,7.6,0,0,0,2.58.44,7.28,7.28,0,0,0,2.92-.54,9.62,9.62,0,0,0,1.92-1.06,1.17,1.17,0,0,1,1.8.44l.36.6a1.36,1.36,0,0,1,.22,1,1.26,1.26,0,0,1-.62.78,12.68,12.68,0,0,1-1.12.7,11.64,11.64,0,0,1-1.54.7,14.69,14.69,0,0,1-1.92.54,10.9,10.9,0,0,1-2.26.22,11.11,11.11,0,0,1-4.36-.82,10.29,10.29,0,0,1-3.38-2.24,10,10,0,0,1-2.2-3.36A11.1,11.1,0,0,1,610.41,266.11Zm15-2.16a5.64,5.64,0,0,0-1.5-4,4.76,4.76,0,0,0-3.42-1.36,5.63,5.63,0,0,0-3.86,1.42,6.55,6.55,0,0,0-2.06,4Z"/><path class="cls-3" d="M1354.67,249.07a1.45,1.45,0,0,1,1.49-1.08h1.92a1.42,1.42,0,0,1,1.47,1.08l9.28,25.64a1.16,1.16,0,0,1,0,1.1,1.18,1.18,0,0,1-1,.42h-1.35a1.43,1.43,0,0,1-1.48-1.08l-2.52-7h-10.65l-2.47,7a1.39,1.39,0,0,1-1.45,1.08h-1.36a1.17,1.17,0,0,1-1-.42,1.22,1.22,0,0,1,0-1.1Zm6.69,15.76-3.12-9a11,11,0,0,1-.38-1.22c-.12-.44-.24-.87-.35-1.3s-.22-1-.35-1.48h-.08c-.16.51-.3,1-.41,1.48s-.25.86-.35,1.3-.23.85-.36,1.22l-3.17,9Z"/><path class="cls-3" d="M1370.87,266.11a10.92,10.92,0,0,1,.8-4.18,10.2,10.2,0,0,1,2.24-3.36,10.57,10.57,0,0,1,3.42-2.24,11.18,11.18,0,0,1,4.34-.82,11,11,0,0,1,2.32.22,13.23,13.23,0,0,1,1.88.54,8.65,8.65,0,0,1,1.46.7,8.8,8.8,0,0,1,1,.7,1,1,0,0,1,.56.8,1.52,1.52,0,0,1-.32,1l-.4.6c-.42.67-1,.77-1.8.32a13.23,13.23,0,0,0-1.78-1,6.35,6.35,0,0,0-2.74-.54,7.3,7.3,0,0,0-2.82.54,6.78,6.78,0,0,0-2.24,1.5,6.91,6.91,0,0,0-1.46,2.28,8.24,8.24,0,0,0,0,5.76,6.84,6.84,0,0,0,1.48,2.3,7.08,7.08,0,0,0,2.26,1.54,7.22,7.22,0,0,0,2.86.56,7,7,0,0,0,3.14-.64,12.33,12.33,0,0,0,2-1.2,1.14,1.14,0,0,1,1.8.36l.32.6a1.16,1.16,0,0,1-.36,1.76,11.13,11.13,0,0,1-1.1.78,10.26,10.26,0,0,1-1.56.8,12.26,12.26,0,0,1-2,.64,11.42,11.42,0,0,1-2.5.26,11.66,11.66,0,0,1-4.38-.8,10,10,0,0,1-3.4-2.22,10.47,10.47,0,0,1-2.22-3.36A11,11,0,0,1,1370.87,266.11Z"/><path class="cls-3" d="M1394.39,259.35H1393a1.15,1.15,0,0,1-1.28-1.32v-.52a1.17,1.17,0,0,1,1.32-1.32h1.44v-4.44a1.17,1.17,0,0,1,1.32-1.32H1397a1.17,1.17,0,0,1,1.32,1.32v4.44h3.52a1.17,1.17,0,0,1,1.32,1.32V258c0,.88-.42,1.32-1.28,1.32h-3.56v9a5.79,5.79,0,0,0,.4,2.32,3.82,3.82,0,0,0,1,1.36,3.32,3.32,0,0,0,1.24.66,6.72,6.72,0,0,0,1.22.22,1.86,1.86,0,0,1,1.1.36,1.28,1.28,0,0,1,.3,1v.84c0,.88-.53,1.32-1.6,1.32A9.43,9.43,0,0,1,1399,276a6.54,6.54,0,0,1-2.38-1.36,6.85,6.85,0,0,1-1.64-2.32,8.2,8.2,0,0,1-.62-3.32Z"/><path class="cls-3" d="M840.92,468.81a1.17,1.17,0,0,1,1.32-1.32H856a1.17,1.17,0,0,1,1.32,1.32v.8a1.17,1.17,0,0,1-1.32,1.32H844.84v8.84h8.84a1.17,1.17,0,0,1,1.32,1.32v.8a1.17,1.17,0,0,1-1.32,1.32h-8.84v9.08h11.84a1.17,1.17,0,0,1,1.32,1.32v.8a1.17,1.17,0,0,1-1.32,1.32H842.24a1.17,1.17,0,0,1-1.32-1.32Z"/><path class="cls-3" d="M862.12,476.81a1.17,1.17,0,0,1,1.32-1.32h1.12a1.17,1.17,0,0,1,1.32,1.32v1.8a4.34,4.34,0,0,1-.08.8,1.37,1.37,0,0,0,0,.36h.08a8.25,8.25,0,0,1,.9-1.48,7.55,7.55,0,0,1,1.58-1.56,9.37,9.37,0,0,1,2.24-1.22,8.16,8.16,0,0,1,3-.5q3.6,0,5.26,1.94t1.66,5.82v11.64a1.17,1.17,0,0,1-1.32,1.32h-1.24a1.17,1.17,0,0,1-1.32-1.32V483.65a13.75,13.75,0,0,0-.14-2,4.32,4.32,0,0,0-.54-1.6,2.89,2.89,0,0,0-1.16-1.08,4.17,4.17,0,0,0-2-.4,6.29,6.29,0,0,0-2.72.58,6.59,6.59,0,0,0-2.14,1.58,7.13,7.13,0,0,0-1.4,2.38,8.64,8.64,0,0,0-.5,2.94v8.36a1.17,1.17,0,0,1-1.32,1.32h-1.24a1.17,1.17,0,0,1-1.32-1.32Z"/><path class="cls-3" d="M883.64,477a1.19,1.19,0,0,1,0-1.1,1.12,1.12,0,0,1,1-.42H886a1.43,1.43,0,0,1,1.48,1.08l4.56,12.6c.1.29.21.59.3.9s.16.61.22.9.15.64.2,1h.08l.24-1c0-.29.12-.59.2-.9a8.57,8.57,0,0,1,.28-.9l4.56-12.6a1.43,1.43,0,0,1,1.48-1.08H901a1.17,1.17,0,0,1,1,.42,1.11,1.11,0,0,1,0,1.1l-6.56,17.68a1.43,1.43,0,0,1-1.48,1h-2.24a1.43,1.43,0,0,1-1.48-1Z"/><path class="cls-3" d="M906.92,471.45a1.17,1.17,0,0,1-1.32-1.32v-1.32a1.17,1.17,0,0,1,1.32-1.32h1.36a1.17,1.17,0,0,1,1.32,1.32v1.32a1.17,1.17,0,0,1-1.32,1.32Zm-1.28,5.36a1.17,1.17,0,0,1,1.32-1.32h1.24a1.17,1.17,0,0,1,1.32,1.32v17.6a1.17,1.17,0,0,1-1.32,1.32H907a1.17,1.17,0,0,1-1.32-1.32Z"/><path class="cls-3" d="M915.12,476.81a1.17,1.17,0,0,1,1.32-1.32h1.12a1.17,1.17,0,0,1,1.32,1.32v2.32c0,.21,0,.41,0,.6a4.46,4.46,0,0,1-.06.48,2.39,2.39,0,0,0,0,.44h.08a8.84,8.84,0,0,1,.9-2,7.35,7.35,0,0,1,1.38-1.7,7.14,7.14,0,0,1,1.78-1.2,4.89,4.89,0,0,1,2.14-.46,1.15,1.15,0,0,1,1.28,1.32v1.12q0,1.32-1.44,1.32a4.45,4.45,0,0,0-2.58.74,6.3,6.3,0,0,0-1.84,1.9,8.47,8.47,0,0,0-1.1,2.66,12.71,12.71,0,0,0-.36,3v7a1.17,1.17,0,0,1-1.32,1.32h-1.24a1.17,1.17,0,0,1-1.32-1.32Z"/><path class="cls-3" d="M927.32,485.57a10.18,10.18,0,0,1,.86-4.22A10.57,10.57,0,0,1,930.5,478a10.19,10.19,0,0,1,3.44-2.2,12,12,0,0,1,8.52,0,10.48,10.48,0,0,1,3.46,2.2,10.79,10.79,0,0,1,2.34,3.36,10.88,10.88,0,0,1,0,8.48,10.53,10.53,0,0,1-5.8,5.58,11.74,11.74,0,0,1-8.52,0,10.4,10.4,0,0,1-3.44-2.22,10.57,10.57,0,0,1-2.32-3.36A10.27,10.27,0,0,1,927.32,485.57Zm3.92,0a7.41,7.41,0,0,0,.56,2.94,7.16,7.16,0,0,0,1.5,2.3,6.94,6.94,0,0,0,7.6,1.5,7,7,0,0,0,2.22-1.5,6.84,6.84,0,0,0,1.5-2.3,7.77,7.77,0,0,0,.54-2.94,7.53,7.53,0,0,0-.54-2.88,6.85,6.85,0,0,0-1.5-2.28,7,7,0,0,0-2.22-1.5,6.88,6.88,0,0,0-7.6,1.5,7.31,7.31,0,0,0-2.06,5.16Z"/><path class="cls-3" d="M953.4,476.81a1.17,1.17,0,0,1,1.32-1.32h1.12a1.17,1.17,0,0,1,1.32,1.32v1.8a4.34,4.34,0,0,1-.08.8,1.37,1.37,0,0,0,0,.36h.08a7.22,7.22,0,0,1,.9-1.48,7.55,7.55,0,0,1,1.58-1.56,9.19,9.19,0,0,1,2.24-1.22,8.16,8.16,0,0,1,3-.5q3.6,0,5.26,1.94c1.1,1.29,1.66,3.23,1.66,5.82v11.64a1.17,1.17,0,0,1-1.32,1.32h-1.24a1.17,1.17,0,0,1-1.32-1.32V483.65a13.75,13.75,0,0,0-.14-2,4.72,4.72,0,0,0-.54-1.6A3,3,0,0,0,966,479a4.17,4.17,0,0,0-2-.4,6.26,6.26,0,0,0-2.72.58,6.59,6.59,0,0,0-2.14,1.58,7.13,7.13,0,0,0-1.4,2.38,8.41,8.41,0,0,0-.5,2.94v8.36a1.17,1.17,0,0,1-1.32,1.32h-1.24a1.17,1.17,0,0,1-1.32-1.32Z"/><path class="cls-3" d="M977,476.81a1.17,1.17,0,0,1,1.32-1.32h1.12a1.17,1.17,0,0,1,1.32,1.32v1.8a4.34,4.34,0,0,1-.08.8,1.37,1.37,0,0,0,0,.36h.08a6.72,6.72,0,0,1,1.06-1.74,7.94,7.94,0,0,1,1.64-1.52,9,9,0,0,1,2-1.08,6.38,6.38,0,0,1,2.3-.42q5,0,6.08,4.6H994a7,7,0,0,1,1.12-1.72,8.26,8.26,0,0,1,1.64-1.48,7.79,7.79,0,0,1,2-1,7.34,7.34,0,0,1,2.36-.38q3.48,0,5.08,1.94c1.06,1.29,1.6,3.23,1.6,5.82v11.64a1.17,1.17,0,0,1-1.32,1.32h-1.24a1.17,1.17,0,0,1-1.32-1.32v-10.8a13.75,13.75,0,0,0-.14-2,4.94,4.94,0,0,0-.52-1.6,2.94,2.94,0,0,0-1.08-1.08,3.63,3.63,0,0,0-1.82-.4,4.84,4.84,0,0,0-2.52.66,6.13,6.13,0,0,0-1.9,1.76,8,8,0,0,0-1.18,2.5,10.15,10.15,0,0,0-.4,2.84v8.12a1.15,1.15,0,0,1-1.28,1.32H991.8c-.86,0-1.28-.44-1.28-1.32v-10.8a14.77,14.77,0,0,0-.12-1.92,5,5,0,0,0-.48-1.62,2.78,2.78,0,0,0-1.06-1.12,3.61,3.61,0,0,0-1.86-.42,5,5,0,0,0-2.58.68A6.27,6.27,0,0,0,982.5,481a8,8,0,0,0-1.18,2.5,10,10,0,0,0-.4,2.8v8.12a1.17,1.17,0,0,1-1.32,1.32h-1.24a1.17,1.17,0,0,1-1.32-1.32Z"/><path class="cls-3" d="M1011.84,485.61a11.71,11.71,0,0,1,.78-4.36,9.94,9.94,0,0,1,2.12-3.34,9.33,9.33,0,0,1,3.2-2.14,10.46,10.46,0,0,1,4-.76,9.21,9.21,0,0,1,3.72.72,7.69,7.69,0,0,1,2.74,2,9,9,0,0,1,1.68,3,12.54,12.54,0,0,1,.58,3.88,1.37,1.37,0,0,1-.38,1,1.29,1.29,0,0,1-1,.4H1015.8a7.64,7.64,0,0,0,.68,2.92,6.89,6.89,0,0,0,1.56,2.16,6.25,6.25,0,0,0,2.18,1.32,7.6,7.6,0,0,0,2.58.44,7.28,7.28,0,0,0,2.92-.54,9.62,9.62,0,0,0,1.92-1.06,1.17,1.17,0,0,1,1.8.44l.36.6a1.36,1.36,0,0,1,.22,1,1.28,1.28,0,0,1-.62.78,12.68,12.68,0,0,1-1.12.7,11.64,11.64,0,0,1-1.54.7,14.69,14.69,0,0,1-1.92.54,11.63,11.63,0,0,1-2.26.22,11.29,11.29,0,0,1-4.36-.82,10.29,10.29,0,0,1-3.38-2.24,10,10,0,0,1-2.2-3.36A11.1,11.1,0,0,1,1011.84,485.61Zm15-2.16a5.64,5.64,0,0,0-1.5-4,4.76,4.76,0,0,0-3.42-1.36,5.63,5.63,0,0,0-3.86,1.42,6.55,6.55,0,0,0-2.06,4Z"/><path class="cls-3" d="M1034.92,476.81a1.17,1.17,0,0,1,1.32-1.32h1.12a1.17,1.17,0,0,1,1.32,1.32v1.8a4.34,4.34,0,0,1-.08.8,1.37,1.37,0,0,0,0,.36h.08a7.22,7.22,0,0,1,.9-1.48,7.55,7.55,0,0,1,1.58-1.56,9.19,9.19,0,0,1,2.24-1.22,8.16,8.16,0,0,1,3-.5q3.6,0,5.26,1.94c1.1,1.29,1.66,3.23,1.66,5.82v11.64a1.17,1.17,0,0,1-1.32,1.32h-1.24a1.17,1.17,0,0,1-1.32-1.32V483.65a13.75,13.75,0,0,0-.14-2,4.72,4.72,0,0,0-.54-1.6,3,3,0,0,0-1.16-1.08,4.17,4.17,0,0,0-2-.4,6.26,6.26,0,0,0-2.72.58,6.59,6.59,0,0,0-2.14,1.58,7.13,7.13,0,0,0-1.4,2.38,8.41,8.41,0,0,0-.5,2.94v8.36a1.17,1.17,0,0,1-1.32,1.32h-1.24a1.17,1.17,0,0,1-1.32-1.32Z"/><path class="cls-3" d="M1059.36,478.85H1058c-.86,0-1.28-.44-1.28-1.32V477a1.17,1.17,0,0,1,1.32-1.32h1.44v-4.44a1.17,1.17,0,0,1,1.32-1.32h1.16a1.17,1.17,0,0,1,1.32,1.32v4.44h3.52a1.17,1.17,0,0,1,1.32,1.32v.52a1.15,1.15,0,0,1-1.28,1.32h-3.56v9a5.62,5.62,0,0,0,.4,2.32,3.59,3.59,0,0,0,1,1.36,3.25,3.25,0,0,0,1.24.66,6.58,6.58,0,0,0,1.22.22,1.88,1.88,0,0,1,1.1.36,1.28,1.28,0,0,1,.3,1v.84c0,.88-.54,1.32-1.6,1.32a9.34,9.34,0,0,1-2.88-.44,6.46,6.46,0,0,1-2.38-1.36,6.71,6.71,0,0,1-1.64-2.32,8.06,8.06,0,0,1-.62-3.32Z"/><rect class="cls-4" x="829.6" y="613.57" width="247.24" height="76"/></g><g class="cls-5"><text class="cls-6" transform="translate(844.1 662.05)"><tspan class="cls-7">D</tspan><tspan x="29" y="0">isturban</tspan><tspan class="cls-7" x="175.44" y="0">c</tspan><tspan x="196.52" y="0">e</tspan></text></g><g class="cls-2"><polygon class="cls-8" points="803.64 486.75 294.02 486.51 293.1 299.77 800.83 298.08 800.84 302.08 297.12 303.76 298 482.51 803.64 482.75 803.64 486.75"/><polygon class="cls-8" points="798.86 308.48 815.63 300.03 798.81 291.68 798.86 308.48"/><polygon class="cls-8" points="1105.61 480.33 1105.6 476.33 1107.6 476.32 1654.51 474.7 1653.63 295.95 1098.6 295.7 1098.6 291.7 1657.61 291.95 1658.53 478.69 1105.61 480.33"/><polygon class="cls-8" points="1107.58 469.93 1090.8 478.38 1107.63 486.73 1107.58 469.93"/><rect class="cls-4" x="895.74" y="57.02" width="114.96" height="76"/></g><g class="cls-9"><text class="cls-6" transform="translate(910.24 105.5)">Goal</text></g><g class="cls-2"><rect class="cls-8" x="844.6" y="266.93" width="217.24" height="76"/></g><g class="cls-10"><text class="cls-11" transform="translate(859.1 315.41)"><tspan class="cls-12">C</tspan><tspan x="27.84" y="0">OM</tspan><tspan class="cls-13" x="94.24" y="0">P</tspan><tspan x="116.56" y="0">ARE</tspan></text></g><g class="cls-14"><rect class="cls-4" x="951.22" y="123.9" width="4" height="120.93"/><polygon class="cls-4" points="944.82 242.83 953.22 259.63 961.62 242.83 944.82 242.83"/><rect class="cls-4" x="951.22" y="527.66" width="4" height="98.05"/><polygon class="cls-4" points="961.62 529.66 953.22 512.86 944.82 529.66 961.62 529.66"/></g></svg>